<?xml version="1.0" encoding="utf-8"?>
<!-- Generator: Adobe Illustrator 17.0.0, SVG Export Plug-In . SVG Version: 6.00 Build 0)  -->
<!DOCTYPE svg PUBLIC "-//W3C//DTD SVG 1.1//EN" "http://www.w3.org/Graphics/SVG/1.1/DTD/svg11.dtd">
<svg version="1.1" xmlns="http://www.w3.org/2000/svg" xmlns:xlink="http://www.w3.org/1999/xlink" x="0px" y="0px"
	 width="247.288px" height="84px" viewBox="0 0 247.288 84" enable-background="new 0 0 247.288 84" xml:space="preserve">
<g id="Layer_2_1_" display="none">
	<rect display="inline" width="247.288" height="84"/>
</g>
<g id="Layer_1">
	<g id="Layer_2" display="none">
		<rect x="-13.667" y="-18" display="inline" width="410" height="125.667"/>
	</g>
	<g>
		<circle fill="#FFFFFF" cx="25.944" cy="42" r="22.606"/>
		<circle fill="none" stroke="#FFFFFF" stroke-miterlimit="10" cx="25.944" cy="42" r="25.14"/>
		<g>
			<path fill="#FFFFFF" d="M63.599,33.923c1.041,0,2.01,0.166,2.907,0.498c0.898,0.332,1.675,0.83,2.33,1.494
				c0.656,0.664,1.169,1.494,1.539,2.489c0.369,0.996,0.554,2.164,0.554,3.507c0,1.176-0.151,2.263-0.452,3.259
				c-0.302,0.996-0.758,1.855-1.369,2.579c-0.61,0.723-1.372,1.293-2.285,1.708s-1.988,0.622-3.224,0.622H56.63V33.923H63.599z
				 M63.35,47.091c0.512,0,1.011-0.083,1.494-0.249c0.483-0.166,0.913-0.442,1.29-0.826c0.377-0.384,0.679-0.886,0.905-1.504
				s0.339-1.372,0.339-2.263c0-0.815-0.079-1.55-0.237-2.207c-0.158-0.656-0.418-1.218-0.781-1.685
				c-0.362-0.468-0.841-0.826-1.436-1.075c-0.596-0.249-1.332-0.374-2.206-0.374h-2.534V47.09L63.35,47.091L63.35,47.091z"/>
			<path fill="#FFFFFF" d="M75.139,33.923v16.156h-3.552V33.923H75.139z"/>
			<path fill="#FFFFFF" d="M86.475,49.953c-0.769,0.324-1.546,0.486-2.33,0.486c-1.237,0-2.35-0.215-3.337-0.644
				c-0.989-0.43-1.822-1.021-2.501-1.776c-0.679-0.754-1.2-1.641-1.562-2.659c-0.362-1.018-0.543-2.115-0.543-3.292
				c0-1.207,0.181-2.326,0.543-3.36c0.362-1.033,0.883-1.935,1.562-2.703c0.679-0.769,1.512-1.372,2.501-1.81
				c0.988-0.438,2.1-0.656,3.337-0.656c0.829,0,1.632,0.124,2.409,0.374c0.777,0.249,1.479,0.614,2.105,1.097
				c0.626,0.483,1.143,1.078,1.549,1.787c0.407,0.709,0.656,1.524,0.747,2.444h-3.394c-0.211-0.905-0.619-1.583-1.222-2.036
				c-0.604-0.453-1.335-0.679-2.195-0.679c-0.8,0-1.479,0.155-2.036,0.463c-0.558,0.309-1.011,0.723-1.357,1.244
				c-0.347,0.521-0.6,1.113-0.758,1.777c-0.158,0.664-0.237,1.35-0.237,2.059c0,0.679,0.079,1.339,0.237,1.98
				c0.158,0.642,0.411,1.219,0.758,1.731c0.347,0.512,0.8,0.925,1.357,1.233c0.558,0.309,1.237,0.463,2.036,0.463
				c1.176,0,2.085-0.298,2.726-0.893c0.641-0.596,1.014-1.46,1.12-2.591h-3.575v-2.647h6.788v8.734h-2.262l-0.362-1.833
				C87.945,49.06,87.244,49.629,86.475,49.953z"/>
			<path fill="#FFFFFF" d="M95.819,33.923v16.156h-3.552V33.923H95.819z"/>
			<path fill="#FFFFFF" d="M96.769,36.91v-2.987h13.236v2.987h-4.842v13.169h-3.552V36.91H96.769z"/>
			<path fill="#FFFFFF" d="M116.024,33.923l6.041,16.156h-3.688l-1.222-3.598h-6.041l-1.267,3.598h-3.575l6.11-16.156
				C112.381,33.923,116.024,33.923,116.024,33.923z M116.228,43.833l-2.036-5.929h-0.046l-2.104,5.929H116.228z"/>
			<path fill="#FFFFFF" d="M126.116,33.923v13.169h7.874v2.987h-11.427V33.923H126.116z"/>
			<path fill="#FFFFFF" stroke="#FFFFFF" stroke-width="0.2" stroke-miterlimit="10" d="M147.95,38.539
				c-0.031-0.694-0.178-1.298-0.441-1.81c-0.265-0.512-0.622-0.942-1.075-1.29c-0.453-0.347-0.993-0.607-1.618-0.781
				c-0.626-0.173-1.308-0.26-2.047-0.26c-0.453,0-0.939,0.054-1.46,0.158c-0.52,0.106-1.003,0.291-1.448,0.555
				c-0.445,0.265-0.811,0.619-1.097,1.063c-0.287,0.445-0.43,0.999-0.43,1.663c0,0.649,0.158,1.176,0.476,1.583
				c0.317,0.408,0.731,0.736,1.244,0.985c0.512,0.249,1.101,0.448,1.765,0.6c0.664,0.151,1.335,0.294,2.014,0.43
				c0.694,0.136,1.369,0.298,2.025,0.487c0.656,0.188,1.244,0.445,1.764,0.769c0.52,0.325,0.939,0.747,1.256,1.268
				c0.317,0.52,0.476,1.173,0.476,1.957c0,0.845-0.181,1.554-0.543,2.127c-0.362,0.574-0.818,1.041-1.369,1.403
				c-0.55,0.362-1.161,0.622-1.833,0.781c-0.671,0.158-1.316,0.237-1.935,0.237c-0.95,0-1.84-0.102-2.67-0.305
				c-0.83-0.203-1.553-0.535-2.172-0.996c-0.619-0.46-1.105-1.052-1.459-1.776c-0.354-0.723-0.525-1.607-0.509-2.647h0.996
				c-0.045,0.891,0.083,1.64,0.385,2.251c0.301,0.611,0.72,1.112,1.256,1.505c0.534,0.392,1.165,0.674,1.889,0.848
				c0.724,0.173,1.486,0.26,2.286,0.26c0.483,0,0.999-0.06,1.55-0.181c0.55-0.12,1.056-0.324,1.516-0.611
				c0.46-0.286,0.845-0.663,1.154-1.13c0.309-0.468,0.463-1.056,0.463-1.765c0-0.679-0.158-1.233-0.476-1.663
				c-0.317-0.43-0.736-0.777-1.256-1.042c-0.52-0.264-1.109-0.476-1.764-0.633c-0.656-0.158-1.332-0.306-2.025-0.442
				c-0.679-0.135-1.35-0.294-2.014-0.475c-0.664-0.182-1.253-0.426-1.765-0.736c-0.512-0.309-0.927-0.709-1.244-1.2
				c-0.317-0.49-0.476-1.12-0.476-1.889c0-0.769,0.162-1.429,0.487-1.981c0.323-0.55,0.746-0.996,1.267-1.335
				c0.52-0.339,1.105-0.588,1.754-0.746s1.29-0.237,1.923-0.237c0.845,0,1.632,0.094,2.364,0.283
				c0.732,0.189,1.372,0.483,1.923,0.882c0.55,0.4,0.992,0.916,1.323,1.55s0.52,1.396,0.566,2.286L147.95,38.539L147.95,38.539z"/>
			<path fill="#FFFFFF" stroke="#FFFFFF" stroke-width="0.2" stroke-miterlimit="10" d="M161.231,33.923h1.109l-6.494,9.389v6.765
				h-0.996v-6.765l-6.449-9.389h1.131l5.838,8.553L161.231,33.923z"/>
			<path fill="#FFFFFF" stroke="#FFFFFF" stroke-width="0.2" stroke-miterlimit="10" d="M162.385,33.923h1.425l6.313,15.046h0.045
				l6.245-15.046h1.425v16.156h-0.996V35.145h-0.045l-6.154,14.934h-0.996l-6.222-14.934h-0.045v14.934h-0.996L162.385,33.923
				L162.385,33.923z"/>
			<path fill="#FFFFFF" stroke="#FFFFFF" stroke-width="0.2" stroke-miterlimit="10" d="M178.88,33.923h6.878
				c0.452,0,0.954,0.054,1.504,0.158c0.55,0.106,1.064,0.321,1.539,0.644c0.475,0.325,0.87,0.785,1.188,1.381
				c0.317,0.596,0.476,1.377,0.476,2.342c0,1.418-0.438,2.512-1.312,3.281c-0.875,0.769-2.127,1.154-3.755,1.154h-5.521v7.195
				h-0.996L178.88,33.923L178.88,33.923z M179.876,42.023h5.679c0.723,0,1.338-0.109,1.843-0.329
				c0.505-0.219,0.909-0.501,1.21-0.848c0.301-0.347,0.52-0.732,0.656-1.154c0.136-0.422,0.203-0.845,0.203-1.268
				c0-0.301-0.045-0.659-0.136-1.075c-0.09-0.414-0.271-0.815-0.543-1.199c-0.272-0.384-0.653-0.709-1.142-0.973
				c-0.491-0.264-1.143-0.396-1.958-0.396h-5.814L179.876,42.023L179.876,42.023z"/>
			<path fill="#FFFFFF" stroke="#FFFFFF" stroke-width="0.2" stroke-miterlimit="10" d="M190.894,33.923h0.996v7.331h10.317v-7.331
				h0.996v16.156h-0.996v-7.965H191.89v7.964h-0.996V33.923z"/>
			<path fill="#FFFFFF" stroke="#FFFFFF" stroke-width="0.2" stroke-miterlimit="10" d="M219.335,42c0,1.176-0.173,2.281-0.52,3.314
				c-0.347,1.033-0.848,1.931-1.504,2.693c-0.656,0.762-1.46,1.362-2.41,1.799c-0.95,0.438-2.03,0.656-3.236,0.656
				s-2.289-0.219-3.247-0.656c-0.958-0.437-1.764-1.036-2.421-1.799c-0.656-0.761-1.158-1.659-1.505-2.693
				c-0.347-1.033-0.52-2.138-0.52-3.314s0.173-2.281,0.52-3.315c0.347-1.033,0.849-1.93,1.505-2.693
				c0.656-0.761,1.463-1.361,2.421-1.799c0.958-0.438,2.04-0.656,3.247-0.656s2.286,0.219,3.236,0.656
				c0.95,0.438,1.754,1.037,2.41,1.799c0.656,0.762,1.158,1.659,1.504,2.693C219.161,39.719,219.335,40.824,219.335,42z M204.967,42
				c0,1.041,0.151,2.021,0.453,2.941c0.301,0.92,0.739,1.724,1.312,2.41c0.573,0.687,1.274,1.233,2.104,1.64
				c0.83,0.408,1.773,0.611,2.828,0.611s1.995-0.203,2.817-0.611c0.821-0.407,1.519-0.953,2.093-1.64
				c0.573-0.687,1.01-1.489,1.312-2.41c0.301-0.919,0.452-1.901,0.452-2.941c0-1.042-0.151-2.021-0.452-2.941
				c-0.302-0.919-0.739-1.724-1.312-2.41c-0.574-0.687-1.271-1.233-2.093-1.64c-0.823-0.408-1.762-0.611-2.817-0.611
				s-1.999,0.203-2.828,0.611c-0.83,0.407-1.531,0.954-2.104,1.64c-0.574,0.687-1.011,1.49-1.312,2.41
				C205.118,39.979,204.967,40.96,204.967,42z"/>
			<path fill="#FFFFFF" stroke="#FFFFFF" stroke-width="0.2" stroke-miterlimit="10" d="M220.104,33.923h1.244l10.204,14.82h0.045
				v-14.82h0.996v16.156h-1.176l-10.272-14.934H221.1v14.934h-0.996V33.923z"/>
			<path fill="#FFFFFF" stroke="#FFFFFF" stroke-width="0.2" stroke-miterlimit="10" d="M245.921,33.923h1.109l-6.494,9.389v6.765
				h-0.996v-6.765l-6.449-9.389h1.131l5.838,8.553L245.921,33.923z"/>
		</g>
		<g>
			<path stroke="#000000" stroke-miterlimit="10" d="M18.232,33.926c1.042,0,2.012,0.166,2.911,0.499
				c0.898,0.332,1.676,0.831,2.333,1.495c0.657,0.664,1.17,1.495,1.54,2.491c0.37,0.996,0.555,2.167,0.555,3.511
				c0,1.178-0.151,2.265-0.453,3.262c-0.303,0.996-0.758,1.857-1.37,2.582c-0.611,0.725-1.374,1.295-2.288,1.71
				c-0.914,0.415-1.99,0.623-3.228,0.623h-6.976V33.926H18.232z M17.983,47.108c0.514,0,1.011-0.082,1.495-0.249
				c0.483-0.166,0.914-0.442,1.291-0.827c0.377-0.385,0.679-0.886,0.906-1.506c0.226-0.62,0.34-1.374,0.34-2.265
				c0-0.816-0.079-1.552-0.238-2.209c-0.159-0.657-0.419-1.219-0.782-1.687c-0.362-0.468-0.842-0.827-1.439-1.076
				c-0.597-0.25-1.333-0.374-2.208-0.374h-2.537v10.193H17.983z"/>
			<path stroke="#000000" stroke-miterlimit="10" d="M30.758,46.111c0.196,0.378,0.457,0.684,0.782,0.917
				c0.325,0.235,0.705,0.408,1.143,0.521s0.891,0.17,1.36,0.17c0.317,0,0.657-0.027,1.019-0.079
				c0.362-0.053,0.702-0.155,1.019-0.306c0.317-0.15,0.581-0.358,0.793-0.623c0.211-0.264,0.317-0.6,0.317-1.007
				c0-0.438-0.14-0.793-0.419-1.065c-0.28-0.272-0.645-0.499-1.098-0.679c-0.453-0.181-0.967-0.34-1.54-0.476
				c-0.574-0.135-1.155-0.287-1.744-0.452c-0.605-0.151-1.193-0.336-1.766-0.555c-0.574-0.219-1.087-0.502-1.54-0.85
				c-0.453-0.347-0.819-0.781-1.098-1.302c-0.28-0.521-0.419-1.151-0.419-1.892c0-0.83,0.177-1.552,0.532-2.162
				c0.355-0.612,0.819-1.122,1.393-1.529s1.223-0.71,1.948-0.906c0.725-0.196,1.449-0.294,2.174-0.294
				c0.846,0,1.657,0.094,2.435,0.283c0.778,0.189,1.468,0.495,2.072,0.917c0.604,0.423,1.084,0.963,1.439,1.619
				c0.355,0.657,0.532,1.454,0.532,2.389h-3.443c-0.03-0.483-0.132-0.883-0.306-1.201c-0.174-0.317-0.404-0.567-0.691-0.747
				c-0.287-0.181-0.615-0.309-0.985-0.385c-0.37-0.075-0.774-0.114-1.212-0.114c-0.287,0-0.574,0.031-0.861,0.091
				c-0.287,0.061-0.547,0.166-0.781,0.317c-0.235,0.151-0.427,0.34-0.578,0.566c-0.151,0.227-0.227,0.514-0.227,0.861
				c0,0.317,0.061,0.574,0.181,0.77c0.121,0.196,0.358,0.378,0.714,0.543c0.355,0.166,0.846,0.332,1.472,0.499
				c0.626,0.166,1.445,0.378,2.458,0.634c0.302,0.061,0.721,0.17,1.257,0.329c0.536,0.158,1.068,0.411,1.597,0.758
				c0.528,0.347,0.985,0.811,1.37,1.392c0.385,0.582,0.578,1.325,0.578,2.231c0,0.74-0.144,1.428-0.43,2.062
				c-0.287,0.634-0.713,1.181-1.28,1.642c-0.567,0.461-1.269,0.819-2.106,1.076c-0.838,0.256-1.808,0.385-2.911,0.385
				c-0.891,0-1.756-0.109-2.594-0.328s-1.578-0.562-2.22-1.031c-0.642-0.467-1.151-1.064-1.529-1.789
				c-0.378-0.725-0.559-1.585-0.543-2.582h3.443C30.463,45.274,30.561,45.734,30.758,46.111z"/>
		</g>
	</g>
</g>
</svg>
