<?xml version="1.0" encoding="utf-8"?>
<!-- Generator: Adobe Illustrator 16.0.0, SVG Export Plug-In . SVG Version: 6.00 Build 0)  -->
<!DOCTYPE svg PUBLIC "-//W3C//DTD SVG 1.1//EN" "http://www.w3.org/Graphics/SVG/1.1/DTD/svg11.dtd">
<svg version="1.1" id="Layer_1" xmlns="http://www.w3.org/2000/svg" xmlns:xlink="http://www.w3.org/1999/xlink" x="0px" y="0px"
	 width="188.103px" height="190.541px" viewBox="237.514 -97 188.103 190.541" enable-background="new 237.514 -97 188.103 190.541"
	 xml:space="preserve">
<g id="Layer_1_1_" display="none">
	<g id="Layer_2" display="inline">
		<rect x="-162.315" y="-107.989" fill="#AB264D" width="608.856" height="463.101"/>
	</g>
	<rect x="-20.333" y="-12" display="inline" fill="#252C34" width="308.5" height="263"/>
</g>
<g opacity="0.4" enable-background="new    ">
	<path fill="#FFFFFF" d="M427.958-38.476c3.313-0.188,6.75-0.376,11.174-0.376c9.014,0,12.21,2.999,12.21,13.656
		c0,10.644-3.196,13.647-12.21,13.647c-4.343,0-7.897-0.147-11.174-0.379V-38.476z M435.38-17.008
		c1.146,0.045,2.408,0.045,3.751,0.045c3.436,0,4.386-1.701,4.386-8.232c0-6.539-0.95-8.271-4.386-8.271l-3.751,0.036V-17.008z"/>
	<path fill="#FFFFFF" d="M460.167-39.657c1.379,0,2.05,0.685,2.05,2.067v2.005c0,1.383-0.671,2.032-2.05,2.032h-3.124
		c-1.379,0-2.094-0.649-2.094-2.032v-2.005c0-1.383,0.715-2.067,2.094-2.067H460.167z M455.028-11.928v-19.117h7.154v19.117H455.028
		z"/>
	<path fill="#FFFFFF" d="M484.838-27.969c0.242,0.725,0.358,1.543,0.358,2.461c0,4.423-2.489,6.083-9.678,6.083
		c-1.181,0-2.21-0.05-3.159-0.153c-0.475,0.689-0.313,1.839,1.147,1.992l7.142,0.623c4.307,0.344,6.008,2.224,6.008,5.841
		c0,5.233-3.08,6.352-10.896,6.352c-8.808,0-10.832-1.509-10.832-5.583c0-1.847,0.717-3.074,3.09-4.077
		c-1.818-1.768-1.146-4.849,0.902-5.881c-2.246-0.923-3.148-2.579-3.148-5.158c0-4.426,2.558-6.118,9.791-6.118
		c2.213,0,4.02,0.197,5.407,0.542h6.48l-0.357,2.766L484.838-27.969z M472.629-13.007c-0.663,0.502-0.94,0.887-0.94,1.656
		c0,1.424,0.787,1.652,3.983,1.652c3.402,0,4.234-0.273,4.234-1.503c0-1.151-0.868-1.272-3.125-1.459L472.629-13.007z
		 M478.53-25.508c0-1.58-0.674-1.997-3.011-1.997c-2.361,0-3.079,0.417-3.079,1.997c0,1.575,0.718,2.041,3.079,2.041
		C477.856-23.468,478.53-23.933,478.53-25.508z"/>
	<path fill="#FFFFFF" d="M495.053-39.657c1.388,0,2.058,0.685,2.058,2.067v2.005c0,1.383-0.67,2.032-2.058,2.032h-3.123
		c-1.38,0-2.086-0.649-2.086-2.032v-2.005c0-1.383,0.706-2.067,2.086-2.067H495.053z M489.923-11.928v-19.117h7.146v19.117H489.923z
		"/>
	<path fill="#FFFFFF" d="M510.368-18.583c0,1.226,0.478,1.656,1.855,1.656h2.303l0.785,4.611c-1.584,0.621-4.548,0.886-6.165,0.886
		c-3.709,0-5.964-1.996-5.964-5.424v-9.808h-3.401v-4.188l3.365-0.153v-5.197h7.222v5.156h5.061v4.382h-5.061V-18.583z"/>
	<path fill="#FFFFFF" d="M518.185-30.621c2.919-0.541,7.853-0.966,10.742-0.966c5.291,0,8.175,1.773,8.175,7.462v12.197h-5.694
		l-0.672-2.812c-1.379,1.612-3.589,3.308-6.992,3.308c-3.67,0-6.588-1.888-6.588-5.46v-1.925c0-3.03,2.365-4.883,6.277-4.883h6.515
		v-0.461c-0.035-1.62-0.662-2.193-2.73-2.193c-1.97,0-5.129,0.077-8.405,0.273L518.185-30.621z M524.183-17.896
		c0,1.004,0.591,1.541,1.942,1.541c1.092,0,2.525-0.5,3.822-1.302v-2.391h-4.099c-1.191,0.04-1.666,0.623-1.666,1.505V-17.896z"/>
	<path fill="#FFFFFF" d="M548.138-18.583c0,1.154,0.674,1.656,2.095,1.656h1.424l0.833,4.611c-1.101,0.621-3.867,0.886-5.292,0.886
		c-3.83,0-6.203-1.96-6.203-5.308v-22.112h7.144V-18.583z"/>
</g>
<g opacity="0.4" enable-background="new    ">
	<path fill="#FFFFFF" d="M434.315,15.183c-5.14-2.022-7.02-4.734-7.02-9.421c0-7.26,3.48-9.045,12.676-9.045
		c3.304,0,7.546,0.223,11.324,1.418l-0.573,5.654c-2.784-0.045-7.071-0.134-10.841-0.134c-2.873,0-3.821,0.227-3.821,1.968
		c0,1.473,0.806,2.028,3.115,2.811l5.979,2.248c5.335,2.067,7.124,4.869,7.124,9.51c0,7.166-3.148,9.418-12.729,9.418
		c-2.173,0-6.605-0.092-11.934-1.378l0.521-6.105c5.802,0.129,9.435,0.228,11.36,0.228c3.114,0,3.921-0.368,3.921-1.972
		c0-1.524-0.663-1.986-2.598-2.673L434.315,15.183z"/>
	<path fill="#FFFFFF" d="M473.033,28.79c-1.561,4.769-5.614,10.836-14.388,9.365l-0.608-4.635c3.734-0.836,5.756-2.117,6.981-4.506
		h-1.511c-1.325,0-2.355-0.783-2.74-1.971l-7.206-20.867h9.095l3.491,13.604c0.287,1.284,0.476,2.574,0.662,3.908h0.521
		c0.376-1.334,0.706-2.856,0.939-3.908l3.49-13.604h9.096L473.033,28.79z"/>
	<path fill="#FFFFFF" d="M490.864,9.529c2.739-2.663,5.229-3.996,8.63-3.996c3.106,0,5.183,1.195,6.034,3.54
		c2.595-2.391,5.04-3.54,8.154-3.54c4.387,0,6.651,2.207,6.651,6.388v17.093h-8.54V14.538c0-1.422-0.466-1.924-1.933-1.924
		c-1.128,0-1.98,0.224-3.859,1.191v15.209h-8.254V14.538c0-1.472-0.616-1.924-1.986-1.924c-1.085,0-1.935,0.178-3.814,1.101v15.299
		h-8.541V6.176h6.741L490.864,9.529z"/>
	<path fill="#FFFFFF" d="M532.543,9.396c1.702-2.113,5.284-3.773,8.963-3.773c5.934,0,8.297,4.459,8.297,12.229
		c0,9.23-3.062,11.759-8.907,11.759c-2.783,0-5.469-0.546-7.501-2.073c0.142,1.611,0.196,3.357,0.196,4.969v5.003h-8.593V6.176
		h6.893L532.543,9.396z M533.591,23.127c1.271,0.374,2.354,0.786,4.047,0.786c2.408,0,3.356-0.786,3.356-6.017
		c0-5.193-0.902-6.065-3.071-6.065c-1.789,0-2.882,0.551-4.332,1.422V23.127z"/>
	<path fill="#FFFFFF" d="M562.443,4.154c0,1.796-0.187,3.537-0.463,4.919c3.017-2.345,6.221-3.54,9.193-3.54
		c4.431,0,6.786,2.207,6.786,6.388v17.093h-8.578V14.538c0-1.472-0.518-1.924-1.934-1.924c-1.414,0-2.827,0.322-5.049,1.191v15.209
		h-8.584V-3.151h8.628V4.154z"/>
	<path fill="#FFFFFF" d="M607.016,17.618c0,8.771-3.402,11.95-12.649,11.95c-9.193,0-12.632-3.179-12.632-11.95
		c0-8.818,3.438-12.085,12.632-12.085C603.614,5.533,607.016,8.8,607.016,17.618z M590.743,17.618c0,5.008,0.706,6.114,3.624,6.114
		c2.885,0,3.644-1.105,3.644-6.114c0-5.049-0.759-6.204-3.644-6.204C591.449,11.415,590.743,12.569,590.743,17.618z"/>
	<path fill="#FFFFFF" d="M618.475,9.529c3.159-2.612,6.598-3.996,9.804-3.996c4.439,0,6.795,2.207,6.795,6.388v17.093h-8.586V14.538
		c0-1.472-0.52-1.924-1.926-1.924c-1.424,0-2.829,0.322-5.048,1.191v15.209h-8.586V6.176h6.832L618.475,9.529z"/>
	<path fill="#FFFFFF" d="M656.897,28.79c-1.549,4.769-5.604,10.836-14.376,9.365l-0.61-4.635c3.725-0.836,5.758-2.117,6.976-4.506
		h-1.505c-1.315,0-2.354-0.783-2.729-1.971l-7.216-20.867h9.096l3.49,13.604c0.285,1.284,0.475,2.574,0.653,3.908h0.529
		c0.366-1.334,0.707-2.856,0.939-3.908l3.491-13.604h9.104L656.897,28.79z"/>
</g>
<path opacity="0.4" fill="#FFFFFF" enable-background="new    " d="M390.053-50.234L341.928-77.3c-6.999-3.926-18.44-3.926-25.441,0
	l-48.126,27.066c-6.992,3.92-12.722,13.576-12.722,21.436v54.137c0,7.86,5.729,17.519,12.722,21.44l48.126,27.063
	c7.001,3.925,18.442,3.925,25.441,0l48.125-27.063c6.992-3.921,12.722-13.58,12.722-21.44v-54.137
	C402.775-36.658,397.045-46.313,390.053-50.234z M358.337-26.081H324.4c-9.767,0-10.499,1.947-10.499,8.393
	c0,6.082,0.678,8.155,8.984,8.347c0,0.022,0,0.032,0,0.054h11.121c14.313,0,21.323,4.186,23.535,15.12
	c0.528,2.664,0.796,5.712,0.796,9.221c0,16.672-6.535,22.716-24.331,22.716h-33.938V22.626h33.938c9.765,0,10.49-1.934,10.49-8.383
	c0-6.383-0.726-8.343-10.188-8.384c0-0.004,0-0.013,0-0.027H324.4c-14.753,0-21.752-4.186-23.723-15.12
	c-0.396-2.247-0.609-4.759-0.609-7.601c0-17.886,6.535-24.328,24.332-24.328h23.517h10.421V-26.081z"/>
</svg>
