<?xml version="1.0" encoding="utf-8"?>
<!-- Generator: Adobe Illustrator 17.0.0, SVG Export Plug-In . SVG Version: 6.00 Build 0)  -->
<!DOCTYPE svg PUBLIC "-//W3C//DTD SVG 1.1//EN" "http://www.w3.org/Graphics/SVG/1.1/DTD/svg11.dtd">
<svg version="1.1" id="Layer_1" xmlns="http://www.w3.org/2000/svg" xmlns:xlink="http://www.w3.org/1999/xlink" x="0px" y="0px"
	 width="281.333px" height="245px" viewBox="0 0 281.333 245" enable-background="new 0 0 281.333 245" xml:space="preserve">
<g id="Layer_2" display="none">
	<rect x="-162.315" y="-107.989" display="inline" fill="#AB264D" width="608.856" height="463.1"/>
</g>
<g id="Layer_1_1_">
	<g>
		<path d="M141.75,227.036c-55.369,0-100.416-45.046-100.416-100.415S86.381,26.206,141.75,26.206
			c55.368,0,100.414,45.046,100.414,100.415S197.119,227.036,141.75,227.036z M141.75,30.206c-53.164,0-96.416,43.251-96.416,96.415
			c0,53.163,43.252,96.415,96.416,96.415c53.163,0,96.414-43.252,96.414-96.415C238.165,73.458,194.914,30.206,141.75,30.206z"/>
	</g>
	<g>
		<path d="M119.055,110.095c-1.656-2.14-3.846-3.781-6.574-4.918c-2.728-1.141-6.09-1.71-10.089-1.71H90.801v46.577h14.488
			c2.347,0,4.622-0.377,6.831-1.137c2.209-0.761,4.176-2.021,5.901-3.781c1.721-1.76,3.104-4.05,4.142-6.881
			c1.034-2.832,1.552-6.278,1.552-10.35c0-3.727-0.361-7.092-1.087-10.093C121.902,114.802,120.715,112.231,119.055,110.095z"/>
		<path d="M141.75,32.952c-51.732,0-93.669,41.937-93.669,93.669s41.937,93.669,93.669,93.669s93.669-41.937,93.669-93.669
			S193.482,32.952,141.75,32.952z M137.893,141.25c-1.383,4.553-3.466,8.487-6.263,11.799c-2.793,3.312-6.278,5.917-10.454,7.815
			s-9.094,2.847-14.75,2.847H74.549V89.805h31.878c4.76,0,9.194,0.761,13.301,2.278c4.103,1.518,7.657,3.796,10.662,6.831
			c3.001,3.035,5.344,6.831,7.039,11.384c1.691,4.553,2.536,9.901,2.536,16.044C139.964,131.726,139.272,136.694,137.893,141.25z
			 M206.831,151.178c-1.31,2.897-3.258,5.398-5.848,7.504c-2.59,2.105-5.798,3.742-9.624,4.918c-3.831,1.172-8.264,1.76-13.301,1.76
			c-4.073,0-8.022-0.499-11.853-1.498s-7.212-2.57-10.143-4.71c-2.931-2.136-5.26-4.864-6.985-8.176s-2.555-7.242-2.482-11.799
			h15.733c-0.008,2.486,0.438,4.591,1.337,6.313c0.895,1.729,2.086,3.124,3.573,4.192c1.483,1.072,3.223,1.863,5.225,2.382
			s4.073,0.776,6.213,0.776c1.448,0,3.001-0.123,4.657-0.361c1.656-0.242,3.208-0.707,4.657-1.399
			c1.448-0.688,2.655-1.637,3.623-2.847c0.964-1.206,1.448-2.743,1.448-4.603c0-2.002-0.638-3.623-1.913-4.868
			c-1.279-1.241-2.947-2.278-5.018-3.104s-4.418-1.552-7.039-2.175c-2.624-0.619-5.279-1.31-7.968-2.067
			c-2.762-0.692-5.452-1.537-8.072-2.536c-2.624-0.999-4.968-2.294-7.039-3.884c-2.071-1.587-3.742-3.569-5.018-5.951
			c-1.279-2.382-1.913-5.26-1.913-8.645c0-3.792,0.811-7.092,2.432-9.882c1.621-2.797,3.742-5.125,6.366-6.989
			s5.59-3.243,8.902-4.138c3.312-0.895,6.624-1.345,9.936-1.345c3.865,0,7.573,0.43,11.127,1.295
			c3.554,0.864,6.708,2.263,9.471,4.192c2.759,1.933,4.952,4.399,6.574,7.4c1.621,3.001,2.432,6.643,2.432,10.919h-15.733
			c-0.138-2.209-0.603-4.034-1.398-5.486c-0.795-1.448-1.844-2.59-3.158-3.416c-1.31-0.826-2.812-1.41-4.503-1.76
			c-1.691-0.342-3.539-0.519-5.536-0.519c-1.31,0-2.624,0.142-3.934,0.415c-1.31,0.277-2.501,0.761-3.569,1.448
			c-1.072,0.692-1.952,1.552-2.639,2.586c-0.692,1.037-1.037,2.348-1.037,3.934c0,1.448,0.277,2.624,0.826,3.519
			c0.553,0.895,1.637,1.725,3.262,2.482c1.621,0.761,3.865,1.518,6.727,2.278c2.862,0.761,6.604,1.729,11.23,2.897
			c1.379,0.277,3.293,0.776,5.744,1.502c2.447,0.722,4.879,1.879,7.296,3.465c2.413,1.587,4.503,3.708,6.263,6.362
			c1.76,2.659,2.639,6.055,2.639,10.197C208.798,145.139,208.141,148.281,206.831,151.178z"/>
	</g>
</g>
</svg>
