<?xml version="1.0" encoding="utf-8"?>
<!-- Generator: Adobe Illustrator 16.0.0, SVG Export Plug-In . SVG Version: 6.00 Build 0)  -->
<!DOCTYPE svg PUBLIC "-//W3C//DTD SVG 1.1//EN" "http://www.w3.org/Graphics/SVG/1.1/DTD/svg11.dtd">
<svg version="1.1" id="Layer_1" xmlns="http://www.w3.org/2000/svg" xmlns:xlink="http://www.w3.org/1999/xlink" x="0px" y="0px"
	 width="191px" height="40px" viewBox="0 0 191 40" enable-background="new 0 0 191 40" xml:space="preserve">
<g>
	<path fill="#F0CD34" d="M143.464,11.131L143.464,11.131v0.823h4.63v-2.62c0-1.305,1.188-2.362,2.65-2.362s2.646,1.058,2.646,2.362
		v6.561v5.717v0.065h4.636v-1.223v-9.323l0,0c0.866-0.013,1.085-0.535,0.483-1.173l-6.747-7.153c-0.608-0.645-1.6-0.641-2.202,0.011
		l-6.591,7.127C142.379,10.591,142.595,11.119,143.464,11.131z"/>
	<path fill="#F0CD34" d="M110.866,9.209v2.024h-1.172V6.167c0-0.165,0.063-0.303,0.176-0.418c0.113-0.115,0.254-0.173,0.417-0.173
		h1.926c0.602,0,1.05,0.156,1.35,0.461c0.306,0.306,0.459,0.762,0.459,1.365c0,0.571-0.149,1.02-0.44,1.35
		c-0.303,0.307-0.729,0.459-1.286,0.459H110.866z M110.866,8.192h1.13c0.31,0,0.528-0.07,0.657-0.198
		c0.148-0.121,0.219-0.332,0.219-0.626c0-0.251-0.068-0.456-0.199-0.61c-0.157-0.131-0.359-0.195-0.609-0.195h-1.197V8.192z"/>
	<path fill="#F0CD34" d="M114.956,5.575h0.595c0.151,0,0.285,0.055,0.394,0.159c0.109,0.104,0.164,0.23,0.164,0.384v5.116h-1.152
		V5.575z"/>
	<path fill="#F0CD34" d="M120.799,6.858v2.566c0,0.779-0.206,1.289-0.612,1.529c-0.405,0.242-0.851,0.362-1.33,0.362
		c-0.471-0.023-0.905-0.154-1.292-0.395c-0.39-0.243-0.585-0.741-0.585-1.497V6.858h1.154v2.796c0,0.264,0.076,0.456,0.229,0.574
		c0.156,0.123,0.329,0.182,0.525,0.182c0.2,0,0.375-0.059,0.533-0.182c0.162-0.118,0.241-0.311,0.241-0.574V7.418
		c0-0.156,0.049-0.287,0.156-0.396c0.105-0.111,0.237-0.165,0.405-0.165H120.799z"/>
	<path fill="#F0CD34" d="M121.551,9.784h1.118c0.011,0.221,0.096,0.387,0.251,0.495c0.165,0.111,0.383,0.167,0.657,0.167
		c0.195,0,0.365-0.041,0.507-0.116c0.132-0.077,0.198-0.18,0.198-0.313c0-0.198-0.23-0.346-0.689-0.442
		c-0.199-0.035-0.346-0.068-0.445-0.102c-0.579-0.142-0.971-0.312-1.168-0.51c-0.219-0.198-0.328-0.459-0.328-0.787
		c0-0.418,0.162-0.764,0.479-1.038c0.327-0.252,0.754-0.379,1.281-0.379c0.572,0,1.022,0.127,1.367,0.379
		c0.315,0.273,0.482,0.631,0.508,1.071h-0.707c-0.213,0-0.367-0.092-0.477-0.281c-0.047-0.044-0.089-0.088-0.131-0.131
		c-0.133-0.101-0.313-0.149-0.543-0.149c-0.221,0-0.383,0.034-0.496,0.101c-0.098,0.065-0.147,0.164-0.147,0.294
		c0,0.174,0.286,0.324,0.855,0.443c0.064,0.024,0.126,0.039,0.173,0.049c0.051,0.013,0.097,0.016,0.14,0.016
		c0.561,0.146,0.948,0.309,1.169,0.495c0.209,0.2,0.312,0.461,0.312,0.792c0,0.482-0.177,0.853-0.524,1.117
		c-0.33,0.242-0.825,0.362-1.48,0.362c-0.624,0-1.092-0.126-1.399-0.378c-0.317-0.254-0.479-0.619-0.479-1.101V9.784z"/>
	<path fill="#FFFFFF" d="M158.025,28.87v-0.002v-0.822h-4.636v2.623c0,1.303-1.188,2.357-2.646,2.357
		c-1.462,0-2.65-1.055-2.65-2.357v-6.563v-5.969v-0.066h-4.63V20.3v8.567l-0.006,0.002c-0.863,0.009-1.079,0.535-0.48,1.175
		l6.744,7.147c0.609,0.649,1.6,0.643,2.205-0.01l6.588-7.127C159.11,29.41,158.887,28.879,158.025,28.87z"/>
	<path fill="#FFFFFF" d="M159.667,12.598L159.667,12.598h-0.821v4.638h2.624c1.299,0,2.36,1.185,2.36,2.646
		c0,1.463-1.062,2.647-2.36,2.647h-6.564h-5.717h-0.064v4.634h1.979h8.564l0,0c0.013,0.871,0.536,1.086,1.18,0.483l7.147-6.742
		c0.65-0.611,0.642-1.602-0.013-2.208l-7.127-6.583C160.212,11.517,159.682,11.736,159.667,12.598z"/>
	<path fill="#FFFFFF" d="M141.919,27.162h0.002h0.819v-4.634h-2.622c-1.301,0-2.356-1.184-2.356-2.647
		c0-1.46,1.056-2.646,2.356-2.646h6.563h5.719h0.064v-4.638h-1.979h-8.564l-0.002-0.001c-0.012-0.867-0.537-1.081-1.178-0.479
		l-7.148,6.742c-0.65,0.608-0.641,1.605,0.012,2.204l7.129,6.586C141.378,28.248,141.905,28.028,141.919,27.162z"/>
	<g>
		<path fill="#FFFFFF" d="M94.854,15.308c-1.317,0.827-1.31,1.487-1.31,1.627c0,0.14,0,1.741,0,1.741h0.01v10.582h4.137V18.676
			h0.002c0,0,0-0.65,0-0.74c0-0.09,0.07-0.182,0.137-0.25c0.375-0.28,1.252-0.472,2.037-0.532c0.793-0.059,1.6,0.089,1.6,0.089
			l0.521-3.412C97.969,13.363,95.372,14.99,94.854,15.308z"/>
	</g>
	<g>
		<g>
			<path fill="#FFFFFF" d="M62.708,13.964L62.708,13.964c-0.146-0.036-0.295-0.067-0.443-0.097
				c-1.336-0.254-2.779-0.248-2.779-0.248s-1.451-0.006-2.784,0.248c-0.153,0.029-0.3,0.061-0.448,0.097l0,0
				c-1.762,0.393-3.09,1.971-3.09,3.86v3.323v0.763v3.325c0,1.888,1.328,3.465,3.09,3.858l0,0c0.148,0.035,0.295,0.068,0.448,0.096
				c1.333,0.253,2.784,0.249,2.784,0.249s1.443,0.004,2.779-0.249c0.148-0.028,0.297-0.061,0.443-0.096l0,0
				c1.766-0.394,3.093-1.97,3.093-3.858v-3.325v-0.763v-3.323C65.801,15.935,64.474,14.357,62.708,13.964z M61.714,21.288v0.485
				v0.138v2.96c0,0.872-0.703,1.581-1.578,1.581h-0.65h-0.66c-0.869,0-1.578-0.709-1.578-1.581v-2.96v-0.138v-0.485v-0.14v-2.961
				c0-0.874,0.709-1.578,1.578-1.578h0.66h0.65c0.875,0,1.578,0.705,1.578,1.578v2.961V21.288z"/>
		</g>
	</g>
	<g>
		<g>
			<path fill="#FFFFFF" d="M78.997,16.521c-0.3-1.291-0.876-1.78-1.217-2.088c-0.922-0.646-2.02-0.725-2.02-0.725
				c-4.131-0.337-7.131,1.152-7.651,1.468c-1.32,0.828-1.308,1.416-1.308,1.555c0,0.14,0,1.945,0,1.945h0.006v10.487v0.095v6.201
				h4.14v-6.201v-0.095v-1.252c1.455,1.09,2.874,1.436,3.427,1.491c1.775,0.241,2.742-0.227,3.234-0.481
				c1.482-0.771,1.568-3.129,1.568-3.639c0-0.511,0.023-6.644,0.023-7.095C79.2,17.734,79.091,16.991,78.997,16.521z M75.085,23.28
				c0,0.41-0.013,1.912-0.045,2.195c-0.109,0.887-0.684,1.008-0.898,1.037c-0.208,0.03-0.527,0.03-1.211-0.077
				c-0.997-0.138-1.708-0.48-1.983-0.661v-7.098h0.003c0,0,0-1.199,0-1.287c0-0.093,0.041-0.111,0.108-0.18
				c0.374-0.277,1.275-0.494,2.064-0.554c0.321-0.022,0.601-0.037,0.823-0.043c0.512,0.06,0.636,0.195,0.803,0.39
				c0.246,0.3,0.336,1.04,0.336,1.416C75.085,18.793,75.097,22.971,75.085,23.28z"/>
		</g>
	</g>
	<g>
		<g>
			<path fill="#FFFFFF" d="M91.856,25.475c-2.041,0.704-4.768,0.836-5.471,0.722c-1.308-0.212-1.84-1.069-1.992-1.638
				c-0.155-0.568-0.135-1.443-0.135-1.443c0.982,0,2.938-0.181,3.58-0.263c2.468-0.306,3.402-1.011,3.652-1.2
				c0.887-0.674,0.846-1.495,0.846-1.761c0-0.272,0-1.292,0-1.86c0-0.654-0.145-1.463-0.305-1.908
				c-0.34-0.952-1.001-1.452-1.477-1.75c-1.83-0.838-3.23-0.712-4.052-0.723c-1.492-0.016-2.474,0.222-3.073,0.404
				c-1.109,0.355-1.639,0.849-2.053,1.339c-1.284,1.46-1.213,4.594-1.213,4.594c-0.02,1.269-0.029,2.858-0.008,3.416
				c0.037,1,0.212,1.838,0.385,2.349c0.539,1.783,1.818,2.6,2.385,2.879c1.439,0.771,3.728,0.922,5.158,0.761
				c1.961-0.221,4.476-1.001,4.476-1.001L91.856,25.475z M84.268,18.427c0-0.347,0.101-0.723,0.255-0.896
				c0.627-0.703,1.467-0.859,2.489-0.931c1.029-0.073,1.177,0.304,1.339,0.68c0.16,0.374,0.135,1.933,0.135,2.265
				c-0.029,0.491-0.489,0.771-0.764,0.92c-1.098,0.472-3.476,0.676-3.476,0.676S84.268,18.774,84.268,18.427z"/>
		</g>
	</g>
	<g>
		<path fill="#FFFFFF" d="M111.502,25.087c0,0-1.464,0.533-2.007,0.568c-0.394,0.043-0.699,0.033-0.925-0.211
			c-0.22-0.242-0.172-0.655-0.177-1.173v-7.153h3.188v-3.245h-3.188v-3.365h-4.125v3.365h-1.77v3.245h1.77v7.018v0.004v0.132l0,0
			c0.004,0.258,0.015,0.866,0.051,1.616c0.047,1.002,0.509,2.227,1.576,2.896c0.34,0.233,1.043,0.524,2.151,0.587
			c0.96,0.059,2.144-0.2,2.645-0.354c0.501-0.155,1.666-0.53,1.666-0.53L111.502,25.087z"/>
	</g>
	<g>
		<path fill="#FFFFFF" d="M120.625,13.254v11.87c-0.271,0.155-0.701,0.351-1.348,0.54c-0.621,0.149-1.665,0.27-2.103,0.12
			c-0.301-0.068-0.641-0.463-0.67-1.438c-0.01-0.391-0.023-0.953-0.023-1.174v-9.918h-4.121v9.994h-0.003c0,0,0.01,0.79,0.069,1.899
			c0.072,0.816,0.273,2.058,1.035,2.732c0.648,0.567,1.379,0.925,2.679,0.915c0.566,0.019,1.647-0.019,2.859-0.577
			c0.487-0.233,1.012-0.521,1.625-0.985v2.79c0,0,0.083,0.838-0.218,1.421c-0.129,0.191-0.42,0.442-1.056,0.447
			c-0.634,0.009-2.72-0.193-5.601-1.263l-0.968,2.932c0,0,3.017,1.062,4.851,1.343c1.011,0.166,2.513,0.311,3.518,0.146
			c1-0.166,2.039-0.355,2.676-1.18c0.314-0.366,0.672-0.945,0.84-2.251c0.036-0.368,0.077-1.238,0.077-1.716l0,0V13.254H120.625z"/>
	</g>
	<g>
		<path fill="#FFFFFF" d="M46.683,14.999c0.021,1.384-0.156,2.967-0.724,4.188c-0.117,0.255-0.397,0.861-1.028,1.46
			c-0.026,0.024-0.054,0.047-0.078,0.071v8.54h4.137V18.676h0.002c0,0,0-0.65,0-0.74c0-0.09,0.066-0.182,0.137-0.25
			c0.374-0.28,1.25-0.472,2.041-0.532c0.785-0.059,1.594,0.089,1.594,0.089l0.523-3.412C50.048,13.454,47.731,14.437,46.683,14.999z
			"/>
	</g>
	<g>
		<g>
			<path fill="#FFFFFF" d="M46.02,12.867c-0.319-1.588-0.942-2.338-1.386-2.787c-1.143-1.025-2.429-1.255-3.236-1.4
				c-1.001-0.152-2.404-0.209-3.451-0.225V8.448h-0.441c-0.592-0.006-0.986,0-0.986,0h-1.484h-4.352v3.742v5.986v3.741v7.341h4.352
				v-7.341h2.912c1.73,0,3.111-0.134,3.984-0.313c2.6-0.533,3.348-2.046,3.611-2.614C46.365,17.214,46.335,14.455,46.02,12.867z
				 M41.208,17.459c-0.389,0.565-1.63,0.717-2.121,0.717c-0.489,0-1.141,0-1.141,0h-2.912V12.19h2.912h1.154
				c0.766,0.041,1.502,0.129,1.95,0.546c0.708,0.739,0.637,1.719,0.663,2.587C41.702,16.505,41.482,17.039,41.208,17.459z"/>
		</g>
	</g>
</g>
</svg>
