<?xml version="1.0" encoding="utf-8"?>
<!-- Generator: Adobe Illustrator 16.0.0, SVG Export Plug-In . SVG Version: 6.00 Build 0)  -->
<!DOCTYPE svg PUBLIC "-//W3C//DTD SVG 1.1//EN" "http://www.w3.org/Graphics/SVG/1.1/DTD/svg11.dtd">
<svg version="1.1" id="Layer_1" xmlns="http://www.w3.org/2000/svg" xmlns:xlink="http://www.w3.org/1999/xlink" x="0px" y="0px"
	 width="247.289px" height="84px" viewBox="0 112 247.289 84" enable-background="new 0 112 247.289 84" xml:space="preserve">
<g id="Layer_2_2_">
</g>
<g>
	<g>
		<g>
			<path fill="#FFFFFF" d="M73.982,141.85c1.099-0.063,2.234-0.122,3.696-0.122c2.98,0,4.036,0.989,4.036,4.516
				c0,3.521-1.055,4.511-4.036,4.511c-1.436,0-2.613-0.047-3.696-0.125V141.85z M76.439,148.947
				c0.379,0.015,0.795,0.015,1.239,0.015c1.134,0,1.448-0.562,1.448-2.719c0-2.164-0.314-2.735-1.448-2.735l-1.239,0.012V148.947z"
				/>
			<path fill="#FFFFFF" d="M84.635,141.461c0.456,0,0.674,0.229,0.674,0.681v0.665c0,0.458-0.219,0.673-0.674,0.673h-1.034
				c-0.457,0-0.693-0.215-0.693-0.673v-0.665c0-0.452,0.237-0.681,0.693-0.681H84.635z M82.935,150.629v-6.322H85.3v6.322H82.935z"
				/>
			<path fill="#FFFFFF" d="M92.793,145.325c0.077,0.238,0.115,0.51,0.115,0.814c0,1.461-0.822,2.009-3.198,2.009
				c-0.391,0-0.733-0.014-1.046-0.05c-0.156,0.229-0.104,0.609,0.379,0.658l2.365,0.205c1.423,0.117,1.986,0.738,1.986,1.934
				c0,1.728-1.019,2.1-3.605,2.1c-2.912,0-3.579-0.499-3.579-1.846c0-0.612,0.235-1.019,1.019-1.349
				c-0.6-0.583-0.377-1.602,0.301-1.944c-0.747-0.305-1.042-0.854-1.042-1.705c0-1.463,0.844-2.022,3.237-2.022
				c0.731,0,1.331,0.066,1.788,0.178h2.142l-0.118,0.914L92.793,145.325z M88.755,150.271c-0.221,0.167-0.312,0.292-0.312,0.548
				c0,0.47,0.261,0.548,1.318,0.548c1.127,0,1.397-0.091,1.397-0.497c0-0.381-0.286-0.42-1.032-0.482L88.755,150.271z
				 M90.705,146.14c0-0.525-0.225-0.66-0.994-0.66c-0.783,0-1.02,0.135-1.02,0.66c0,0.521,0.237,0.675,1.02,0.675
				C90.48,146.814,90.705,146.66,90.705,146.14z"/>
			<path fill="#FFFFFF" d="M96.167,141.461c0.459,0,0.68,0.229,0.68,0.681v0.665c0,0.458-0.22,0.673-0.68,0.673h-1.032
				c-0.457,0-0.691-0.215-0.691-0.673v-0.665c0-0.452,0.235-0.681,0.691-0.681H96.167z M94.474,150.629v-6.322h2.36v6.322H94.474z"
				/>
			<path fill="#FFFFFF" d="M101.23,148.427c0,0.406,0.159,0.547,0.614,0.547h0.762l0.261,1.526
				c-0.525,0.207-1.504,0.293-2.039,0.293c-1.228,0-1.972-0.662-1.972-1.795v-3.24h-1.126v-1.386l1.113-0.051v-1.718h2.387v1.703
				h1.674v1.451h-1.674V148.427z"/>
			<path fill="#FFFFFF" d="M103.816,144.449c0.963-0.18,2.597-0.32,3.551-0.32c1.749,0,2.703,0.586,2.703,2.467v4.033h-1.882
				l-0.222-0.929c-0.457,0.532-1.187,1.093-2.31,1.093c-1.216,0-2.182-0.624-2.182-1.807v-0.636c0-1.001,0.784-1.613,2.079-1.613
				h2.154v-0.153c-0.011-0.538-0.22-0.725-0.903-0.725c-0.649,0-1.698,0.026-2.781,0.089L103.816,144.449z M105.799,148.655
				c0,0.331,0.197,0.509,0.642,0.509c0.363,0,0.835-0.166,1.266-0.429v-0.79h-1.355c-0.395,0.01-0.552,0.203-0.552,0.497V148.655z"
				/>
			<path fill="#FFFFFF" d="M113.72,148.427c0,0.382,0.223,0.547,0.692,0.547h0.472l0.274,1.526
				c-0.365,0.207-1.276,0.293-1.748,0.293c-1.267,0-2.051-0.649-2.051-1.757v-7.309h2.361V148.427z"/>
		</g>
	</g>
	<g>
		<g>
			<path fill="#FFFFFF" d="M76.087,159.591c-1.698-0.668-2.322-1.564-2.322-3.114c0-2.399,1.15-2.991,4.19-2.991
				c1.093,0,2.495,0.074,3.747,0.47l-0.188,1.869c-0.924-0.015-2.342-0.046-3.587-0.046c-0.952,0-1.263,0.077-1.263,0.652
				c0,0.488,0.265,0.672,1.028,0.929l1.979,0.744c1.764,0.683,2.352,1.61,2.352,3.146c0,2.368-1.04,3.114-4.205,3.114
				c-0.72,0-2.184-0.033-3.945-0.456l0.168-2.019c1.921,0.039,3.12,0.074,3.758,0.074c1.027,0,1.295-0.123,1.295-0.652
				c0-0.502-0.218-0.656-0.856-0.885L76.087,159.591z"/>
			<path fill="#FFFFFF" d="M88.889,164.091c-0.515,1.576-1.858,3.585-4.757,3.096l-0.202-1.53c1.234-0.277,1.903-0.702,2.308-1.492
				h-0.501c-0.434,0-0.775-0.257-0.902-0.651l-2.387-6.899h3.01l1.154,4.499c0.093,0.423,0.158,0.851,0.216,1.291h0.174
				c0.123-0.44,0.231-0.945,0.31-1.291l1.156-4.499h3.007L88.889,164.091z"/>
			<path fill="#FFFFFF" d="M94.783,157.725c0.905-0.883,1.729-1.324,2.854-1.324c1.026,0,1.714,0.398,1.996,1.173
				c0.859-0.79,1.664-1.173,2.696-1.173c1.449,0,2.2,0.731,2.2,2.113v5.65h-2.823v-4.785c0-0.472-0.157-0.636-0.642-0.636
				c-0.375,0-0.654,0.074-1.275,0.392v5.029H97.06v-4.785c0-0.486-0.205-0.636-0.656-0.636c-0.358,0-0.639,0.06-1.262,0.362v5.059
				h-2.822v-7.551h2.228L94.783,157.725z"/>
			<path fill="#FFFFFF" d="M108.565,157.68c0.561-0.699,1.747-1.249,2.96-1.249c1.963,0,2.744,1.475,2.744,4.044
				c0,3.05-1.011,3.889-2.945,3.889c-0.92,0-1.806-0.181-2.477-0.688c0.045,0.532,0.063,1.11,0.063,1.643v1.654h-2.84v-10.359h2.277
				L108.565,157.68z M108.91,162.22c0.419,0.121,0.78,0.258,1.335,0.258c0.802,0,1.114-0.258,1.114-1.988
				c0-1.718-0.301-2.005-1.016-2.005c-0.595,0-0.953,0.181-1.433,0.471V162.22z"/>
			<path fill="#FFFFFF" d="M118.447,155.946c0,0.595-0.059,1.169-0.151,1.627c0.998-0.774,2.056-1.173,3.042-1.173
				c1.463,0,2.241,0.731,2.241,2.113v5.65h-2.837v-4.785c0-0.486-0.171-0.636-0.636-0.636c-0.469,0-0.937,0.104-1.671,0.392v5.029
				h-2.838V153.53h2.85V155.946z"/>
			<path fill="#FFFFFF" d="M133.187,160.398c0,2.899-1.125,3.949-4.18,3.949c-3.042,0-4.177-1.05-4.177-3.949
				c0-2.916,1.135-3.998,4.177-3.998C132.062,156.4,133.187,157.482,133.187,160.398z M127.807,160.398
				c0,1.655,0.233,2.019,1.2,2.019c0.954,0,1.203-0.363,1.203-2.019c0-1.671-0.249-2.054-1.203-2.054
				C128.04,158.345,127.807,158.728,127.807,160.398z"/>
			<path fill="#FFFFFF" d="M136.978,157.725c1.042-0.864,2.18-1.324,3.24-1.324c1.468,0,2.248,0.731,2.248,2.113v5.65h-2.84v-4.785
				c0-0.486-0.173-0.636-0.638-0.636c-0.469,0-0.935,0.104-1.667,0.392v5.029h-2.84v-7.551h2.259L136.978,157.725z"/>
			<path fill="#FFFFFF" d="M149.68,164.091c-0.514,1.576-1.853,3.585-4.752,3.096l-0.201-1.53c1.23-0.277,1.898-0.702,2.305-1.492
				h-0.497c-0.438,0-0.778-0.257-0.903-0.651l-2.387-6.899h3.008l1.153,4.499c0.095,0.423,0.158,0.851,0.217,1.291h0.175
				c0.123-0.44,0.233-0.945,0.31-1.291l1.155-4.499h3.01L149.68,164.091z"/>
		</g>
	</g>
	<path fill="#FFFFFF" d="M64.759,137.965l-15.914-8.951c-2.313-1.297-6.097-1.297-8.411,0l-15.914,8.951
		c-2.309,1.296-4.205,4.485-4.205,7.085v17.901c0,2.598,1.896,5.792,4.205,7.088l15.914,8.948c2.314,1.297,6.098,1.297,8.411,0
		l15.914-8.948c2.311-1.296,4.206-4.49,4.206-7.088V145.05C68.965,142.45,67.07,139.261,64.759,137.965z M54.272,145.948H43.052
		c-3.229,0-3.473,0.644-3.473,2.775c0,2.012,0.225,2.695,2.971,2.76c0,0.007,0,0.01,0,0.02h3.677c4.733,0,7.052,1.382,7.781,4.999
		c0.175,0.879,0.265,1.888,0.265,3.048c0,5.513-2.16,7.51-8.045,7.51H35.006v-5.006h11.221c3.229,0,3.47-0.64,3.47-2.772
		c0-2.111-0.242-2.76-3.371-2.771c0-0.004,0-0.006,0-0.009h-3.275c-4.88,0-7.194-1.386-7.846-4.999
		c-0.128-0.743-0.2-1.574-0.2-2.513c0-5.914,2.163-8.046,8.046-8.046h7.773h3.447V145.948z"/>
</g>
</svg>
