<?xml version="1.0" encoding="utf-8"?>
<!-- Generator: Adobe Illustrator 16.0.0, SVG Export Plug-In . SVG Version: 6.00 Build 0)  -->
<!DOCTYPE svg PUBLIC "-//W3C//DTD SVG 1.1//EN" "http://www.w3.org/Graphics/SVG/1.1/DTD/svg11.dtd">
<svg version="1.1" id="Layer_1" xmlns="http://www.w3.org/2000/svg" xmlns:xlink="http://www.w3.org/1999/xlink" x="0px" y="0px"
	 width="67.666px" height="84px" viewBox="0 0 67.666 84" enable-background="new 0 0 67.666 84" xml:space="preserve">
<g id="Layer_2" display="none">
	<rect x="-13.667" y="-18" display="inline" width="409.999" height="125.667"/>
</g>
<circle fill="#FFFFFF" cx="32.079" cy="41.621" r="26.887"/>
<circle fill="none" stroke="#FFFFFF" stroke-miterlimit="10" cx="32.079" cy="41.621" r="29.307"/>
<g>
	<path stroke="#000000" stroke-miterlimit="10" d="M22.906,32.017c1.238,0,2.393,0.198,3.462,0.593
		c1.067,0.395,1.993,0.988,2.774,1.778c0.781,0.79,1.392,1.778,1.832,2.963s0.66,2.577,0.66,4.176c0,1.401-0.18,2.694-0.539,3.88
		c-0.359,1.185-0.901,2.209-1.63,3.071c-0.727,0.861-1.634,1.539-2.721,2.033s-2.367,0.741-3.839,0.741h-8.298V32.017H22.906z
		 M22.61,47.695c0.611,0,1.203-0.098,1.778-0.295c0.575-0.198,1.087-0.526,1.536-0.984c0.448-0.458,0.808-1.055,1.078-1.791
		c0.269-0.736,0.404-1.634,0.404-2.694c0-0.97-0.095-1.846-0.283-2.627c-0.189-0.781-0.498-1.45-0.931-2.006
		c-0.431-0.557-1.001-0.984-1.711-1.28c-0.71-0.297-1.585-0.445-2.626-0.445h-3.017v12.122H22.61z"/>
	<path stroke="#000000" stroke-miterlimit="10" d="M37.804,46.51c0.233,0.45,0.543,0.813,0.93,1.092s0.84,0.484,1.36,0.619
		c0.521,0.135,1.061,0.202,1.617,0.202c0.377,0,0.781-0.032,1.212-0.094c0.431-0.063,0.835-0.185,1.212-0.364
		c0.377-0.179,0.691-0.426,0.943-0.74c0.251-0.314,0.377-0.715,0.377-1.199c0-0.521-0.166-0.942-0.498-1.267
		c-0.333-0.323-0.768-0.593-1.307-0.808c-0.538-0.215-1.149-0.404-1.832-0.566c-0.683-0.16-1.373-0.341-2.073-0.537
		c-0.72-0.181-1.419-0.4-2.102-0.661s-1.293-0.597-1.832-1.011c-0.539-0.413-0.974-0.929-1.306-1.549
		c-0.333-0.62-0.498-1.369-0.498-2.25c0-0.987,0.211-1.846,0.633-2.572c0.422-0.728,0.975-1.334,1.657-1.819
		c0.683-0.485,1.455-0.844,2.317-1.077c0.861-0.233,1.724-0.35,2.586-0.35c1.006,0,1.971,0.112,2.896,0.337s1.746,0.589,2.465,1.091
		c0.719,0.503,1.289,1.145,1.711,1.926c0.423,0.781,0.634,1.729,0.634,2.842h-4.096c-0.036-0.575-0.156-1.05-0.363-1.428
		c-0.207-0.377-0.48-0.674-0.822-0.889c-0.341-0.215-0.732-0.367-1.172-0.458c-0.44-0.089-0.921-0.135-1.441-0.135
		c-0.341,0-0.683,0.037-1.023,0.108c-0.342,0.072-0.651,0.198-0.93,0.377c-0.278,0.18-0.508,0.404-0.687,0.673
		c-0.181,0.27-0.271,0.611-0.271,1.024c0,0.377,0.072,0.683,0.215,0.916c0.145,0.233,0.427,0.449,0.85,0.646
		c0.422,0.198,1.006,0.395,1.751,0.593c0.745,0.198,1.719,0.45,2.923,0.754c0.359,0.072,0.857,0.202,1.495,0.391
		c0.637,0.188,1.27,0.489,1.898,0.902s1.173,0.965,1.631,1.656c0.458,0.692,0.687,1.576,0.687,2.654c0,0.88-0.171,1.697-0.512,2.452
		c-0.341,0.754-0.849,1.405-1.522,1.952c-0.674,0.549-1.509,0.975-2.505,1.281c-0.997,0.305-2.151,0.457-3.462,0.457
		c-1.06,0-2.088-0.13-3.085-0.39s-1.877-0.669-2.64-1.226c-0.764-0.557-1.369-1.267-1.818-2.129
		c-0.449-0.861-0.665-1.885-0.646-3.07h4.096C37.454,45.514,37.571,46.063,37.804,46.51z"/>
</g>
</svg>
