<?xml version="1.0" encoding="utf-8"?>
<!-- Generator: Adobe Illustrator 16.0.0, SVG Export Plug-In . SVG Version: 6.00 Build 0)  -->
<!DOCTYPE svg PUBLIC "-//W3C//DTD SVG 1.1//EN" "http://www.w3.org/Graphics/SVG/1.1/DTD/svg11.dtd">
<svg version="1.1" id="Layer_1" xmlns="http://www.w3.org/2000/svg" xmlns:xlink="http://www.w3.org/1999/xlink" x="0px" y="0px"
	 width="281.333px" height="245px" viewBox="0 0 281.333 245" enable-background="new 0 0 281.333 245" xml:space="preserve">
<g opacity="0.5">
	<path fill="#FFFFFF" d="M145.363,228.329c-55.37,0-100.417-45.046-100.417-100.415S89.993,27.499,145.363,27.499
		c55.367,0,100.414,45.046,100.414,100.415S200.732,228.329,145.363,228.329z M145.363,31.499
		c-53.165,0-96.417,43.251-96.417,96.415c0,53.163,43.252,96.415,96.417,96.415c53.162,0,96.414-43.252,96.414-96.415
		S198.527,31.499,145.363,31.499z"/>
</g>
<g id="Layer_1_1_" display="none">
	<g id="Layer_2" display="inline">
		<rect x="-162.315" y="-107.989" fill="#AB264D" width="608.856" height="463.1"/>
	</g>
	<rect x="-20.333" y="-12" display="inline" fill="#252C34" width="308.5" height="263"/>
</g>
<path opacity="0.5" fill="#FFFFFF" d="M145.363,37.245c-50.076,0-90.67,40.594-90.67,90.669c0,50.076,40.594,90.669,90.67,90.669
	c50.075,0,90.668-40.593,90.668-90.669C236.031,77.839,195.438,37.245,145.363,37.245z M133.575,180.038h-30.799V79.79h44.057
	c6.229,0,11.412,0.338,15.546,1.688c5.978,1.973,10.964,4.966,15.011,9.642c-3.684,3.141-10.313,10.088-12.762,20.955
	c-0.617-2.813-1.347-5.642-2.2-7.092c-3.205-5.475-9.589-7.704-19.144-7.704h-19.385l0.167,65.27h11.65L133.575,180.038z
	 M185.099,130.839c0,17.697-4.937,31.028-14.681,39.625c-9.457,8.34-20.475,9.574-26.17,9.574c-1.934,0-3.252-0.145-3.689-0.197
	l2.277-18.091c0.008,0,9.037,0.876,15.658-5.083c5.56-5.001,8.375-13.69,8.375-25.828c0-33.703,27.05-45.089,41.355-46.403
	l0.836,9.12l0.887,9.029C207.408,102.849,185.099,105.918,185.099,130.839z"/>
</svg>
