<?xml version="1.0" encoding="utf-8"?>
<!-- Generator: Adobe Illustrator 16.0.0, SVG Export Plug-In . SVG Version: 6.00 Build 0)  -->
<!DOCTYPE svg PUBLIC "-//W3C//DTD SVG 1.1//EN" "http://www.w3.org/Graphics/SVG/1.1/DTD/svg11.dtd">
<svg version="1.1" id="Layer_1" xmlns="http://www.w3.org/2000/svg" xmlns:xlink="http://www.w3.org/1999/xlink" x="0px" y="0px"
	 width="600px" height="450px" viewBox="0 0 600 450" enable-background="new 0 0 600 450" xml:space="preserve">
<g id="NtTFTi_1_">
</g>
<linearGradient id="SVGID_1_" gradientUnits="userSpaceOnUse" x1="-5.8328" y1="224.5" x2="610.1663" y2="224.5">
	<stop  offset="0.0975" style="stop-color:#FFDC39"/>
	<stop  offset="0.4466" style="stop-color:#D7B63E"/>
</linearGradient>
<linearGradient id="SVGID_2_" gradientUnits="userSpaceOnUse" x1="302.1663" y1="460" x2="302.1662" y2="-10.9995">
	<stop  offset="0" style="stop-color:#FFDC39"/>
	<stop  offset="1" style="stop-color:#FFDC39"/>
</linearGradient>
<rect x="-5.833" y="-10.5" opacity="0.5" fill="url(#SVGID_1_)" stroke="url(#SVGID_2_)" stroke-miterlimit="10" width="615.999" height="470"/>
<g id="El8QzF_3_">
</g>
<g id="Layer_3">
</g>
<path d="M2351.225-506.137c-1.645-0.044-3.576,0.432-4.85-0.277c-1.311-0.728-2.634-2.578-2.707-4.002
	c-0.055-1.05,1.923-3.125,2.933-3.087c1.369,0.051,3.14,1.42,3.885,2.715c0.739,1.284,0.42,3.177,0.57,4.801
	C2351.061-505.989,2351.225-506.137,2351.225-506.137z"/>
<path d="M1840.215-561.753c-0.715-1.3-2.19-2.776-1.941-3.852c0.278-1.197,2.145-2.815,3.286-2.789
	c1.046,0.024,2.733,1.92,2.866,3.131c0.121,1.105-1.463,2.397-2.295,3.607C1841.491-561.687,1840.854-561.72,1840.215-561.753z"/>
<g>
	<path d="M207.392,244.502c-1.006,0-1.348-0.006-1.689,0.001c-4.115,0.087-3.824,0.136-3.145-3.948
		c0.358-2.149-0.413-4.523-0.845-6.763c-0.872-4.519-1.833-9.022-2.828-13.516c-0.167-0.756-0.693-1.432-1.054-2.146
		c-0.566,0.543-1.262,1.001-1.677,1.642c-3.194,4.938-6.364,9.892-9.48,14.88c-1.623,2.599-3.215,5.228-4.632,7.938
		c-1.521,2.908-1.436,2.308-3.063,0.42c-0.886-1.028-1.542-2.251-2.348-3.353c-3.977-5.434-8.001-10.831-11.933-16.296
		c-1.089-1.513-1.856-3.254-2.898-4.804c-0.319-0.475-1.172-1.017-1.582-0.889c-0.458,0.142-0.875,0.975-0.991,1.57
		c-1.124,5.769-2.319,11.53-3.178,17.34c-0.277,1.879,0.475,3.894,0.568,5.854c0.031,0.676-0.48,1.967-0.787,1.98
		c-2.718,0.116-5.444,0.037-8.165-0.063c-0.426-0.017-0.838-0.429-1.256-0.658c0.302-0.42,0.608-0.834,0.904-1.258
		c0.863-1.234,2.209-2.369,2.5-3.728c1.532-7.168,2.852-14.384,4.109-21.607c0.237-1.362,0.045-2.874-0.28-4.238
		c-0.368-1.543,0.165-2.141,1.579-2.136c2.732,0.011,5.503-0.16,8.176,0.262c1.222,0.193,2.533,1.412,3.313,2.514
		c3.945,5.571,7.7,11.276,11.602,16.878c0.534,0.766,1.352,1.682,1.951,2.28c0.198,0.198,1.457-1.644,1.87-2.319
		c3.648-5.964,7.246-11.96,10.917-17.91c0.372-0.604,1.109-1.338,1.719-1.379c2.976-0.2,5.965-0.238,8.947-0.182
		c0.387,0.007,1.175,1.018,1.074,1.347c-1.445,4.705,0.578,8.749,1.407,13.167c0.846,4.508,2.057,9.174,3.115,13.65
		c0.257,1.089,1.143,2.02,1.661,3.063c0.279,0.56,0.703,1.351,0.501,1.764c-0.216,0.443-1.078,0.746-1.68,0.787
		C208.784,244.717,207.755,244.53,207.392,244.502z"/>
	<path d="M376.806,244.66c-12.076-0.282-19.809-2.475-26.333-8.617c-5.981-5.63-5.49-12.386-0.354-17.729
		c7.477-7.778,17.146-8.967,27.116-8.358c6.371,0.389,12.703,1.855,17.782,6.17c8.593,7.3,7.936,16.306-1.114,22.517
		C387.747,242.868,380.867,244.895,376.806,244.66z M372.451,240.509c6.965-0.032,12.045-1.664,16.585-5.347
		c4.434-3.598,5.333-9.469,1.904-14.048c-3.921-5.236-9.431-7.185-15.581-7.548c-6.725-0.397-12.885,1.279-17.705,6.345
		c-4.738,4.98-3.919,10.928-0.051,14.378C362.046,238.252,367.389,240.855,372.451,240.509z"/>
	<path d="M406.838,210.839c2.175,0,3.817,0.177,5.408-0.036c3.675-0.492,6.248,1.322,8.923,3.495
		c6.287,5.108,12.778,9.965,19.143,14.981c1.197,0.943,2.136,2.21,3.294,3.21c0.454,0.392,1.316,0.776,1.752,0.593
		c0.432-0.182,0.795-1.086,0.787-1.668c-0.067-5.045-0.149-10.093-0.414-15.13c-0.057-1.089-0.887-2.13-1.323-3.208
		c-0.212-0.524-0.634-1.298-0.432-1.578c0.328-0.455,1.079-0.799,1.671-0.833c2.038-0.118,4.087-0.132,6.129-0.071
		c0.611,0.019,1.211,0.41,1.815,0.631c-0.237,0.573-0.479,1.143-0.709,1.718c-0.483,1.2-1.372,2.401-1.376,3.603
		c-0.024,8.383,0.154,16.767,0.208,25.151c0.005,0.771-0.412,1.546-0.635,2.32c-0.727-0.334-1.536-0.556-2.168-1.021
		c-8.361-6.173-16.702-12.374-25.039-18.583c-1.763-1.313-3.422-2.774-5.247-3.988c-0.847-0.562-1.979-0.694-2.981-1.021
		c-0.165,0.873-0.481,1.748-0.47,2.618c0.063,4.959,0.091,9.924,0.378,14.874c0.103,1.776,0.63,3.651,1.444,5.233
		c0.927,1.8,0.421,2.39-1.303,2.452c-2.049,0.074-4.105,0.074-6.155-0.001c-1.49-0.056-2.178-0.556-1.403-2.295
		c0.666-1.499,1.121-3.216,1.157-4.849c0.133-6.073,0.035-12.152,0.063-18.229C409.375,214.775,409.402,214.775,406.838,210.839z"/>
	<path d="M310.883,238.84c-0.305,4.229-1.867,5.727-5.499,5.721c-7.694-0.015-15.388-0.025-23.081,0.043
		c-2.021,0.018-2.658-0.636-2.016-2.625c0.358-1.111,0.519-2.33,0.525-3.502c0.047-7.439,0.078-14.879-0.027-22.317
		c-0.017-1.148-0.745-2.292-1.175-3.426c-0.169-0.446-0.708-1.068-0.577-1.247c0.298-0.411,0.895-0.824,1.386-0.842
		c2.725-0.102,5.455-0.132,8.181-0.069c0.46,0.011,1.041,0.511,1.298,0.945c0.117,0.196-0.453,0.766-0.657,1.193
		c-0.477,0.999-1.295,2.005-1.316,3.022c-0.169,7.606-0.18,15.216-0.235,22.824c-0.01,1.422,0.282,2.565,2.106,2.498
		c4.27-0.156,8.553-0.123,12.808-0.455c2.062-0.162,4.069-0.992,6.111-1.477C309.401,238.962,310.118,238.936,310.883,238.84z"/>
	<path d="M343.509,210.66c-5.127-0.075-10.255-0.039-15.383-0.039c0,0.007,0,0.006,0,0.008l0,0c0-0.013-0.001-0.042-0.001-0.008
		c-0.074,0-0.148,0.002-0.223,0.004c-0.074-0.002-0.147-0.004-0.222-0.004c0-0.034-0.001-0.005-0.001,0.008c0,0,0,0-0.001,0
		c0-0.002,0-0.001,0-0.008c-5.128,0-10.256-0.035-15.382,0.039c-0.743,0.011-2.105,0.548-2.106,0.845
		c-0.004,1.13,0.234,2.374,0.787,3.345c0.291,0.511,1.45,0.826,2.165,0.747c3.1-0.34,6.174-0.916,9.271-1.286
		c1.79-0.214,2.642,0.639,2.612,2.554c-0.114,7.439-0.101,14.88-0.234,22.318c-0.019,1.018-0.456,2.105-0.958,3.017
		c-0.899,1.629-0.593,2.384,1.293,2.429c0.698,0.018,1.397,0.02,2.097,0.028v0.018c0.227,0,0.453-0.008,0.68-0.009
		c0.228,0.001,0.453,0.009,0.681,0.009v-0.018c0.698-0.009,1.398-0.011,2.097-0.028c1.885-0.045,2.191-0.799,1.293-2.429
		c-0.503-0.912-0.94-2-0.959-3.017c-0.134-7.438-0.121-14.879-0.235-22.318c-0.028-1.915,0.822-2.768,2.612-2.554
		c3.098,0.37,6.172,0.947,9.271,1.286c0.716,0.078,1.874-0.236,2.165-0.747c0.554-0.971,0.791-2.216,0.787-3.345
		C345.614,211.208,344.252,210.671,343.509,210.66z"/>
	
		<linearGradient id="SVGID_3_" gradientUnits="userSpaceOnUse" x1="215.2371" y1="207.5122" x2="251.3581" y2="164.4648" gradientTransform="matrix(1 0 0 -1 8.3999 426.1602)">
		<stop  offset="0.0975" style="stop-color:#FFDC39"/>
		<stop  offset="0.4466" style="stop-color:#D7B63E"/>
	</linearGradient>
	<path fill="url(#SVGID_3_)" stroke="#D7B63E" stroke-width="2" stroke-miterlimit="10" d="M275.184,248.751l-30.812-47.502
		l-30.813,47.502c0,0,15.73-10.662,30.813-10.778C259.454,238.089,275.184,248.751,275.184,248.751z"/>
</g>
<g id="Layer_3_1_">
</g>
<g id="Layer_2_1_">
</g>
</svg>
