<?xml version="1.0" encoding="utf-8"?>
<!-- Generator: Adobe Illustrator 17.0.0, SVG Export Plug-In . SVG Version: 6.00 Build 0)  -->
<!DOCTYPE svg PUBLIC "-//W3C//DTD SVG 1.1//EN" "http://www.w3.org/Graphics/SVG/1.1/DTD/svg11.dtd">
<svg version="1.1" id="Layer_1" xmlns="http://www.w3.org/2000/svg" xmlns:xlink="http://www.w3.org/1999/xlink" x="0px" y="0px"
	 width="600px" height="450px" viewBox="0 0 600 450" enable-background="new 0 0 600 450" xml:space="preserve">
<rect y="-0.388" fill="#232F45" width="600.024" height="450.893"/>
<g>
	<path fill="#F1CD34" d="M389.523,201.527L389.523,201.527v1.673h9.445v-5.337c0-2.668,2.424-4.822,5.405-4.822
		c2.985,0,5.4,2.154,5.4,4.822v13.378v11.668v0.131h9.451v-2.499v-19.014h0.002c1.771-0.028,2.219-1.096,0.986-2.398l-13.758-14.586
		c-1.251-1.321-3.268-1.311-4.496,0.019l-13.439,14.545C387.3,200.42,387.752,201.5,389.523,201.527z"/>
	<path fill="#FFFFFF" d="M419.224,237.717v-0.009v-1.681h-9.451v5.358c0,2.65-2.424,4.809-5.4,4.809
		c-2.981,0-5.405-2.159-5.405-4.809v-13.388v-12.183v-0.13h-9.445v4.549v17.475l-0.009,0.009c-1.762,0.011-2.214,1.088-0.988,2.392
		l13.765,14.578c1.242,1.328,3.262,1.311,4.496-0.01l13.437-14.547C421.445,238.812,420.997,237.729,419.224,237.717z"/>
	<path fill="#FFFFFF" d="M422.577,204.521L422.577,204.521h-1.675v9.455h5.355c2.652,0,4.811,2.418,4.811,5.405
		c0,2.974-2.159,5.396-4.811,5.396h-13.389h-11.663h-0.132v9.455h4.04h17.465v0.006c0.027,1.763,1.102,2.207,2.401,0.977
		l14.589-13.755c1.324-1.243,1.31-3.263-0.032-4.494l-14.53-13.437C423.686,202.304,422.609,202.756,422.577,204.521z"/>
	<path fill="#FFFFFF" d="M386.366,234.231h0.012h1.664v-9.455H382.7c-2.661,0-4.809-2.422-4.809-5.396
		c0-2.986,2.148-5.405,4.809-5.405h13.387h11.668h0.123v-9.455h-4.031h-17.47l-0.012-0.009c-0.016-1.762-1.089-2.207-2.394-0.971
		l-14.583,13.749c-1.321,1.25-1.312,3.273,0.014,4.503l14.551,13.434C385.264,236.444,386.346,235.997,386.366,234.231z"/>
	<g>
		<path fill="#FFFFFF" d="M290.356,210.047c-2.691,1.686-2.671,3.033-2.671,3.315c0,0.289,0,3.557,0,3.557h0.018v21.587h8.434
			v-21.587h0.007c0,0,0-1.332,0-1.51c0-0.185,0.141-0.372,0.278-0.509c0.767-0.571,2.556-0.958,4.156-1.086
			c1.623-0.116,3.271,0.18,3.271,0.18l1.066-6.951C296.714,206.081,291.415,209.399,290.356,210.047z"/>
	</g>
	<g>
		<g>
			<path fill="#FFFFFF" d="M224.774,207.303L224.774,207.303c-0.29-0.073-0.6-0.138-0.906-0.192
				c-2.725-0.517-5.667-0.509-5.667-0.509s-2.956-0.008-5.676,0.509c-0.306,0.054-0.616,0.119-0.908,0.192l0,0
				c-3.608,0.804-6.309,4.023-6.309,7.874v6.781v1.561v6.779c0,3.856,2.7,7.067,6.309,7.872l0,0
				c0.292,0.073,0.603,0.137,0.908,0.198c2.721,0.517,5.676,0.509,5.676,0.509s2.942,0.008,5.667-0.509
				c0.306-0.061,0.616-0.126,0.906-0.198l0,0c3.609-0.806,6.309-4.016,6.309-7.872v-6.779v-1.561v-6.781
				C231.083,211.326,228.383,208.108,224.774,207.303z M222.752,222.238v0.996v0.285v6.039c0,1.778-1.44,3.22-3.22,3.22h-1.331
				h-1.34c-1.776,0-3.225-1.441-3.225-3.22v-6.039v-0.285v-0.996v-0.28v-6.041c0-1.783,1.449-3.215,3.225-3.215h1.34h1.331
				c1.78,0,3.22,1.432,3.22,3.215v6.041V222.238z"/>
		</g>
	</g>
	<g>
		<g>
			<path fill="#FFFFFF" d="M258.007,212.517c-0.619-2.629-1.789-3.623-2.481-4.259c-1.876-1.311-4.12-1.475-4.12-1.475
				c-8.424-0.684-14.546,2.347-15.614,2.997c-2.68,1.683-2.661,2.886-2.661,3.17c0,0.285,0,3.969,0,3.969h0.007v21.393v0.194v12.65
				h8.447v-12.65v-0.194v-2.555c2.965,2.225,5.864,2.933,6.998,3.039c3.611,0.487,5.587-0.462,6.594-0.977
				c3.024-1.576,3.2-6.383,3.2-7.427c0-1.04,0.043-13.552,0.043-14.474C258.42,214.997,258.201,213.48,258.007,212.517z
				 M250.025,226.31c0,0.842-0.025,3.898-0.087,4.479c-0.228,1.809-1.401,2.054-1.837,2.116c-0.427,0.055-1.075,0.055-2.467-0.159
				c-2.036-0.279-3.481-0.976-4.049-1.35v-14.477h0.005c0,0,0-2.444,0-2.629c0-0.187,0.087-0.223,0.224-0.357
				c0.771-0.571,2.606-1.013,4.218-1.137c0.653-0.051,1.223-0.077,1.675-0.088c1.045,0.12,1.294,0.398,1.634,0.795
				c0.507,0.609,0.685,2.121,0.685,2.885C250.025,217.156,250.048,225.677,250.025,226.31z"/>
		</g>
	</g>
	<g>
		<g>
			<path fill="#FFFFFF" d="M284.239,230.789c-4.163,1.429-9.728,1.711-11.154,1.465c-2.671-0.424-3.759-2.176-4.067-3.337
				c-0.313-1.152-0.276-2.943-0.276-2.943c2.004,0,5.989-0.372,7.308-0.533c5.026-0.625,6.939-2.063,7.445-2.452
				c1.812-1.375,1.73-3.047,1.73-3.59c0-0.551,0-2.633,0-3.791c0-1.34-0.297-2.988-0.621-3.893
				c-0.689-1.944-2.047-2.966-3.018-3.574c-3.725-1.709-6.587-1.452-8.267-1.471c-3.045-0.039-5.046,0.451-6.267,0.82
				c-2.26,0.726-3.337,1.729-4.186,2.733c-2.62,2.973-2.472,9.368-2.472,9.368c-0.043,2.587-0.066,5.83-0.018,6.972
				c0.071,2.037,0.431,3.756,0.785,4.792c1.102,3.632,3.709,5.302,4.873,5.87c2.922,1.57,7.6,1.882,10.513,1.551
				c4.006-0.447,9.125-2.044,9.125-2.044L284.239,230.789z M268.766,216.41c0-0.709,0.203-1.473,0.516-1.827
				c1.276-1.428,2.988-1.755,5.079-1.9c2.1-0.145,2.399,0.624,2.721,1.384c0.329,0.772,0.285,3.949,0.285,4.625
				c-0.062,1-1.004,1.574-1.559,1.87c-2.239,0.975-7.085,1.387-7.085,1.387S268.766,217.117,268.766,216.41z"/>
		</g>
	</g>
	<g>
		<path fill="#FFFFFF" d="M324.318,229.994c0,0-2.981,1.088-4.092,1.167c-0.806,0.079-1.427,0.057-1.881-0.434
			c-0.459-0.491-0.354-1.34-0.367-2.391V213.74h6.505v-6.62h-6.505v-6.87h-8.413v6.87h-3.611v6.62h3.611v14.312v0.009v0.275l0,0
			c0.002,0.52,0.025,1.76,0.1,3.295c0.096,2.043,1.041,4.539,3.22,5.907c0.687,0.472,2.121,1.065,4.385,1.191
			c1.956,0.129,4.369-0.4,5.398-0.719c1.02-0.321,3.394-1.08,3.394-1.08L324.318,229.994z"/>
	</g>
	<g>
		<path fill="#FFFFFF" d="M342.934,205.862v24.215c-0.552,0.315-1.429,0.712-2.753,1.101c-1.265,0.3-3.401,0.543-4.296,0.238
			c-0.603-0.139-1.296-0.943-1.358-2.927c-0.021-0.806-0.057-1.954-0.057-2.399v-20.229h-8.397v20.384h-0.011
			c0,0,0.018,1.608,0.142,3.868c0.151,1.671,0.557,4.204,2.114,5.579c1.319,1.156,2.805,1.881,5.466,1.864
			c1.155,0.035,3.357-0.038,5.825-1.177c0.998-0.481,2.073-1.058,3.326-2.01v5.689c0,0,0.169,1.714-0.443,2.903
			c-0.265,0.386-0.863,0.899-2.159,0.914c-1.287,0.018-5.551-0.401-11.421-2.572l-1.977,5.974c0,0,6.158,2.168,9.89,2.737
			c2.066,0.343,5.129,0.634,7.187,0.299c2.036-0.336,4.154-0.725,5.455-2.408c0.63-0.741,1.365-1.921,1.712-4.591
			c0.073-0.751,0.151-2.519,0.151-3.496l0,0v-33.958H342.934z"/>
	</g>
	<g>
		<path fill="#FFFFFF" d="M192.088,209.419c0.036,2.822-0.319,6.052-1.479,8.541c-0.237,0.525-0.81,1.756-2.098,2.979
			c-0.057,0.047-0.114,0.097-0.167,0.144v17.424h8.443v-21.587h0.007c0,0,0-1.332,0-1.51c0-0.185,0.141-0.372,0.278-0.509
			c0.762-0.571,2.552-0.958,4.168-1.086c1.6-0.116,3.252,0.18,3.252,0.18l1.061-6.951
			C198.953,206.263,194.224,208.268,192.088,209.419z"/>
	</g>
	<g>
		<g>
			<path fill="#FFFFFF" d="M190.732,205.067c-0.644-3.24-1.922-4.771-2.828-5.681c-2.326-2.094-4.955-2.57-6.605-2.863
				c-2.036-0.306-4.905-0.422-7.032-0.456v-0.014h-0.908c-1.203-0.019-2.009,0-2.009,0h-3.022h-8.879v7.632v12.21v7.63v14.979h8.879
				v-14.979h5.939c3.528,0,6.35-0.268,8.125-0.636c5.305-1.093,6.834-4.171,7.363-5.334
				C191.435,213.941,191.376,208.308,190.732,205.067z M180.92,214.428c-0.792,1.16-3.326,1.469-4.33,1.469
				c-0.997,0-2.323,0-2.323,0h-5.939v-12.21h5.939h2.353c1.555,0.084,3.061,0.266,3.978,1.116c1.445,1.503,1.294,3.506,1.358,5.274
				C181.92,212.489,181.479,213.578,180.92,214.428z"/>
		</g>
	</g>
	<path fill="#F1CD34" d="M323.015,197.606v4.13h-2.385v-10.344c0-0.334,0.128-0.616,0.368-0.85c0.224-0.235,0.511-0.353,0.842-0.353
		h3.93c1.228,0,2.146,0.317,2.753,0.939c0.621,0.628,0.936,1.559,0.936,2.789c0,1.165-0.301,2.082-0.904,2.75
		c-0.605,0.624-1.486,0.938-2.618,0.938H323.015z M323.015,195.53h2.317c0.625,0,1.075-0.141,1.347-0.405
		c0.281-0.247,0.431-0.671,0.431-1.276c0-0.516-0.137-0.926-0.397-1.242c-0.322-0.273-0.737-0.399-1.249-0.399h-2.449V195.53z"/>
	<path fill="#F1CD34" d="M331.369,190.189h1.207c0.308,0,0.582,0.108,0.803,0.322c0.224,0.212,0.338,0.476,0.338,0.786v10.439
		h-2.348V190.189z"/>
	<path fill="#F1CD34" d="M343.288,192.81v5.233c0,1.589-0.422,2.632-1.246,3.123c-0.829,0.486-1.733,0.738-2.718,0.738
		c-0.966-0.042-1.849-0.314-2.636-0.813c-0.792-0.487-1.189-1.51-1.189-3.048v-5.233h2.348v5.704c0,0.541,0.158,0.935,0.463,1.17
		c0.319,0.251,0.678,0.371,1.075,0.371c0.409,0,0.765-0.12,1.098-0.371c0.32-0.235,0.484-0.629,0.484-1.17v-4.558
		c0-0.317,0.1-0.584,0.317-0.811c0.215-0.22,0.484-0.334,0.828-0.334H343.288z"/>
	<path fill="#F1CD34" d="M344.826,198.777h2.278c0.023,0.452,0.194,0.791,0.507,1.013c0.335,0.221,0.778,0.336,1.34,0.336
		c0.397,0,0.753-0.082,1.045-0.237c0.258-0.155,0.392-0.371,0.392-0.637c0-0.404-0.461-0.706-1.401-0.904
		c-0.406-0.068-0.707-0.136-0.908-0.203c-1.182-0.293-1.974-0.64-2.385-1.041c-0.445-0.409-0.673-0.941-0.673-1.612
		c0-0.85,0.326-1.558,0.977-2.118c0.671-0.513,1.543-0.767,2.618-0.767c1.162,0,2.088,0.254,2.785,0.767
		c0.644,0.56,0.997,1.289,1.038,2.191h-1.443c-0.424,0-0.755-0.191-0.97-0.575c-0.094-0.093-0.18-0.176-0.265-0.266
		c-0.272-0.209-0.644-0.307-1.107-0.307c-0.447,0-0.783,0.07-1.004,0.207c-0.205,0.137-0.319,0.335-0.319,0.598
		c0,0.363,0.589,0.661,1.757,0.914c0.128,0.043,0.247,0.072,0.352,0.091c0.1,0.027,0.192,0.034,0.287,0.034
		c1.137,0.3,1.922,0.629,2.383,1.009c0.424,0.407,0.63,0.941,0.63,1.615c0,0.983-0.352,1.739-1.07,2.28
		c-0.673,0.486-1.673,0.738-3.015,0.738c-1.283,0-2.223-0.26-2.858-0.776c-0.644-0.515-0.97-1.26-0.97-2.243V198.777z"/>
	<g>
		<g>
			<path fill="#FFFFFF" d="M160.637,264.051v-8.123h2.932c0.475,0,0.88,0.048,1.219,0.148c0.338,0.096,0.615,0.237,0.829,0.415
				c0.215,0.183,0.371,0.397,0.469,0.648c0.097,0.253,0.146,0.53,0.146,0.831c0,0.285-0.038,0.532-0.113,0.74
				c-0.075,0.205-0.172,0.379-0.293,0.518c-0.12,0.139-0.257,0.249-0.411,0.326c-0.155,0.078-0.315,0.132-0.48,0.164v0.023
				c0.565,0.082,0.984,0.304,1.259,0.664c0.274,0.363,0.411,0.813,0.411,1.353c0,0.422-0.065,0.781-0.197,1.073
				c-0.131,0.292-0.314,0.53-0.547,0.71s-0.514,0.31-0.84,0.39c-0.328,0.078-0.682,0.119-1.066,0.119H160.637z M161.404,259.516
				h1.94c0.398,0,0.733-0.034,1.003-0.103c0.272-0.068,0.49-0.167,0.655-0.297c0.165-0.132,0.283-0.294,0.355-0.486
				c0.072-0.192,0.107-0.413,0.107-0.66c0-0.256-0.041-0.472-0.124-0.648c-0.082-0.178-0.215-0.32-0.395-0.429
				s-0.415-0.187-0.704-0.237c-0.29-0.05-0.646-0.073-1.066-0.073h-1.771V259.516z M161.404,263.396h1.951
				c0.421,0,0.787-0.021,1.099-0.057c0.313-0.037,0.571-0.114,0.773-0.231c0.203-0.116,0.356-0.281,0.458-0.495
				c0.102-0.215,0.152-0.5,0.152-0.854c0-0.338-0.056-0.612-0.169-0.817c-0.113-0.205-0.275-0.365-0.485-0.479
				c-0.211-0.114-0.462-0.189-0.755-0.233c-0.293-0.041-0.621-0.059-0.981-0.059h-2.042V263.396z"/>
			<path fill="#FFFFFF" d="M171.408,261.285c0,0.317,0.042,0.616,0.124,0.899c0.083,0.281,0.205,0.525,0.366,0.733
				c0.162,0.208,0.367,0.372,0.615,0.495c0.248,0.123,0.534,0.187,0.857,0.187c0.444,0,0.824-0.116,1.139-0.352
				c0.316-0.233,0.527-0.561,0.632-0.991h0.755c-0.082,0.278-0.192,0.534-0.326,0.771c-0.136,0.237-0.305,0.443-0.508,0.621
				s-0.444,0.315-0.722,0.411c-0.278,0.098-0.601,0.146-0.97,0.146c-0.466,0-0.868-0.078-1.206-0.235
				c-0.339-0.158-0.617-0.374-0.835-0.651c-0.218-0.274-0.38-0.596-0.485-0.968c-0.105-0.374-0.157-0.774-0.157-1.201
				c0-0.429,0.062-0.831,0.186-1.21c0.124-0.374,0.3-0.703,0.53-0.986s0.51-0.502,0.841-0.666c0.331-0.16,0.706-0.242,1.128-0.242
				c0.805,0,1.437,0.278,1.896,0.831c0.459,0.552,0.684,1.356,0.677,2.406H171.408z M175.221,260.723
				c0-0.288-0.039-0.557-0.119-0.808c-0.079-0.251-0.195-0.47-0.349-0.653c-0.154-0.185-0.348-0.333-0.581-0.44
				c-0.233-0.11-0.5-0.164-0.801-0.164c-0.3,0-0.566,0.057-0.795,0.171c-0.229,0.112-0.425,0.26-0.587,0.45
				c-0.161,0.189-0.291,0.406-0.389,0.655c-0.097,0.246-0.161,0.511-0.192,0.79H175.221z"/>
			<path fill="#FFFFFF" d="M187.02,266.352h-0.677v-8.144h0.677v1.025h0.023c0.097-0.187,0.224-0.356,0.378-0.507
				c0.154-0.151,0.323-0.276,0.508-0.372c0.184-0.098,0.373-0.173,0.569-0.226c0.195-0.052,0.387-0.08,0.575-0.08
				c0.474,0,0.875,0.08,1.206,0.237c0.331,0.16,0.604,0.374,0.818,0.648c0.215,0.274,0.37,0.6,0.468,0.977
				c0.098,0.374,0.147,0.778,0.147,1.205c0,0.406-0.054,0.799-0.159,1.173c-0.105,0.379-0.265,0.708-0.479,0.988
				c-0.215,0.281-0.485,0.509-0.811,0.678c-0.328,0.169-0.713,0.251-1.157,0.251c-0.413,0-0.81-0.091-1.189-0.274
				c-0.38-0.185-0.679-0.456-0.897-0.817V266.352z M187.02,261.152c0,0.329,0.045,0.644,0.135,0.94
				c0.091,0.297,0.22,0.557,0.39,0.778c0.169,0.221,0.375,0.399,0.62,0.532c0.244,0.13,0.52,0.196,0.83,0.196
				c0.346,0,0.648-0.068,0.907-0.21c0.26-0.137,0.472-0.329,0.638-0.568s0.285-0.523,0.361-0.842c0.075-0.32,0.105-0.662,0.09-1.032
				c0-0.367-0.05-0.694-0.152-0.975c-0.102-0.281-0.243-0.52-0.423-0.717c-0.18-0.194-0.391-0.345-0.632-0.445
				c-0.24-0.1-0.503-0.153-0.789-0.153c-0.316,0-0.598,0.064-0.847,0.192c-0.248,0.13-0.454,0.304-0.62,0.525
				c-0.165,0.221-0.292,0.486-0.378,0.79C187.063,260.468,187.02,260.796,187.02,261.152z"/>
			<path fill="#FFFFFF" d="M198.773,260.643c0.128-0.016,0.28-0.039,0.456-0.066c0.177-0.032,0.322-0.073,0.435-0.126
				c0.113-0.052,0.183-0.142,0.209-0.265c0.026-0.126,0.039-0.24,0.039-0.345c0-0.347-0.111-0.63-0.332-0.851
				c-0.223-0.221-0.597-0.333-1.123-0.333c-0.233,0-0.447,0.021-0.643,0.062c-0.196,0.041-0.366,0.114-0.514,0.215
				c-0.146,0.103-0.267,0.237-0.361,0.406c-0.095,0.169-0.156,0.383-0.186,0.639h-0.688c0.023-0.347,0.102-0.644,0.236-0.886
				c0.136-0.247,0.31-0.445,0.525-0.598c0.215-0.155,0.462-0.269,0.744-0.338c0.283-0.073,0.581-0.11,0.897-0.11
				c0.293,0,0.569,0.032,0.83,0.096c0.259,0.064,0.485,0.167,0.677,0.306c0.192,0.139,0.341,0.324,0.451,0.557
				c0.11,0.233,0.163,0.52,0.163,0.858v3.182c0,0.262,0.047,0.429,0.142,0.502c0.094,0.071,0.284,0.055,0.569-0.05v0.53
				c-0.052,0.014-0.13,0.037-0.232,0.068c-0.1,0.027-0.201,0.043-0.298,0.043c-0.106,0-0.208-0.011-0.305-0.034
				c-0.113-0.014-0.203-0.05-0.272-0.105c-0.067-0.059-0.122-0.126-0.163-0.205c-0.041-0.078-0.07-0.164-0.084-0.26
				c-0.015-0.091-0.023-0.192-0.023-0.297c-0.285,0.315-0.613,0.557-0.981,0.721c-0.369,0.164-0.767,0.246-1.195,0.246
				c-0.256,0-0.502-0.032-0.74-0.1c-0.236-0.068-0.445-0.173-0.625-0.315c-0.181-0.142-0.324-0.32-0.429-0.525
				s-0.157-0.452-0.157-0.74c0-0.991,0.68-1.579,2.042-1.757L198.773,260.643z M199.912,260.983
				c-0.285,0.119-0.575,0.196-0.868,0.235s-0.587,0.066-0.88,0.089c-0.518,0.039-0.923,0.155-1.212,0.352
				c-0.29,0.196-0.435,0.493-0.435,0.89c0,0.183,0.035,0.338,0.107,0.47c0.072,0.13,0.165,0.24,0.282,0.324
				c0.116,0.087,0.252,0.151,0.406,0.192c0.154,0.043,0.31,0.064,0.468,0.064c0.27,0,0.534-0.034,0.79-0.1
				c0.256-0.068,0.483-0.173,0.682-0.31c0.2-0.142,0.359-0.317,0.479-0.532c0.121-0.212,0.18-0.468,0.18-0.76V260.983z"/>
			<path fill="#FFFFFF" d="M206.004,264.051h-0.677v-5.843h0.677v1.093h0.023c0.188-0.468,0.43-0.792,0.728-0.975
				c0.297-0.187,0.689-0.278,1.179-0.278v0.735c-0.385-0.009-0.7,0.05-0.948,0.178c-0.248,0.128-0.445,0.301-0.592,0.52
				c-0.146,0.219-0.248,0.475-0.305,0.771c-0.056,0.297-0.084,0.607-0.084,0.931V264.051z"/>
			<path fill="#FFFFFF" d="M214.036,264.074c-0.083,0.014-0.192,0.041-0.328,0.078s-0.286,0.055-0.451,0.055
				c-0.339,0-0.597-0.082-0.774-0.251c-0.176-0.169-0.265-0.472-0.265-0.908v-4.277h-0.823v-0.561h0.823v-1.625h0.677v1.625h1.094
				v0.561h-1.094v4.006c0,0.144,0.005,0.267,0.011,0.372c0.008,0.105,0.03,0.192,0.067,0.26c0.038,0.068,0.096,0.116,0.176,0.146
				c0.079,0.032,0.189,0.046,0.332,0.046c0.09,0,0.183-0.009,0.276-0.023c0.095-0.014,0.186-0.034,0.277-0.057V264.074z"/>
			<path fill="#FFFFFF" d="M226.443,264.206c-0.377-0.005-0.728-0.073-1.054-0.201c-0.328-0.128-0.614-0.32-0.858-0.575
				c-0.244-0.256-0.438-0.575-0.581-0.959c-0.143-0.383-0.213-0.831-0.213-1.342c0-0.429,0.056-0.831,0.169-1.203
				c0.113-0.372,0.282-0.696,0.508-0.975c0.225-0.278,0.507-0.498,0.846-0.662c0.338-0.16,0.733-0.242,1.185-0.242
				c0.459,0,0.857,0.082,1.195,0.242c0.339,0.164,0.621,0.381,0.847,0.655c0.225,0.276,0.393,0.6,0.502,0.975
				c0.108,0.379,0.163,0.781,0.163,1.21c0,0.466-0.064,0.886-0.192,1.262c-0.128,0.377-0.31,0.701-0.547,0.97
				c-0.237,0.269-0.524,0.479-0.858,0.625C227.219,264.133,226.849,264.206,226.443,264.206z M228.428,261.13
				c0-0.347-0.038-0.671-0.112-0.972c-0.075-0.299-0.192-0.561-0.35-0.783c-0.157-0.221-0.361-0.395-0.609-0.525
				c-0.248-0.128-0.552-0.192-0.913-0.192c-0.354,0-0.656,0.071-0.908,0.208c-0.252,0.142-0.456,0.324-0.615,0.555
				c-0.158,0.231-0.274,0.491-0.349,0.787c-0.075,0.299-0.113,0.605-0.113,0.922c0,0.361,0.043,0.694,0.13,0.997
				c0.087,0.304,0.212,0.566,0.378,0.783c0.165,0.219,0.372,0.388,0.621,0.507c0.248,0.123,0.533,0.183,0.857,0.183
				c0.353,0,0.656-0.068,0.907-0.21c0.252-0.137,0.458-0.324,0.615-0.557c0.159-0.233,0.275-0.498,0.35-0.79
				C228.39,261.75,228.428,261.445,228.428,261.13z"/>
			<path fill="#FFFFFF" d="M232.738,258.77v-0.561h0.868v-0.927c0-0.466,0.094-0.835,0.282-1.105
				c0.187-0.269,0.508-0.406,0.959-0.406c0.105,0,0.203,0.005,0.293,0.011c0.09,0.007,0.18,0.018,0.27,0.034v0.621
				c-0.151-0.039-0.285-0.057-0.406-0.057c-0.172,0-0.308,0.032-0.405,0.096c-0.098,0.064-0.17,0.148-0.215,0.253
				c-0.046,0.105-0.073,0.224-0.084,0.356s-0.017,0.265-0.017,0.399v0.724h1.128v0.561h-1.128v5.282h-0.677v-5.282H232.738z"/>
			<path fill="#FFFFFF" d="M247.514,264.074c-0.083,0.014-0.192,0.041-0.328,0.078s-0.286,0.055-0.451,0.055
				c-0.339,0-0.597-0.082-0.774-0.251c-0.176-0.169-0.265-0.472-0.265-0.908v-4.277h-0.823v-0.561h0.823v-1.625h0.677v1.625h1.094
				v0.561h-1.094v4.006c0,0.144,0.005,0.267,0.011,0.372c0.008,0.105,0.03,0.192,0.067,0.26c0.038,0.068,0.096,0.116,0.176,0.146
				c0.079,0.032,0.189,0.046,0.332,0.046c0.09,0,0.183-0.009,0.276-0.023c0.095-0.014,0.186-0.034,0.277-0.057V264.074z"/>
			<path fill="#FFFFFF" d="M251.529,264.051v-8.123h0.677v3.093c0.27-0.288,0.55-0.52,0.84-0.701c0.29-0.18,0.638-0.272,1.043-0.272
				c0.362,0,0.696,0.064,1.004,0.187c0.308,0.123,0.567,0.34,0.778,0.648c0.143,0.21,0.227,0.427,0.253,0.648
				c0.026,0.224,0.04,0.452,0.04,0.694v3.825h-0.677v-3.814c0-0.527-0.116-0.92-0.349-1.185c-0.234-0.262-0.621-0.395-1.162-0.395
				c-0.211,0-0.403,0.034-0.576,0.096c-0.172,0.064-0.329,0.148-0.468,0.253c-0.139,0.105-0.258,0.226-0.355,0.361
				c-0.098,0.137-0.173,0.278-0.226,0.429c-0.067,0.187-0.108,0.37-0.124,0.543c-0.015,0.173-0.022,0.361-0.022,0.561v3.15H251.529z
				"/>
			<path fill="#FFFFFF" d="M261.151,261.285c0,0.317,0.042,0.616,0.124,0.899c0.083,0.281,0.205,0.525,0.366,0.733
				c0.162,0.208,0.367,0.372,0.615,0.495c0.248,0.123,0.534,0.187,0.857,0.187c0.444,0,0.824-0.116,1.139-0.352
				c0.316-0.233,0.527-0.561,0.632-0.991h0.755c-0.082,0.278-0.192,0.534-0.326,0.771c-0.136,0.237-0.305,0.443-0.508,0.621
				c-0.203,0.178-0.444,0.315-0.722,0.411c-0.278,0.098-0.601,0.146-0.97,0.146c-0.466,0-0.868-0.078-1.206-0.235
				c-0.339-0.158-0.617-0.374-0.835-0.651c-0.218-0.274-0.38-0.596-0.485-0.968c-0.105-0.374-0.157-0.774-0.157-1.201
				c0-0.429,0.062-0.831,0.186-1.21c0.124-0.374,0.3-0.703,0.53-0.986c0.229-0.283,0.51-0.502,0.841-0.666
				c0.331-0.16,0.706-0.242,1.128-0.242c0.805,0,1.437,0.278,1.896,0.831c0.459,0.552,0.684,1.356,0.677,2.406H261.151z
				 M264.964,260.723c0-0.288-0.039-0.557-0.119-0.808c-0.079-0.251-0.195-0.47-0.349-0.653c-0.154-0.185-0.348-0.333-0.581-0.44
				c-0.233-0.11-0.5-0.164-0.801-0.164c-0.3,0-0.566,0.057-0.795,0.171c-0.229,0.112-0.425,0.26-0.587,0.45
				c-0.161,0.189-0.291,0.406-0.389,0.655c-0.097,0.246-0.161,0.511-0.192,0.79H264.964z"/>
			<path fill="#FFFFFF" d="M276.763,266.352h-0.677v-8.144h0.677v1.025h0.023c0.097-0.187,0.224-0.356,0.378-0.507
				c0.154-0.151,0.323-0.276,0.508-0.372c0.184-0.098,0.373-0.173,0.569-0.226c0.195-0.052,0.387-0.08,0.575-0.08
				c0.474,0,0.875,0.08,1.206,0.237c0.331,0.16,0.604,0.374,0.818,0.648c0.215,0.274,0.37,0.6,0.468,0.977
				c0.098,0.374,0.147,0.778,0.147,1.205c0,0.406-0.054,0.799-0.159,1.173c-0.105,0.379-0.265,0.708-0.479,0.988
				c-0.215,0.281-0.485,0.509-0.811,0.678c-0.328,0.169-0.713,0.251-1.157,0.251c-0.413,0-0.81-0.091-1.189-0.274
				c-0.38-0.185-0.679-0.456-0.897-0.817V266.352z M276.763,261.152c0,0.329,0.044,0.644,0.135,0.94
				c0.091,0.297,0.22,0.557,0.39,0.778c0.169,0.221,0.375,0.399,0.62,0.532c0.244,0.13,0.52,0.196,0.83,0.196
				c0.346,0,0.648-0.068,0.907-0.21c0.26-0.137,0.472-0.329,0.638-0.568s0.285-0.523,0.361-0.842c0.075-0.32,0.105-0.662,0.09-1.032
				c0-0.367-0.05-0.694-0.152-0.975c-0.102-0.281-0.243-0.52-0.423-0.717c-0.18-0.194-0.391-0.345-0.632-0.445
				c-0.24-0.1-0.503-0.153-0.789-0.153c-0.316,0-0.598,0.064-0.847,0.192c-0.248,0.13-0.454,0.304-0.62,0.525
				c-0.165,0.221-0.292,0.486-0.378,0.79C276.806,260.468,276.763,260.796,276.763,261.152z"/>
			<path fill="#FFFFFF" d="M286.542,264.051h-0.677v-5.843h0.677v1.093h0.023c0.188-0.468,0.43-0.792,0.728-0.975
				c0.297-0.187,0.689-0.278,1.179-0.278v0.735c-0.385-0.009-0.7,0.05-0.948,0.178c-0.248,0.128-0.445,0.301-0.592,0.52
				c-0.146,0.219-0.248,0.475-0.305,0.771c-0.056,0.297-0.084,0.607-0.084,0.931V264.051z"/>
			<path fill="#FFFFFF" d="M292.588,256.932v-1.004h0.744v1.004H292.588z M292.622,264.051v-5.843h0.677v5.843H292.622z"/>
			<path fill="#FFFFFF" d="M297.336,258.208h0.733l1.896,5.008l1.896-5.008h0.734l-2.269,5.843h-0.755L297.336,258.208z"/>
			<path fill="#FFFFFF" d="M306.597,256.932v-1.004h0.744v1.004H306.597z M306.632,264.051v-5.843h0.678v5.843H306.632z"/>
			<path fill="#FFFFFF" d="M312.068,264.051v-8.123h0.678v8.123H312.068z"/>
			<path fill="#FFFFFF" d="M317.82,261.285c0,0.317,0.043,0.616,0.126,0.899c0.082,0.281,0.205,0.525,0.365,0.733
				c0.162,0.208,0.367,0.372,0.616,0.495c0.246,0.123,0.534,0.187,0.856,0.187c0.445,0,0.824-0.116,1.139-0.352
				c0.315-0.233,0.527-0.561,0.632-0.991h0.755c-0.082,0.278-0.192,0.534-0.326,0.771c-0.135,0.237-0.304,0.443-0.509,0.621
				c-0.201,0.178-0.443,0.315-0.721,0.411c-0.278,0.098-0.603,0.146-0.97,0.146c-0.466,0-0.87-0.078-1.207-0.235
				c-0.338-0.158-0.616-0.374-0.835-0.651c-0.217-0.274-0.379-0.596-0.484-0.968c-0.105-0.374-0.157-0.774-0.157-1.201
				c0-0.429,0.062-0.831,0.185-1.21c0.126-0.374,0.301-0.703,0.53-0.986c0.231-0.283,0.511-0.502,0.842-0.666
				c0.331-0.16,0.705-0.242,1.128-0.242c0.806,0,1.436,0.278,1.897,0.831c0.457,0.552,0.682,1.356,0.676,2.406H317.82z
				 M321.634,260.723c0-0.288-0.041-0.557-0.119-0.808c-0.08-0.251-0.196-0.47-0.352-0.653c-0.153-0.185-0.347-0.333-0.58-0.44
				c-0.233-0.11-0.5-0.164-0.801-0.164c-0.299,0-0.566,0.057-0.797,0.171c-0.228,0.112-0.425,0.26-0.584,0.45
				c-0.162,0.189-0.292,0.406-0.39,0.655c-0.098,0.246-0.162,0.511-0.192,0.79H321.634z"/>
			<path fill="#FFFFFF" d="M331.12,258.208h0.676v5.277c0,0.393-0.039,0.767-0.119,1.123c-0.078,0.356-0.219,0.671-0.422,0.943
				c-0.203,0.272-0.482,0.486-0.835,0.648c-0.354,0.162-0.808,0.242-1.363,0.242c-0.429,0-0.799-0.052-1.107-0.162
				c-0.308-0.11-0.559-0.246-0.755-0.413s-0.345-0.349-0.447-0.546c-0.1-0.201-0.155-0.388-0.162-0.559h0.721
				c0.052,0.217,0.135,0.395,0.249,0.536c0.114,0.137,0.246,0.246,0.402,0.326c0.153,0.08,0.324,0.135,0.511,0.162
				c0.187,0.032,0.383,0.046,0.589,0.046c0.456,0,0.826-0.078,1.105-0.237c0.278-0.155,0.488-0.365,0.63-0.621
				c0.144-0.256,0.237-0.543,0.278-0.867c0.041-0.324,0.057-0.653,0.05-0.991c-0.219,0.361-0.518,0.632-0.897,0.817
				c-0.381,0.183-0.778,0.274-1.189,0.274c-0.445,0-0.831-0.082-1.157-0.251c-0.326-0.169-0.598-0.397-0.813-0.678
				c-0.215-0.281-0.374-0.609-0.479-0.988c-0.105-0.374-0.158-0.767-0.158-1.173c0-0.427,0.048-0.831,0.146-1.205
				c0.098-0.377,0.253-0.703,0.468-0.977c0.215-0.274,0.486-0.488,0.819-0.648c0.329-0.158,0.73-0.237,1.205-0.237
				c0.187,0,0.379,0.027,0.575,0.08c0.196,0.053,0.386,0.128,0.571,0.226c0.183,0.096,0.352,0.221,0.507,0.372
				c0.155,0.151,0.281,0.32,0.379,0.507h0.023V258.208z M331.12,261.152c0-0.356-0.046-0.685-0.13-0.988
				c-0.087-0.304-0.212-0.568-0.377-0.79c-0.169-0.221-0.374-0.395-0.621-0.525c-0.251-0.128-0.532-0.192-0.847-0.192
				c-0.285,0-0.55,0.052-0.79,0.153s-0.452,0.251-0.632,0.445c-0.18,0.196-0.322,0.436-0.422,0.717
				c-0.103,0.281-0.153,0.607-0.153,0.975c-0.014,0.37,0.014,0.712,0.091,1.032c0.073,0.32,0.194,0.603,0.361,0.842
				c0.164,0.24,0.374,0.431,0.63,0.568c0.256,0.142,0.561,0.21,0.915,0.21c0.308,0,0.584-0.066,0.829-0.196
				c0.244-0.132,0.452-0.31,0.621-0.532c0.169-0.221,0.299-0.482,0.388-0.778C331.074,261.796,331.12,261.481,331.12,261.152z"/>
			<path fill="#FFFFFF" d="M336.849,261.285c0,0.317,0.041,0.616,0.123,0.899c0.084,0.281,0.205,0.525,0.367,0.733
				c0.162,0.208,0.367,0.372,0.614,0.495c0.249,0.123,0.534,0.187,0.858,0.187c0.443,0,0.824-0.116,1.139-0.352
				c0.317-0.233,0.527-0.561,0.632-0.991h0.755c-0.082,0.278-0.192,0.534-0.326,0.771c-0.137,0.237-0.306,0.443-0.507,0.621
				c-0.205,0.178-0.445,0.315-0.724,0.411c-0.278,0.098-0.6,0.146-0.97,0.146c-0.466,0-0.867-0.078-1.205-0.235
				c-0.34-0.158-0.619-0.374-0.835-0.651c-0.219-0.274-0.381-0.596-0.486-0.968c-0.105-0.374-0.157-0.774-0.157-1.201
				c0-0.429,0.062-0.831,0.187-1.21c0.123-0.374,0.299-0.703,0.53-0.986c0.228-0.283,0.509-0.502,0.84-0.666
				c0.331-0.16,0.708-0.242,1.128-0.242c0.803,0,1.438,0.278,1.894,0.831c0.461,0.552,0.685,1.356,0.678,2.406H336.849z
				 M340.66,260.723c0-0.288-0.037-0.557-0.119-0.808c-0.078-0.251-0.194-0.47-0.347-0.653c-0.155-0.185-0.349-0.333-0.582-0.44
				c-0.233-0.11-0.5-0.164-0.801-0.164c-0.301,0-0.566,0.057-0.794,0.171c-0.231,0.112-0.425,0.26-0.589,0.45
				c-0.16,0.189-0.29,0.406-0.388,0.655c-0.096,0.246-0.16,0.511-0.192,0.79H340.66z"/>
			<path fill="#FFFFFF" d="M350.148,255.928h0.678v8.123h-0.678v-1.027h-0.021c-0.1,0.196-0.226,0.365-0.379,0.511
				c-0.155,0.148-0.324,0.269-0.507,0.37c-0.187,0.096-0.374,0.171-0.571,0.224s-0.388,0.078-0.575,0.078
				c-0.475,0-0.876-0.078-1.207-0.235c-0.331-0.158-0.605-0.374-0.819-0.651c-0.215-0.274-0.37-0.598-0.466-0.972
				c-0.1-0.379-0.146-0.781-0.146-1.21c0-0.406,0.05-0.794,0.155-1.173c0.105-0.374,0.265-0.703,0.479-0.986
				c0.215-0.283,0.486-0.507,0.813-0.676c0.329-0.169,0.712-0.256,1.157-0.256c0.413,0,0.81,0.091,1.189,0.278
				c0.379,0.183,0.68,0.456,0.897,0.817V255.928z M350.148,261.107c0-0.333-0.043-0.646-0.135-0.943
				c-0.091-0.297-0.219-0.557-0.388-0.778c-0.171-0.221-0.379-0.397-0.621-0.53c-0.247-0.132-0.52-0.199-0.831-0.199
				c-0.352,0-0.657,0.071-0.913,0.208c-0.256,0.142-0.466,0.331-0.632,0.571c-0.167,0.242-0.285,0.52-0.361,0.84
				c-0.075,0.32-0.105,0.664-0.089,1.032c0,0.37,0.05,0.694,0.151,0.977s0.242,0.52,0.425,0.717c0.178,0.196,0.39,0.342,0.63,0.445
				c0.242,0.103,0.504,0.153,0.79,0.153c0.315,0,0.598-0.064,0.847-0.192c0.249-0.128,0.454-0.304,0.621-0.525
				c0.164-0.221,0.29-0.484,0.377-0.79S350.148,261.458,350.148,261.107z"/>
		</g>
	</g>
</g>
</svg>
