<?xml version="1.0" encoding="utf-8"?>
<!-- Generator: Adobe Illustrator 16.0.0, SVG Export Plug-In . SVG Version: 6.00 Build 0)  -->
<!DOCTYPE svg PUBLIC "-//W3C//DTD SVG 1.1//EN" "http://www.w3.org/Graphics/SVG/1.1/DTD/svg11.dtd">
<svg version="1.1" id="Layer_1" xmlns="http://www.w3.org/2000/svg" xmlns:xlink="http://www.w3.org/1999/xlink" x="0px" y="0px"
	 width="600px" height="450px" viewBox="0 0 600 450" enable-background="new 0 0 600 450" xml:space="preserve">
<rect x="-5.833" y="-10.5" fill="#B9D4DB" width="615.999" height="470"/>
<g id="Layer_3">
</g>
<g id="Layer_3_1_">
</g>
<g id="Layer_2_1_">
</g>
<g>
	<g>
		<path fill="#004B70" stroke="#004B70" stroke-width="0.3" stroke-miterlimit="10" d="M344.087,288.348
			c0.073,0.12,0.128,0.211,0.161,0.271c0.591,0.972,1.011,1.61,1.26,1.916s0.479,0.464,0.69,0.473
			c0.334,0.017,0.595-0.202,0.78-0.653c0.122,0.06,0.184,0.125,0.184,0.193c0,0.199-0.156,0.447-0.471,0.744
			c-0.313,0.297-0.577,0.445-0.789,0.445c-0.309,0-0.71-0.287-1.204-0.862s-0.982-1.327-1.467-2.255
			c-0.205,0.016-0.379,0.023-0.525,0.023c-0.142,0-0.319-0.008-0.535-0.023l-0.041,0.313l-0.072,0.545
			c-0.063,0.452-0.177,0.776-0.34,0.975c-0.163,0.197-0.481,0.391-0.952,0.58l1.313,0.07l-0.668,0.551L339,291.547l0.713-0.587
			l0.606,0.058c0.449-0.244,0.729-0.742,0.835-1.492l0.062-0.461l0.468-3.59c-1.689,0.271-2.534,0.813-2.534,1.625
			c0,0.324,0.08,0.613,0.239,0.866l-0.896,0.673c-0.078-0.242-0.116-0.49-0.116-0.738c0-0.856,0.429-1.557,1.285-2.1
			c0.858-0.543,1.962-0.814,3.313-0.814c1.834,0,2.751,0.496,2.751,1.488C345.726,287.199,345.18,287.823,344.087,288.348z
			 M342.584,285.439l-0.358,2.754c0.298,0.041,0.57,0.062,0.816,0.062c0.23,0,0.481-0.021,0.754-0.062c0.667-0.405,1-0.896,1-1.471
			C344.796,285.867,344.059,285.439,342.584,285.439z"/>
		<path fill="#004B70" stroke="#004B70" stroke-width="0.3" stroke-miterlimit="10" d="M349.284,290.169
			c0.101,0.051,0.15,0.099,0.15,0.147c0,0.113-0.161,0.338-0.484,0.673c-0.434,0.454-0.837,0.682-1.208,0.682
			c-0.271,0-0.405-0.153-0.405-0.459c0-0.129,0.056-0.526,0.167-1.192l0.217-1.287l0.056-0.327l0.045-0.261
			c0.02-0.109,0.028-0.203,0.028-0.278c0-0.158-0.052-0.237-0.155-0.237c-0.288,0-0.599,0.27-0.931,0.811
			c-0.07-0.055-0.105-0.107-0.105-0.162c0-0.192,0.209-0.451,0.626-0.776c0.418-0.325,0.751-0.487,0.999-0.487
			c0.278,0,0.418,0.163,0.418,0.491c0,0.063-0.015,0.193-0.045,0.388l-0.05,0.317c-0.004,0.024-0.024,0.153-0.061,0.383
			l-0.229,1.353l-0.056,0.304c-0.048,0.3-0.072,0.5-0.072,0.601c0,0.137,0.046,0.203,0.139,0.203
			C348.636,291.055,348.955,290.759,349.284,290.169z M348.171,286.402l0.468-0.981c0.416-0.146,0.757-0.346,1.023-0.603
			c0.037,0.045,0.057,0.091,0.057,0.138C349.719,285.38,349.202,285.861,348.171,286.402z"/>
		<path fill="#004B70" stroke="#004B70" stroke-width="0.3" stroke-miterlimit="10" d="M351.795,290.62
			c1.035-1.231,1.554-2.09,1.554-2.573c0-0.18-0.108-0.322-0.323-0.426l0.696-0.605c0.271,0.116,0.406,0.303,0.406,0.559
			c0,0.316-0.355,0.93-1.064,1.843c-0.156,0.196-0.265,0.338-0.328,0.426l-0.139,0.204l-0.256,0.346
			c-0.142,0.189-0.29,0.403-0.445,0.641l-0.774,0.64c-0.141-1.018-0.37-1.942-0.689-2.77c-0.319-0.829-0.605-1.243-0.857-1.243
			c-0.281,0-0.479,0.24-0.59,0.72c-0.107-0.032-0.161-0.084-0.161-0.155c0-0.24,0.121-0.5,0.364-0.777
			c0.243-0.278,0.472-0.422,0.688-0.432C350.679,286.98,351.319,288.182,351.795,290.62z"/>
		<path fill="#004B70" stroke="#004B70" stroke-width="0.3" stroke-miterlimit="10" d="M357.114,290.041
			c0.093,0.054,0.14,0.117,0.14,0.189c0,0.098-0.119,0.265-0.356,0.502c-0.635,0.625-1.262,0.938-1.882,0.938
			c-0.379,0-0.69-0.128-0.936-0.384c-0.244-0.257-0.367-0.583-0.367-0.981c0-0.72,0.319-1.449,0.96-2.186
			c0.64-0.737,1.273-1.105,1.9-1.105c0.453,0,0.68,0.206,0.68,0.62c0,0.464-0.265,0.918-0.793,1.36
			c-0.529,0.441-1.175,0.75-1.936,0.924c0.074,0.758,0.427,1.137,1.059,1.137C356.206,291.055,356.717,290.717,357.114,290.041z
			 M354.547,289.339c0.107,0.032,0.206,0.047,0.295,0.047c0.46,0,0.862-0.12,1.208-0.36c0.345-0.239,0.518-0.521,0.518-0.842
			c0-0.371-0.221-0.555-0.663-0.555c-0.318,0-0.607,0.162-0.866,0.486C354.781,288.439,354.617,288.848,354.547,289.339z"/>
		<path fill="#004B70" stroke="#004B70" stroke-width="0.3" stroke-miterlimit="10" d="M359.104,289.008
			c0.824-1.33,1.634-1.994,2.432-1.994c0.208,0,0.416,0.04,0.623,0.122l-0.785,0.73c-0.118-0.058-0.271-0.085-0.455-0.085
			c-0.387,0-0.793,0.266-1.222,0.798c-0.428,0.532-0.68,1.086-0.754,1.661l-0.149,1.156l-0.828,0.236l0.017-0.142l0.039-0.308
			l0.045-0.309l0.292-2.255l0.034-0.246c0.026-0.187,0.039-0.338,0.039-0.455c0-0.192-0.063-0.289-0.19-0.289
			c-0.297,0-0.593,0.271-0.886,0.81c-0.093-0.06-0.137-0.121-0.134-0.185c0.011-0.192,0.218-0.448,0.622-0.765
			c0.403-0.317,0.722-0.477,0.957-0.477c0.315,0,0.474,0.178,0.474,0.531c0,0.085-0.009,0.201-0.028,0.346l-0.039,0.332
			l-0.051,0.398L359.104,289.008z"/>
		<path fill="#004B70" stroke="#004B70" stroke-width="0.3" stroke-miterlimit="10" d="M363.109,287.686l-0.45,3.832
			c-0.1,0.867-0.255,1.528-0.465,1.983c-0.21,0.454-0.548,0.863-1.016,1.226c-0.687,0.533-1.456,0.801-2.311,0.801
			c-0.171,0-0.39-0.039-0.656-0.117l0.74-0.574c0.316,0.088,0.602,0.133,0.858,0.133c1.095,0,1.728-0.705,1.899-2.117l0.145-1.176
			l0.463-3.988h-1.003l0.634-0.551h0.439l0.032-0.275c0.134-1.168,0.528-2.078,1.187-2.73c0.657-0.652,1.506-0.979,2.546-0.979
			c0.197,0,0.418,0.017,0.663,0.048l-0.779,0.649c-0.277-0.093-0.551-0.138-0.817-0.138c-0.639,0-1.093,0.188-1.364,0.565
			c-0.271,0.375-0.467,1.098-0.59,2.162l-0.083,0.697h2.254l-0.663,0.551h-1.663V287.686z"/>
		<path fill="#004B70" stroke="#004B70" stroke-width="0.3" stroke-miterlimit="10" d="M366.043,289.008
			c0.823-1.33,1.634-1.994,2.432-1.994c0.208,0,0.416,0.04,0.623,0.122l-0.785,0.73c-0.119-0.058-0.271-0.085-0.456-0.085
			c-0.386,0-0.793,0.266-1.221,0.798c-0.429,0.532-0.681,1.086-0.754,1.661l-0.15,1.156l-0.828,0.236l0.018-0.142l0.039-0.308
			l0.045-0.309l0.292-2.255l0.033-0.246c0.026-0.187,0.039-0.338,0.039-0.455c0-0.192-0.063-0.289-0.189-0.289
			c-0.297,0-0.593,0.271-0.886,0.81c-0.094-0.06-0.138-0.121-0.135-0.185c0.012-0.192,0.219-0.448,0.622-0.765
			c0.404-0.317,0.723-0.477,0.957-0.477c0.316,0,0.475,0.178,0.475,0.531c0,0.085-0.01,0.201-0.028,0.346l-0.039,0.332l-0.051,0.398
			L366.043,289.008z"/>
		<path fill="#004B70" stroke="#004B70" stroke-width="0.3" stroke-miterlimit="10" d="M369.355,291.67
			c-0.835,0-1.253-0.471-1.253-1.412c0-0.758,0.327-1.488,0.98-2.191c0.652-0.702,1.33-1.053,2.031-1.053
			c0.847,0,1.271,0.471,1.271,1.411c0,0.761-0.327,1.492-0.98,2.194C370.751,291.32,370.068,291.67,369.355,291.67z
			 M370.029,291.141c0.427,0,0.784-0.203,1.072-0.606c0.288-0.404,0.431-0.908,0.431-1.511c0-0.985-0.359-1.479-1.08-1.479
			c-0.423,0-0.778,0.203-1.065,0.609c-0.288,0.406-0.433,0.908-0.433,1.509C368.953,290.646,369.312,291.141,370.029,291.141z"/>
		<path fill="#004B70" stroke="#004B70" stroke-width="0.3" stroke-miterlimit="10" d="M373.83,291.381l-0.833,0.289l0.018-0.133
			l0.045-0.352l0.045-0.332l0.29-2.197l0.033-0.251c0.021-0.196,0.033-0.354,0.033-0.474c0-0.203-0.061-0.304-0.179-0.304
			c-0.278,0-0.578,0.269-0.897,0.806c-0.085-0.061-0.128-0.113-0.128-0.156c0-0.189,0.203-0.448,0.609-0.775
			c0.407-0.327,0.728-0.49,0.962-0.49c0.319,0,0.479,0.174,0.479,0.521c0,0.088-0.009,0.207-0.028,0.355l-0.045,0.383l-0.046,0.322
			l-0.046,0.336c0.438-0.556,0.918-1.015,1.438-1.376c0.521-0.362,0.967-0.542,1.333-0.542c0.36,0,0.54,0.213,0.54,0.639
			c0,0.13-0.02,0.324-0.059,0.582l-0.303,1.766c-0.063,0.354-0.093,0.633-0.093,0.838c0,0.164,0.053,0.246,0.156,0.246
			c0.257,0,0.573-0.289,0.949-0.867c0.089,0.047,0.134,0.096,0.134,0.147c0,0.204-0.207,0.475-0.622,0.808
			c-0.414,0.333-0.752,0.5-1.012,0.5c-0.29,0-0.435-0.177-0.435-0.531c0-0.259,0.039-0.617,0.116-1.074l0.197-1.147
			c0.063-0.373,0.095-0.668,0.095-0.886c0-0.249-0.102-0.374-0.306-0.374c-0.475,0-0.956,0.274-1.443,0.821
			c-0.487,0.549-0.771,1.137-0.854,1.766L373.83,291.381z"/>
		<path fill="#004B70" stroke="#004B70" stroke-width="0.3" stroke-miterlimit="10" d="M379.82,287.686l-0.27,2.095
			c-0.048,0.376-0.072,0.653-0.072,0.834c0,0.356,0.143,0.534,0.428,0.534c0.308,0,0.625-0.215,0.954-0.644
			c0.055,0.06,0.083,0.114,0.083,0.161c0,0.177-0.183,0.389-0.548,0.635c-0.366,0.246-0.68,0.37-0.944,0.37
			c-0.526,0-0.791-0.287-0.791-0.862c0-0.211,0.032-0.554,0.096-1.027l0.267-2.094h-1.169l0.648-0.551h0.593l0.118-0.861
			l0.819-0.232l-0.135,1.094h2.361l-0.652,0.551h-1.786V287.686z"/>
		<path fill="#004B70" stroke="#004B70" stroke-width="0.3" stroke-miterlimit="10" d="M385.734,289.008
			c0.824-1.33,1.634-1.994,2.433-1.994c0.207,0,0.415,0.04,0.622,0.122l-0.784,0.73c-0.119-0.058-0.271-0.085-0.456-0.085
			c-0.387,0-0.793,0.266-1.222,0.798c-0.428,0.532-0.68,1.086-0.754,1.661l-0.149,1.156l-0.828,0.236l0.017-0.142l0.039-0.308
			l0.045-0.309l0.292-2.255l0.034-0.246c0.026-0.187,0.039-0.338,0.039-0.455c0-0.192-0.063-0.289-0.19-0.289
			c-0.297,0-0.593,0.271-0.886,0.81c-0.093-0.06-0.137-0.121-0.134-0.185c0.011-0.192,0.218-0.448,0.622-0.765
			c0.404-0.317,0.722-0.477,0.957-0.477c0.315,0,0.474,0.178,0.474,0.531c0,0.085-0.009,0.201-0.027,0.346l-0.039,0.332
			l-0.052,0.398L385.734,289.008z"/>
		<path fill="#004B70" stroke="#004B70" stroke-width="0.3" stroke-miterlimit="10" d="M391.196,290.041
			c0.093,0.054,0.14,0.117,0.14,0.189c0,0.098-0.119,0.265-0.356,0.502c-0.635,0.625-1.262,0.938-1.882,0.938
			c-0.379,0-0.69-0.128-0.936-0.384c-0.244-0.257-0.367-0.583-0.367-0.981c0-0.72,0.319-1.449,0.96-2.186
			c0.64-0.737,1.273-1.105,1.9-1.105c0.453,0,0.68,0.206,0.68,0.62c0,0.464-0.265,0.918-0.793,1.36
			c-0.529,0.441-1.175,0.75-1.936,0.924c0.074,0.758,0.427,1.137,1.058,1.137C390.287,291.055,390.798,290.717,391.196,290.041z
			 M388.629,289.339c0.107,0.032,0.206,0.047,0.295,0.047c0.46,0,0.862-0.12,1.208-0.36c0.345-0.239,0.518-0.521,0.518-0.842
			c0-0.371-0.221-0.555-0.663-0.555c-0.318,0-0.607,0.162-0.866,0.486C388.864,288.439,388.698,288.848,388.629,289.339z"/>
		<path fill="#004B70" stroke="#004B70" stroke-width="0.3" stroke-miterlimit="10" d="M391.013,291.415l0.77-0.535
			c0.29,0.263,0.655,0.394,1.095,0.394c0.535,0,0.803-0.219,0.803-0.659c0-0.243-0.246-0.583-0.737-1.02l-0.317-0.278
			c-0.466-0.414-0.698-0.75-0.698-1.004c0-0.366,0.187-0.674,0.56-0.924s0.832-0.375,1.378-0.375c0.297,0,0.622,0.047,0.975,0.143
			l-0.668,0.525c-0.282-0.18-0.597-0.27-0.941-0.27c-0.405,0-0.607,0.145-0.607,0.431c0,0.205,0.226,0.507,0.675,0.905l0.345,0.313
			c0.512,0.455,0.768,0.821,0.768,1.1c0,0.398-0.225,0.749-0.674,1.054c-0.449,0.306-0.967,0.457-1.553,0.457
			C391.766,291.67,391.376,291.585,391.013,291.415z"/>
		<path fill="#004B70" stroke="#004B70" stroke-width="0.3" stroke-miterlimit="10" d="M395.969,291.67
			c-0.835,0-1.253-0.471-1.253-1.412c0-0.758,0.327-1.488,0.979-2.191c0.653-0.702,1.331-1.053,2.032-1.053
			c0.846,0,1.27,0.471,1.27,1.411c0,0.761-0.326,1.492-0.979,2.194C397.364,291.32,396.681,291.67,395.969,291.67z M396.642,291.141
			c0.427,0,0.784-0.203,1.072-0.606c0.288-0.404,0.431-0.908,0.431-1.511c0-0.985-0.36-1.479-1.08-1.479
			c-0.423,0-0.779,0.203-1.066,0.609s-0.432,0.908-0.432,1.509C395.568,290.646,395.926,291.141,396.642,291.141z"/>
		<path fill="#004B70" stroke="#004B70" stroke-width="0.3" stroke-miterlimit="10" d="M400.759,289.008
			c0.823-1.33,1.634-1.994,2.432-1.994c0.208,0,0.416,0.04,0.623,0.122l-0.785,0.73c-0.119-0.058-0.271-0.085-0.456-0.085
			c-0.386,0-0.793,0.266-1.221,0.798s-0.68,1.086-0.754,1.661l-0.15,1.156l-0.828,0.236l0.018-0.142l0.039-0.308l0.045-0.309
			l0.292-2.255l0.034-0.246c0.025-0.187,0.039-0.338,0.039-0.455c0-0.192-0.063-0.289-0.19-0.289c-0.297,0-0.593,0.271-0.886,0.81
			c-0.093-0.06-0.138-0.121-0.134-0.185c0.011-0.192,0.218-0.448,0.621-0.765c0.404-0.317,0.723-0.477,0.957-0.477
			c0.316,0,0.475,0.178,0.475,0.531c0,0.085-0.009,0.201-0.028,0.346l-0.039,0.332l-0.051,0.398L400.759,289.008z"/>
		<path fill="#004B70" stroke="#004B70" stroke-width="0.3" stroke-miterlimit="10" d="M404.746,287.686l-0.27,2.095
			c-0.048,0.376-0.072,0.653-0.072,0.834c0,0.356,0.144,0.534,0.429,0.534c0.307,0,0.625-0.215,0.953-0.644
			c0.056,0.06,0.083,0.114,0.083,0.161c0,0.177-0.183,0.389-0.548,0.635c-0.366,0.246-0.68,0.37-0.943,0.37
			c-0.527,0-0.791-0.287-0.791-0.862c0-0.211,0.031-0.554,0.095-1.027l0.267-2.094h-1.169l0.648-0.551h0.593l0.118-0.861l0.82-0.232
			l-0.136,1.094h2.361l-0.653,0.551h-1.785V287.686z"/>
		<path fill="#004B70" stroke="#004B70" stroke-width="0.3" stroke-miterlimit="10" d="M411.1,290.154
			c0.106,0.044,0.161,0.101,0.161,0.171c0,0.227-0.2,0.509-0.6,0.843c-0.398,0.335-0.733,0.502-1.005,0.502
			c-0.308,0-0.462-0.189-0.462-0.568c0-0.231,0.018-0.467,0.05-0.707l0.062-0.422l0.429-3.297c0.134-1.004,0.539-1.843,1.216-2.516
			c0.678-0.674,1.458-1.01,2.341-1.01c0.216,0,0.397,0.017,0.547,0.048l-0.79,0.687c-0.175-0.051-0.378-0.076-0.612-0.076
			c-0.556,0-0.972,0.168-1.248,0.5c-0.276,0.334-0.466,0.897-0.57,1.693l-0.517,3.968c-0.041,0.306-0.062,0.526-0.062,0.658
			c0,0.284,0.058,0.426,0.173,0.426c0.137,0,0.297-0.093,0.481-0.28C410.88,290.587,411.015,290.381,411.1,290.154z"/>
		<path fill="#004B70" stroke="#004B70" stroke-width="0.3" stroke-miterlimit="10" d="M413.896,290.169
			c0.1,0.051,0.15,0.099,0.15,0.147c0,0.113-0.161,0.338-0.484,0.673c-0.434,0.454-0.837,0.682-1.208,0.682
			c-0.271,0-0.406-0.153-0.406-0.459c0-0.129,0.057-0.526,0.167-1.192l0.217-1.287l0.057-0.327l0.045-0.261
			c0.019-0.109,0.028-0.203,0.028-0.278c0-0.158-0.053-0.237-0.155-0.237c-0.288,0-0.6,0.27-0.931,0.811
			c-0.07-0.055-0.105-0.107-0.105-0.162c0-0.192,0.209-0.451,0.626-0.776c0.418-0.325,0.751-0.487,0.999-0.487
			c0.278,0,0.418,0.163,0.418,0.491c0,0.063-0.015,0.193-0.045,0.388l-0.05,0.317c-0.004,0.024-0.024,0.153-0.062,0.383
			l-0.228,1.353l-0.057,0.304c-0.048,0.3-0.071,0.5-0.071,0.601c0,0.137,0.046,0.203,0.139,0.203
			C413.246,291.055,413.567,290.759,413.896,290.169z M412.781,286.402l0.469-0.981c0.415-0.146,0.757-0.346,1.023-0.603
			c0.037,0.045,0.056,0.091,0.056,0.138C414.328,285.38,413.813,285.861,412.781,286.402z"/>
		<path fill="#004B70" stroke="#004B70" stroke-width="0.3" stroke-miterlimit="10" d="M416.406,290.62
			c1.036-1.231,1.555-2.09,1.555-2.573c0-0.18-0.108-0.322-0.323-0.426l0.695-0.605c0.271,0.116,0.406,0.303,0.406,0.559
			c0,0.316-0.354,0.93-1.063,1.843c-0.156,0.196-0.266,0.338-0.328,0.426l-0.14,0.204l-0.256,0.346
			c-0.141,0.189-0.29,0.403-0.444,0.641l-0.774,0.64c-0.141-1.018-0.371-1.942-0.689-2.77c-0.319-0.829-0.605-1.243-0.857-1.243
			c-0.282,0-0.479,0.24-0.59,0.72c-0.108-0.032-0.161-0.084-0.161-0.155c0-0.24,0.121-0.5,0.364-0.777
			c0.243-0.278,0.472-0.422,0.687-0.432C415.289,286.98,415.93,288.182,416.406,290.62z"/>
		<path fill="#004B70" stroke="#004B70" stroke-width="0.3" stroke-miterlimit="10" d="M421.04,290.169
			c0.101,0.051,0.15,0.099,0.15,0.147c0,0.113-0.161,0.338-0.484,0.673c-0.434,0.454-0.837,0.682-1.208,0.682
			c-0.271,0-0.405-0.153-0.405-0.459c0-0.129,0.056-0.526,0.167-1.192l0.217-1.287l0.056-0.327l0.045-0.261
			c0.02-0.109,0.028-0.203,0.028-0.278c0-0.158-0.052-0.237-0.155-0.237c-0.288,0-0.599,0.27-0.931,0.811
			c-0.07-0.055-0.105-0.107-0.105-0.162c0-0.192,0.209-0.451,0.626-0.776c0.419-0.325,0.751-0.487,0.999-0.487
			c0.278,0,0.418,0.163,0.418,0.491c0,0.063-0.015,0.193-0.045,0.388l-0.05,0.317c-0.004,0.024-0.023,0.153-0.061,0.383
			l-0.229,1.353l-0.056,0.304c-0.048,0.3-0.072,0.5-0.072,0.601c0,0.137,0.046,0.203,0.14,0.203
			C420.392,291.055,420.712,290.759,421.04,290.169z M419.927,286.402l0.468-0.981c0.416-0.146,0.757-0.346,1.024-0.603
			c0.036,0.045,0.056,0.091,0.056,0.138C421.474,285.38,420.957,285.861,419.927,286.402z"/>
		<path fill="#004B70" stroke="#004B70" stroke-width="0.3" stroke-miterlimit="10" d="M422.536,291.381l-0.833,0.289l0.018-0.133
			l0.045-0.352l0.045-0.332l0.29-2.197l0.033-0.251c0.021-0.196,0.032-0.354,0.032-0.474c0-0.203-0.06-0.304-0.178-0.304
			c-0.278,0-0.578,0.269-0.897,0.806c-0.085-0.061-0.128-0.113-0.128-0.156c0-0.189,0.202-0.448,0.609-0.775s0.728-0.49,0.962-0.49
			c0.319,0,0.479,0.174,0.479,0.521c0,0.088-0.009,0.207-0.028,0.355l-0.045,0.383l-0.046,0.322l-0.046,0.336
			c0.438-0.556,0.918-1.015,1.438-1.376c0.521-0.362,0.967-0.542,1.333-0.542c0.36,0,0.54,0.213,0.54,0.639
			c0,0.13-0.02,0.324-0.059,0.582l-0.303,1.766c-0.063,0.354-0.093,0.633-0.093,0.838c0,0.164,0.053,0.246,0.156,0.246
			c0.257,0,0.573-0.289,0.949-0.867c0.089,0.047,0.134,0.096,0.134,0.147c0,0.204-0.207,0.475-0.622,0.808
			c-0.414,0.333-0.752,0.5-1.012,0.5c-0.29,0-0.435-0.177-0.435-0.531c0-0.259,0.038-0.617,0.116-1.074l0.197-1.147
			c0.063-0.373,0.095-0.668,0.095-0.886c0-0.249-0.102-0.374-0.306-0.374c-0.475,0-0.956,0.274-1.443,0.821
			c-0.487,0.549-0.771,1.137-0.854,1.766L422.536,291.381z"/>
		<path fill="#004B70" stroke="#004B70" stroke-width="0.3" stroke-miterlimit="10" d="M431.408,287.198
			c-0.019,0.057-0.029,0.092-0.032,0.104l-0.062,0.251c-0.048,0.184-0.074,0.284-0.078,0.303l-0.223,1.734
			c-0.037,0.291-0.076,0.801-0.117,1.53c-0.052,0.913-0.154,1.589-0.306,2.028c-0.152,0.438-0.421,0.83-0.808,1.175
			c-0.883,0.793-1.823,1.188-2.822,1.188c-0.483,0-0.884-0.139-1.203-0.416s-0.479-0.625-0.479-1.041
			c0-0.849,0.611-1.686,1.832-2.513c-0.26-0.174-0.39-0.481-0.39-0.92c0-0.955,0.369-1.785,1.107-2.49
			c0.739-0.704,1.611-1.058,2.617-1.058C430.872,287.075,431.194,287.116,431.408,287.198z M430.204,289.688
			c-1.002,1.304-1.908,1.955-2.721,1.955c-0.033,0-0.093-0.004-0.178-0.01c-0.865,0.738-1.297,1.396-1.297,1.973
			c0,0.395,0.165,0.726,0.493,0.992c0.328,0.266,0.736,0.399,1.224,0.399c0.751,0,1.327-0.281,1.728-0.843
			c0.306-0.434,0.518-1.463,0.637-3.092C430.133,290.446,430.172,289.988,430.204,289.688z M430.452,287.79
			c-0.267-0.161-0.604-0.242-1.008-0.242c-0.509,0-0.938,0.272-1.29,0.815c-0.351,0.543-0.525,1.211-0.525,2.004
			c0,0.41,0.143,0.615,0.429,0.615c0.327,0,0.726-0.215,1.198-0.644c0.653-0.597,1.028-1.272,1.125-2.028L430.452,287.79z"/>
	</g>
	<path fill="#5FBA71" d="M284.878,209.953c0,0,27.11-6.823,42.192-17.416c15.082-10.593,38.782-7.9,46.683,0.539
		c7.899,8.439,16.339,21.725,16.339,21.725s-13.286-10.055-30.164,0.718s-25.854,13.645-33.396,13.645
		S302.294,225.034,284.878,209.953z"/>
	<path fill="#238CC1" d="M368.905,181.046c0,0-13.825-26.573-55.839-26.573c0,0-31.214,6.081-44.168,13.825
		c-16.518,9.875-43.988,16.159-50.99,12.748c-7.003-3.411,26.572,23.52,58.531,21.904c19.755-0.999,25.675-4.668,45.784-16.698
		C342.332,174.222,360.825,176.737,368.905,181.046z"/>
	<path fill="#FF9E00" d="M303.192,229.343c0,0-15.8-5.207-29.086-16.698c-13.286-11.491-37.524-8.618-45.425-2.693
		c-7.9,5.925-15.261,6.284-15.261,6.284s11.588,1.86,24.598,12.927c12.03,10.233,41.116,10.952,48.118,7.541
		C293.137,233.293,300.678,229.523,303.192,229.343z"/>
	<g>
		<path fill="#004B70" d="M180.218,269.167c-0.606,0-1.013,0.151-1.22,0.457c-0.207,0.305-0.312,0.884-0.312,1.737v1.764
			c0,0.402,0.01,0.773,0.029,1.118c0.019,0.344,0.044,0.67,0.075,0.979c-1.39,0.308-2.475,0.512-3.257,0.612
			c-0.783,0.101-1.538,0.151-2.268,0.151c-2.701,0-4.87-0.703-6.508-2.108s-2.457-3.269-2.457-5.592c0-2.445,0.846-4.415,2.537-5.91
			s3.911-2.242,6.657-2.242c0.897,0,1.784,0.074,2.664,0.22c0.878,0.147,1.72,0.369,2.525,0.662c0,0.508,0.027,1,0.081,1.473
			s0.143,1.011,0.266,1.613l-0.588,0.107c-0.353-1.219-0.934-2.074-1.742-2.564c-0.811-0.492-2.035-0.737-3.678-0.737
			c-1.841,0-3.321,0.626-4.441,1.877s-1.681,2.938-1.681,5.06c0,2.201,0.623,3.963,1.87,5.286s2.902,1.984,4.966,1.984
			c0.529,0,1.024-0.038,1.484-0.113s0.89-0.185,1.289-0.328c0.015-0.387,0.027-0.808,0.035-1.264
			c0.008-0.455,0.012-1.138,0.012-2.05c0-0.859-0.142-1.44-0.426-1.741c-0.284-0.302-0.848-0.452-1.692-0.452
			c-0.077,0-0.195,0.014-0.356,0.043v-0.484h0.115c1.296,0.072,2.32,0.108,3.072,0.108c0.591,0,1.527-0.036,2.809-0.108h0.138
			V269.167z"/>
		<path fill="#004B70" d="M199.534,272.511c-0.254,0.761-0.451,1.388-0.594,1.882c-0.142,0.495-0.259,0.955-0.351,1.377
			c-0.299-0.006-0.748-0.018-1.346-0.031c-1.703-0.051-3.023-0.075-3.959-0.075c-1.344,0-3.304,0.032-5.881,0.097l-0.241,0.012
			v-0.463c0.038,0.008,0.094,0.014,0.167,0.017c0.072,0.004,0.174,0.005,0.305,0.005c0.683,0,1.128-0.215,1.335-0.645
			c0.207-0.431,0.311-1.392,0.311-2.883v-7.926c0-1.318-0.098-2.163-0.293-2.533c-0.195-0.369-0.646-0.554-1.352-0.554
			c-0.1,0-0.173,0.002-0.219,0.005c-0.046,0.004-0.092,0.009-0.139,0.016v-0.461c0.123,0.006,0.312,0.018,0.564,0.031
			c1.097,0.057,1.929,0.086,2.497,0.086c0.644,0,1.657-0.031,3.038-0.097c0.115-0.007,0.203-0.015,0.265-0.021v0.461
			c-0.077-0.014-0.154-0.021-0.229-0.021c-0.853,0-1.392,0.203-1.617,0.607c-0.227,0.405-0.339,1.231-0.339,2.479
			c0,2.789,0.012,4.963,0.035,6.522c0.022,1.56,0.058,2.984,0.104,4.275c0.537,0.057,1.041,0.1,1.513,0.129
			c0.473,0.029,0.927,0.043,1.364,0.043c1.266,0,2.209-0.138,2.831-0.414c0.621-0.275,1.208-0.966,1.761-2.07L199.534,272.511z"/>
		<path fill="#004B70" d="M217.447,272.576c-0.223,0.624-0.409,1.195-0.563,1.715s-0.28,1.013-0.38,1.479
			c-0.284-0.006-0.706-0.018-1.267-0.031c-1.771-0.051-3.194-0.075-4.269-0.075c-1.504,0-3.552,0.032-6.146,0.097l-0.219,0.012
			v-0.463c0.038,0.008,0.094,0.014,0.167,0.017c0.073,0.004,0.174,0.005,0.306,0.005c0.675,0,1.117-0.229,1.328-0.684
			c0.212-0.455,0.316-1.363,0.316-2.726v-8.044c0-1.319-0.098-2.163-0.293-2.533c-0.196-0.369-0.646-0.554-1.352-0.554
			c-0.101,0-0.174,0.002-0.22,0.005c-0.046,0.004-0.092,0.009-0.138,0.016v-0.451l0.368,0.011c2.73,0.136,4.69,0.204,5.88,0.204
			c0.598,0,1.355-0.02,2.272-0.057c0.918-0.037,1.886-0.09,2.906-0.158c0,0.436,0.02,0.901,0.059,1.398
			c0.038,0.497,0.1,1.07,0.184,1.721l-0.472,0.064c-0.315-1.004-0.704-1.62-1.168-1.85s-1.41-0.345-2.837-0.345
			c-0.515,0-1.041,0.005-1.582,0.017c-0.541,0.011-1.019,0.027-1.434,0.048c-0.015,0.631-0.026,1.364-0.035,2.198
			c-0.008,0.836-0.011,2.113-0.011,3.834c0.185,0.022,0.37,0.039,0.559,0.049c0.188,0.011,0.393,0.016,0.615,0.016h2.117
			c1.097,0,1.847-0.1,2.25-0.301s0.635-0.591,0.696-1.172l0.472,0.043c-0.054,0.258-0.094,0.543-0.121,0.855
			c-0.026,0.312-0.04,0.65-0.04,1.016c0,0.351,0.014,0.695,0.04,1.031c0.027,0.338,0.067,0.688,0.121,1.055l-0.472,0.054
			c-0.062-0.703-0.293-1.172-0.696-1.409c-0.403-0.236-1.153-0.354-2.25-0.354h-2.117c-0.229,0-0.438,0.005-0.627,0.016
			c-0.188,0.011-0.37,0.027-0.547,0.048c0,0.961,0.01,2.033,0.029,3.217c0.019,1.183,0.048,2.2,0.086,3.054
			c0.529,0.057,1.074,0.102,1.634,0.134c0.561,0.032,1.074,0.048,1.542,0.048c1.473,0,2.53-0.149,3.17-0.446
			c0.641-0.297,1.195-0.955,1.663-1.973L217.447,272.576z"/>
		<path fill="#004B70" d="M241.022,260.811c-0.085-0.015-0.173-0.022-0.265-0.022c-0.276,0-0.528,0.05-0.754,0.151
			c-0.227,0.1-0.397,0.236-0.512,0.408c-0.192,0.266-0.318,0.937-0.381,2.012c-0.061,1.074-0.092,2.717-0.092,4.926v4.398
			c0,0.609,0.023,1.219,0.069,1.828s0.1,1.065,0.161,1.366h-0.829c-0.046-0.093-0.138-0.226-0.276-0.397
			c-0.138-0.172-0.317-0.384-0.541-0.636l-10.609-11.852v4.85c0,2.509,0.028,4.23,0.086,5.162c0.058,0.933,0.186,1.524,0.386,1.774
			c0.161,0.195,0.356,0.334,0.587,0.42s0.545,0.129,0.944,0.129c0.161,0,0.317-0.008,0.472-0.021v0.463
			c-0.146-0.008-0.364-0.019-0.656-0.033c-1.02-0.049-1.745-0.074-2.175-0.074c-0.353,0-1.017,0.025-1.991,0.074
			c-0.321,0.015-0.56,0.025-0.713,0.033v-0.463c0.046,0.008,0.096,0.014,0.15,0.016c0.054,0.005,0.13,0.006,0.229,0.006
			c0.269,0,0.517-0.049,0.742-0.145c0.226-0.098,0.401-0.231,0.524-0.404c0.191-0.265,0.317-0.936,0.38-2.01
			c0.061-1.076,0.092-2.718,0.092-4.927v-4.184c0-1.091-0.121-1.841-0.363-2.253s-0.708-0.618-1.397-0.618
			c-0.085,0-0.203,0.007-0.357,0.022v-0.463c0.023,0.008,0.062,0.012,0.115,0.012c0.905,0.071,1.58,0.107,2.025,0.107
			c0.215,0,0.488-0.012,0.822-0.035c0.334-0.022,0.682-0.051,1.041-0.082c0.123,0.28,0.289,0.569,0.501,0.864
			c0.211,0.296,0.517,0.671,0.915,1.125l8.724,9.797v-3.85c0-2.438-0.021-4.149-0.063-5.136c-0.042-0.985-0.14-1.586-0.293-1.801
			c-0.146-0.207-0.338-0.353-0.575-0.436c-0.237-0.082-0.556-0.124-0.955-0.124l-0.241,0.022v-0.463
			c0.683,0.043,1.205,0.074,1.57,0.092c0.364,0.018,0.665,0.026,0.903,0.026c0.268,0,0.627-0.012,1.076-0.034
			c0.448-0.023,0.957-0.052,1.524-0.084L241.022,260.811L241.022,260.811z"/>
		<path fill="#004B70" d="M268.003,275.77c-0.063,0-0.165-0.006-0.312-0.021c-1.135-0.057-2.014-0.086-2.635-0.086
			c-0.521,0-1.385,0.029-2.589,0.086c-0.207,0.007-0.364,0.014-0.472,0.021v-0.461c0.068,0,0.152,0.004,0.253,0.01
			c0.1,0.008,0.173,0.012,0.219,0.012c0.552,0,0.945-0.105,1.18-0.317c0.234-0.211,0.352-0.581,0.352-1.112
			c0-1.133-0.044-2.727-0.132-4.78c-0.089-2.054-0.201-4.132-0.34-6.232l-0.114,0.333l-4.833,9.69
			c-0.262,0.516-0.462,0.972-0.604,1.366c-0.142,0.394-0.255,0.82-0.34,1.279h-0.587c-0.054-0.236-0.138-0.498-0.253-0.785
			s-0.384-0.871-0.806-1.752l-4.604-9.582l-0.345-0.656l-0.127,1.764c-0.108,1.471-0.192,2.993-0.253,4.571
			c-0.062,1.577-0.093,3.062-0.093,4.452c0,0.688,0.125,1.154,0.374,1.397c0.249,0.244,0.711,0.366,1.388,0.366
			c0.084,0,0.203-0.007,0.356-0.021v0.463c-0.085-0.008-0.211-0.015-0.38-0.022c-1.082-0.058-1.86-0.086-2.336-0.086
			c-0.437,0-1.124,0.024-2.06,0.075c-0.238,0.014-0.414,0.025-0.529,0.031v-0.461c0.161,0.014,0.28,0.021,0.356,0.021
			c0.377,0,0.674-0.05,0.893-0.151c0.219-0.1,0.393-0.269,0.523-0.505c0.139-0.265,0.28-1.463,0.427-3.592
			c0.022-0.272,0.038-0.474,0.046-0.603l0.229-3.291c0.023-0.279,0.088-1.105,0.196-2.479c0.107-1.373,0.161-2.203,0.161-2.49
			c0-0.494-0.123-0.856-0.368-1.086c-0.246-0.229-0.633-0.344-1.162-0.344c-0.077,0-0.157,0.007-0.242,0.021v-0.461
			c0.069,0.006,0.173,0.014,0.312,0.021c0.951,0.065,1.596,0.097,1.933,0.097c0.238,0,0.543-0.012,0.915-0.035
			c0.372-0.022,0.75-0.051,1.133-0.082c-0.015,0.086-0.026,0.152-0.035,0.199c-0.008,0.047-0.011,0.088-0.011,0.124
			c0,0.396,0.314,1.23,0.944,2.503c0.1,0.209,0.176,0.367,0.229,0.475l4.132,8.379l3.647-7.271c0.853-1.696,1.36-2.741,1.525-3.137
			s0.247-0.712,0.247-0.949c0-0.036-0.004-0.077-0.013-0.124c-0.008-0.047-0.019-0.113-0.033-0.199
			c0.16,0.008,0.383,0.024,0.667,0.047c0.598,0.048,1.059,0.072,1.381,0.072c0.261,0,0.607-0.015,1.041-0.041
			c0.433-0.029,0.792-0.054,1.075-0.078v0.463c-0.076-0.015-0.153-0.022-0.229-0.022c-0.637,0-1.08,0.108-1.329,0.328
			c-0.249,0.219-0.374,0.597-0.374,1.135c0,0.208,0.017,0.706,0.052,1.495s0.075,1.566,0.121,2.334l0.23,3.958
			c0.092,1.478,0.163,2.529,0.213,3.156s0.098,1.049,0.144,1.264c0.069,0.323,0.201,0.548,0.397,0.679
			c0.196,0.129,0.493,0.193,0.892,0.193l0.357-0.021v0.457H268.003z"/>
		<path fill="#004B70" d="M289.575,275.77c-0.132-0.006-0.339-0.018-0.621-0.031c-1.052-0.051-1.826-0.075-2.325-0.075
			c-0.606,0-1.458,0.024-2.555,0.075c-0.33,0.014-0.579,0.024-0.748,0.031v-0.461c0.076,0.014,0.156,0.021,0.241,0.021
			c0.507,0,0.889-0.082,1.146-0.247s0.386-0.412,0.386-0.742c0-0.294-0.092-0.736-0.276-1.328c-0.184-0.591-0.567-1.619-1.15-3.08
			c-0.414-0.022-0.863-0.039-1.346-0.049c-0.483-0.011-1.014-0.016-1.589-0.016c-0.583,0-1.109,0.005-1.582,0.016
			c-0.472,0.012-0.884,0.027-1.236,0.049c-0.085,0.2-0.203,0.483-0.357,0.85c-0.79,1.922-1.185,3.107-1.185,3.56
			c0,0.33,0.128,0.577,0.386,0.742c0.257,0.165,0.639,0.247,1.145,0.247c0.077,0,0.157-0.007,0.242-0.021l-0.012,0.463
			c-0.46-0.037-0.915-0.063-1.364-0.082c-0.449-0.018-0.856-0.026-1.226-0.026c-0.361,0-0.766,0.009-1.214,0.026
			c-0.449,0.019-0.903,0.045-1.364,0.082l-0.012-0.463c0.077,0.015,0.156,0.021,0.241,0.021c0.346,0,0.674-0.105,0.984-0.316
			c0.312-0.212,0.57-0.512,0.777-0.898c0.284-0.523,0.84-1.76,1.669-3.71s2.235-5.339,4.223-10.163h1.657
			c1.104,3.097,2.123,5.91,3.055,8.441c0.933,2.531,1.602,4.307,2.008,5.324c0.192,0.48,0.425,0.821,0.696,1.022
			c0.272,0.2,0.627,0.301,1.064,0.301c0.084,0,0.165-0.007,0.242-0.021V275.77L289.575,275.77z M283.373,269.048l-2.405-6.829
			l-2.704,6.829c0.268,0.036,0.65,0.065,1.146,0.086c0.494,0.022,0.938,0.032,1.328,0.032c0.376,0,0.821-0.011,1.335-0.032
			C282.586,269.113,283.02,269.084,283.373,269.048z"/>
		<path fill="#004B70" d="M310.192,275.727l-0.345,0.043c-0.308,0.037-0.585,0.063-0.834,0.082
			c-0.249,0.018-0.485,0.026-0.708,0.026c-0.783,0-1.427-0.114-1.934-0.344c-0.506-0.229-0.959-0.627-1.357-1.194
			c-0.238-0.33-0.568-0.803-0.99-1.42c-0.138-0.201-0.242-0.352-0.311-0.452l-1.06-1.549c-0.36-0.517-0.662-0.938-0.903-1.269
			s-0.396-0.53-0.466-0.603c-0.269,0.036-0.573,0.065-0.915,0.086c-0.341,0.022-0.681,0.032-1.018,0.032h-0.702v2.635
			c0,1.514,0.113,2.483,0.339,2.909c0.227,0.427,0.7,0.64,1.421,0.64c0.101,0,0.174-0.002,0.225-0.005
			c0.05-0.004,0.094-0.005,0.132-0.005v0.452c-0.063,0-0.154-0.004-0.276-0.011c-1.366-0.065-2.336-0.098-2.91-0.098
			c-0.568,0-1.534,0.032-2.9,0.098c-0.131,0.007-0.223,0.011-0.276,0.011v-0.483c0.038,0.006,0.095,0.012,0.167,0.016
			c0.073,0.004,0.174,0.005,0.306,0.005c0.675,0,1.117-0.228,1.329-0.683c0.211-0.455,0.315-1.364,0.315-2.727v-8.044
			c0-1.319-0.098-2.163-0.293-2.533c-0.196-0.368-0.646-0.554-1.352-0.554c-0.101,0-0.174,0.002-0.22,0.005
			c-0.046,0.004-0.092,0.009-0.138,0.017v-0.463l0.138,0.012c1.281,0.071,2.218,0.107,2.809,0.107c0.391,0,0.941-0.02,1.65-0.059
			c0.71-0.039,1.26-0.059,1.651-0.059c1.771,0,3.216,0.377,4.333,1.135c1.116,0.757,1.674,1.736,1.674,2.94
			c0,0.839-0.265,1.597-0.794,2.275c-0.529,0.678-1.323,1.278-2.382,1.801l2.818,3.968c0.867,1.204,1.514,1.983,1.939,2.334
			c0.426,0.352,0.919,0.527,1.479,0.527h0.357L310.192,275.727L310.192,275.727z M304.414,264.757c0-1.075-0.391-1.95-1.174-2.624
			s-1.803-1.011-3.061-1.011c-0.23,0-0.479,0.011-0.742,0.032c-0.265,0.021-0.512,0.047-0.742,0.074
			c-0.016,0.847-0.026,1.763-0.035,2.748c-0.008,0.986-0.011,2.407-0.011,4.265c0.092,0,0.227,0.007,0.403,0.021
			c0.614,0.043,1.104,0.065,1.473,0.065c0.522,0,0.907-0.004,1.157-0.011c0.249-0.008,0.455-0.019,0.616-0.032
			c0.697-0.38,1.226-0.867,1.582-1.463C304.237,266.227,304.414,265.539,304.414,264.757z"/>
		<path fill="#004B70" d="M321.155,275.77c-0.054,0-0.138-0.004-0.253-0.011c-1.381-0.065-2.397-0.097-3.049-0.097
			c-0.644,0-1.657,0.031-3.038,0.097c-0.123,0.007-0.207,0.011-0.253,0.011v-0.461c0.038,0.006,0.086,0.012,0.144,0.016
			c0.059,0.004,0.167,0.005,0.328,0.005c0.729,0,1.204-0.211,1.428-0.636c0.222-0.422,0.334-1.387,0.334-2.893v-7.926
			c0-1.334-0.104-2.182-0.312-2.543c-0.207-0.362-0.689-0.543-1.45-0.543c-0.1,0-0.173,0.002-0.219,0.005
			c-0.046,0.004-0.092,0.009-0.138,0.017v-0.463c0.054,0.008,0.13,0.012,0.229,0.012c1.412,0.071,2.395,0.107,2.946,0.107
			c0.568,0,1.534-0.031,2.9-0.097c0.123-0.007,0.219-0.015,0.288-0.021v0.461c-0.047-0.007-0.093-0.012-0.139-0.016
			s-0.119-0.005-0.219-0.005c-0.76,0-1.243,0.181-1.45,0.543s-0.311,1.21-0.311,2.543v7.926c0,1.507,0.11,2.47,0.334,2.894
			c0.222,0.423,0.697,0.635,1.427,0.635c0.161,0,0.27-0.002,0.328-0.005c0.058-0.005,0.104-0.009,0.144-0.017L321.155,275.77
			L321.155,275.77z"/>
		<path fill="#004B70" d="M340.483,272.576c-0.223,0.624-0.411,1.195-0.563,1.715c-0.154,0.52-0.28,1.013-0.381,1.479
			c-0.283-0.006-0.706-0.018-1.266-0.031c-1.771-0.051-3.195-0.075-4.269-0.075c-1.504,0-3.553,0.032-6.146,0.097l-0.219,0.012
			v-0.463c0.038,0.008,0.094,0.014,0.167,0.017c0.073,0.004,0.174,0.005,0.305,0.005c0.675,0,1.118-0.229,1.329-0.684
			s0.316-1.363,0.316-2.726v-8.044c0-1.319-0.099-2.163-0.293-2.533c-0.196-0.369-0.646-0.554-1.353-0.554
			c-0.1,0-0.173,0.002-0.219,0.005c-0.046,0.004-0.092,0.009-0.138,0.016v-0.451l0.368,0.011c2.73,0.136,4.69,0.204,5.88,0.204
			c0.598,0,1.355-0.02,2.272-0.057s1.885-0.09,2.906-0.158c0,0.436,0.019,0.901,0.057,1.398s0.101,1.07,0.185,1.721l-0.473,0.064
			c-0.314-1.004-0.704-1.62-1.168-1.85s-1.409-0.345-2.837-0.345c-0.514,0-1.042,0.005-1.582,0.017
			c-0.541,0.011-1.019,0.027-1.433,0.048c-0.016,0.631-0.027,1.364-0.035,2.198c-0.008,0.836-0.011,2.113-0.011,3.834
			c0.184,0.022,0.37,0.039,0.558,0.049c0.188,0.011,0.394,0.016,0.616,0.016h2.117c1.097,0,1.847-0.1,2.25-0.301
			c0.402-0.201,0.635-0.591,0.696-1.172l0.472,0.043c-0.054,0.258-0.094,0.543-0.121,0.855c-0.027,0.312-0.04,0.65-0.04,1.016
			c0,0.351,0.013,0.695,0.04,1.031c0.027,0.338,0.067,0.688,0.121,1.055l-0.472,0.054c-0.062-0.703-0.294-1.172-0.696-1.409
			c-0.403-0.236-1.153-0.354-2.25-0.354h-2.117c-0.23,0-0.439,0.005-0.627,0.016c-0.188,0.011-0.37,0.027-0.547,0.048
			c0,0.961,0.009,2.033,0.029,3.217c0.019,1.183,0.048,2.2,0.086,3.054c0.528,0.057,1.073,0.102,1.634,0.134
			c0.56,0.032,1.074,0.048,1.542,0.048c1.473,0,2.529-0.149,3.17-0.446c0.64-0.297,1.195-0.955,1.663-1.973L340.483,272.576z"/>
		<path fill="#004B70" d="M373.835,272.242c-0.161,0.258-0.364,0.678-0.61,1.258c-0.246,0.581-0.434,1.079-0.564,1.495
			c-0.667,0.315-1.44,0.559-2.318,0.731c-0.878,0.172-1.755,0.258-2.629,0.258c-2.563,0-4.618-0.697-6.168-2.092
			c-1.551-1.395-2.325-3.265-2.325-5.608c0-2.423,0.806-4.388,2.417-5.894c1.61-1.506,3.713-2.258,6.306-2.258
			c0.898,0,1.785,0.074,2.664,0.221c0.878,0.146,1.736,0.367,2.572,0.66c-0.016,0.129-0.027,0.273-0.034,0.43
			c-0.008,0.158-0.011,0.309-0.011,0.453c0,0.379,0.021,0.797,0.063,1.252s0.099,0.881,0.167,1.274l-0.587,0.118
			c-0.207-1.176-0.742-2.076-1.604-2.699c-0.863-0.624-2.017-0.936-3.458-0.936c-1.927,0-3.39,0.588-4.391,1.764
			s-1.502,2.9-1.502,5.173c0,2.115,0.587,3.855,1.761,5.222c1.175,1.365,2.708,2.049,4.604,2.049c1.089,0,2.096-0.274,3.021-0.823
			c0.925-0.548,1.645-1.304,2.158-2.265L373.835,272.242z"/>
		<path fill="#004B70" d="M396.937,268.059c0,2.209-0.8,4.082-2.399,5.619c-1.6,1.538-3.55,2.307-5.852,2.307
			c-2.432,0-4.415-0.745-5.949-2.236c-1.535-1.491-2.302-3.389-2.302-5.689c0-2.18,0.811-4.045,2.434-5.598
			c1.623-1.552,3.563-2.328,5.817-2.328c2.401,0,4.377,0.751,5.926,2.253C396.161,263.889,396.937,265.779,396.937,268.059z
			 M394.348,268.5c0-2.294-0.545-4.133-1.634-5.518c-1.089-1.383-2.51-2.075-4.259-2.075c-1.572,0-2.868,0.614-3.89,1.844
			c-1.02,1.229-1.531,2.853-1.531,4.866c0,2.294,0.543,4.124,1.628,5.49c1.086,1.365,2.508,2.049,4.265,2.049
			c1.58,0,2.879-0.608,3.895-1.823C393.84,272.119,394.348,270.507,394.348,268.5z"/>
		<path fill="#004B70" d="M418.257,260.811c-0.077-0.015-0.154-0.022-0.23-0.022c-0.345,0-0.675,0.106-0.99,0.317
			c-0.314,0.211-0.574,0.511-0.782,0.897c-0.322,0.608-1.428,3.229-3.314,7.862c-1.036,2.545-1.853,4.549-2.451,6.012h-1.3
			c-0.875-2.459-1.765-4.886-2.67-7.281c-0.905-2.395-1.745-4.556-2.521-6.484c-0.184-0.473-0.413-0.813-0.689-1.017
			s-0.633-0.307-1.07-0.307c-0.077,0-0.157,0.007-0.242,0.022v-0.463c0.139,0.008,0.342,0.019,0.61,0.032
			c1.066,0.058,1.845,0.086,2.336,0.086c0.752,0,1.776-0.036,3.073-0.108l0.115-0.01v0.461c-0.077-0.014-0.157-0.021-0.242-0.021
			c-0.491,0-0.869,0.077-1.134,0.23c-0.266,0.154-0.397,0.371-0.397,0.651c0,0.38,0.184,1.05,0.552,2.011
			c0.069,0.188,0.123,0.326,0.161,0.42l3.418,9.131c0.376-0.883,0.979-2.359,1.808-4.432l0.426-1.074l0.472-1.162
			c1.097-2.731,1.646-4.322,1.646-4.774c0-0.337-0.126-0.588-0.381-0.753c-0.253-0.165-0.637-0.247-1.15-0.247
			c-0.077,0-0.154,0.007-0.23,0.022v-0.463c0.422,0.036,0.885,0.065,1.388,0.086c0.502,0.022,0.941,0.032,1.317,0.032
			c0.337,0,0.702-0.009,1.093-0.026c0.392-0.019,0.853-0.049,1.382-0.092L418.257,260.811L418.257,260.811z"/>
		<path fill="#004B70" d="M435.698,272.576c-0.223,0.624-0.411,1.195-0.563,1.715c-0.154,0.52-0.28,1.013-0.38,1.479
			c-0.284-0.006-0.706-0.018-1.267-0.031c-1.771-0.051-3.194-0.075-4.269-0.075c-1.504,0-3.553,0.032-6.146,0.097l-0.219,0.012
			v-0.463c0.038,0.008,0.094,0.014,0.167,0.017c0.073,0.004,0.174,0.005,0.305,0.005c0.676,0,1.118-0.229,1.329-0.684
			s0.316-1.363,0.316-2.726v-8.044c0-1.319-0.099-2.163-0.293-2.533c-0.196-0.369-0.646-0.554-1.353-0.554
			c-0.1,0-0.173,0.002-0.219,0.005c-0.046,0.004-0.092,0.009-0.138,0.016v-0.451l0.368,0.011c2.73,0.136,4.69,0.204,5.88,0.204
			c0.598,0,1.355-0.02,2.272-0.057s1.886-0.09,2.906-0.158c0,0.436,0.02,0.901,0.059,1.398c0.037,0.497,0.1,1.07,0.184,1.721
			l-0.472,0.064c-0.315-1.004-0.704-1.62-1.168-1.85c-0.465-0.229-1.41-0.345-2.838-0.345c-0.514,0-1.042,0.005-1.581,0.017
			c-0.541,0.011-1.02,0.027-1.434,0.048c-0.016,0.631-0.027,1.364-0.035,2.198c-0.008,0.836-0.011,2.113-0.011,3.834
			c0.184,0.022,0.37,0.039,0.558,0.049c0.188,0.011,0.394,0.016,0.616,0.016h2.117c1.097,0,1.847-0.1,2.25-0.301
			s0.635-0.591,0.696-1.172l0.472,0.043c-0.054,0.258-0.094,0.543-0.121,0.855c-0.027,0.312-0.04,0.65-0.04,1.016
			c0,0.351,0.013,0.695,0.04,1.031c0.027,0.338,0.067,0.688,0.121,1.055l-0.472,0.054c-0.062-0.703-0.293-1.172-0.696-1.409
			c-0.403-0.236-1.153-0.354-2.25-0.354h-2.117c-0.229,0-0.438,0.005-0.627,0.016c-0.188,0.011-0.37,0.027-0.547,0.048
			c0,0.961,0.009,2.033,0.029,3.217c0.019,1.183,0.048,2.2,0.086,3.054c0.528,0.057,1.074,0.102,1.634,0.134
			s1.074,0.048,1.542,0.048c1.473,0,2.53-0.149,3.17-0.446c0.641-0.297,1.195-0.955,1.663-1.973L435.698,272.576z"/>
	</g>
</g>
</svg>
