<?xml version="1.0" encoding="utf-8"?>
<!-- Generator: Adobe Illustrator 16.0.0, SVG Export Plug-In . SVG Version: 6.00 Build 0)  -->
<!DOCTYPE svg PUBLIC "-//W3C//DTD SVG 1.1//EN" "http://www.w3.org/Graphics/SVG/1.1/DTD/svg11.dtd">
<svg version="1.1" id="Layer_1" xmlns="http://www.w3.org/2000/svg" xmlns:xlink="http://www.w3.org/1999/xlink" x="0px" y="0px"
	 width="600px" height="450px" viewBox="0 0 600 450" enable-background="new 0 0 600 450" xml:space="preserve">
<rect x="-5.833" y="-10.5" fill="#86C8E2" width="615.999" height="470"/>
<g id="Layer_3">
</g>
<g id="Layer_3_1_">
</g>
<g id="Layer_2_1_">
</g>
<g>
	<path fill="#007AC1" d="M137.888,191.728l19.717,39.514l19.789-39.514l11.01,49.751h-6.188l-6.98-31.836h-0.144l-17.486,33.771
		l-17.415-33.771h-0.144l-6.98,31.836h-6.188L137.888,191.728z"/>
	<path fill="#007AC1" d="M197.754,228.495c0,4.932,0.648,9.177,7.628,9.177s7.628-4.245,7.628-9.177V212.14h5.757v16.917
		c0,7.803-3.382,13.233-13.385,13.233s-13.385-5.431-13.385-13.233V212.14h5.757V228.495z"/>
	<path fill="#007AC1" d="M232.005,241.479h-5.757v-51.5h5.757V241.479z"/>
	<path fill="#007AC1" d="M245.315,216.323h0.144c2.806-3.246,6.98-4.994,11.657-4.994c9.931,0,16.191,7.429,16.191,15.543
		c0,8.365-6.117,15.419-16.263,15.419c-4.605,0-8.851-1.748-11.585-4.932h-0.144v20.6h-5.757V212.14h5.757V216.323z
		 M245.028,226.498c0,5.743,3.886,11.174,11.082,11.174c7.412,0,11.298-5.182,11.298-11.111c0-5.868-4.246-10.612-11.37-10.612
		C249.345,215.948,245.028,221.004,245.028,226.498z"/>
	<path fill="#007AC1" d="M284.242,189.98v25.594l0.144,0.125c2.375-2.809,5.469-4.37,9.643-4.37c9.354,0,11.514,5.868,11.514,12.735
		v17.416h-5.757v-16.542c0-4.744-0.432-8.989-7.125-8.989c-7.916,0-8.419,6.367-8.419,11.61v13.921h-5.757v-51.5H284.242z"/>
	<path fill="#007AC1" d="M344.47,241.479h-5.757v-4.058h-0.144c-2.95,3.246-6.908,4.869-11.658,4.869
		c-9.93,0-16.19-7.304-16.19-15.419c0-8.364,6.116-15.543,16.263-15.543c4.605,0,8.779,1.873,11.586,4.994h0.144v-4.183h5.757
		V241.479z M316.621,226.498c0,5.743,3.886,11.174,11.082,11.174c7.412,0,11.298-5.182,11.298-11.111
		c0-5.868-4.246-10.612-11.37-10.612C320.939,215.948,316.621,221.004,316.621,226.498z"/>
	<path fill="#FFFFFF" d="M356.053,238.671h13.816v2.809h-17.271v-47.067h3.454V238.671z"/>
	<path fill="#FFFFFF" d="M402.177,241.479h-3.238v-5.182h-0.144c-2.447,3.684-7.771,5.806-12.665,5.806
		c-10.075,0-16.407-6.804-16.407-15.231c0-8.427,6.261-14.856,16.263-14.856c5.109,0,10.003,1.998,12.81,5.618h0.144v-4.994h3.238
		V241.479z M372.961,226.872c0,6.617,5.037,12.61,13.097,12.61c8.491,0,13.097-5.993,13.097-12.922
		c0-6.68-5.253-11.923-13.313-11.923C378.214,214.637,372.961,220.63,372.961,226.872z"/>
	<path fill="#FFFFFF" d="M413.616,217.134h0.144c1.943-3.184,5.541-5.119,9.858-5.119c8.563,0,10.938,4.619,10.938,12.048v17.416
		h-3.238v-17.416c0-5.181-0.72-9.426-7.987-9.426c-8.348,0-9.715,6.742-9.715,12.61v14.232h-3.238v-28.84h3.238V217.134z"/>
	<path fill="#FFFFFF" d="M468.735,236.298h-0.144c-2.447,3.684-7.772,5.806-12.665,5.806c-10.074,0-16.407-6.804-16.407-15.231
		c0-8.427,6.261-14.856,16.263-14.856c5.109,0,10.003,1.998,12.81,5.618h0.144V189.98h3.238v51.5h-3.238V236.298z M468.95,226.561
		c0-6.68-5.253-11.923-13.313-11.923c-7.628,0-12.881,5.993-12.881,12.235c0,6.617,5.037,12.61,13.097,12.61
		C464.345,239.482,468.95,233.489,468.95,226.561z"/>
</g>
</svg>
