<?xml version="1.0" encoding="utf-8"?>
<!-- Generator: Adobe Illustrator 17.0.0, SVG Export Plug-In . SVG Version: 6.00 Build 0)  -->
<!DOCTYPE svg PUBLIC "-//W3C//DTD SVG 1.1//EN" "http://www.w3.org/Graphics/SVG/1.1/DTD/svg11.dtd">
<svg version="1.1" id="Layer_2" xmlns="http://www.w3.org/2000/svg" xmlns:xlink="http://www.w3.org/1999/xlink" x="0px" y="0px"
	 width="600px" height="450px" viewBox="0 0 600 450" enable-background="new 0 0 600 450" xml:space="preserve">
<rect x="-7.5" y="-12.5" fill="#00588A" width="616" height="470"/>
<g>
	<path fill="#FFFFFF" d="M320.455,267.954c1.085-1.981,2.058-3.757,3.063-5.591c0.533,0.069,1.046,0.139,1.559,0.202
		c3.691,0.448,7.389,0.501,11.093,0.195c4.562-0.378,8.695-1.83,12.218-4.846c2.054-1.758,3.549-3.939,4.842-6.271
		c1.932-3.484,3.247-7.232,4.548-10.976c2.495-7.181,4.749-14.439,6.754-21.774c0.085-0.309,0.143-0.625,0.246-1.082
		c-4.371-0.015-8.645-0.029-13.043-0.044c0.431-1.429,0.816-2.704,1.224-4.056c4.379,0,8.727,0,13.153,0
		c2.181-7.512,4.344-14.958,6.506-22.403c-1.154-0.348-7.469,0.449-12.541,1.532c-4.105,0.877-8.115,2.073-12.119,3.651
		c-0.447-1.111-0.87-2.16-1.334-3.312c0.568-0.306,1.099-0.609,1.644-0.883c5.119-2.57,10.494-4.441,16.039-5.841
		c5.794-1.462,11.676-2.406,17.617-3.029c9.831-1.031,19.694-1.225,29.566-1.148c5.705,0.045,11.41,0.147,17.115,0.226
		c0.413,0.006,0.827,0.037,1.409,0.064c-0.909,2.739-1.771,5.333-2.621,7.893c-1.005,0-1.917,0.025-2.826-0.004
		c-5.603-0.176-11.205-0.436-16.81-0.529c-5.179-0.085-10.362-0.015-15.543,0.026c-2.163,0.017-4.326,0.129-6.488,0.213
		c-0.927,0.036-0.932,0.052-1.21,0.951c-2.237,7.23-4.472,14.461-6.705,21.692c-0.075,0.243-0.119,0.495-0.214,0.898
		c3.915,0.01,7.734,0.023,11.553,0.028c3.826,0.005,7.652,0.001,11.595,0.001c-0.31,1.015-0.569,1.888-0.842,2.756
		c-2.269,7.22-4.551,14.435-6.799,21.662c-0.309,0.994-0.551,2.032-0.648,3.065c-0.137,1.463,0.686,2.263,2.173,2.268
		c1.271,0.005,2.448-0.408,3.601-0.892c0.599-0.252,1.188-0.53,1.855-0.83c0.514,0.882,1.004,1.722,1.564,2.683
		c-0.19,0.129-0.358,0.231-0.513,0.351c-2.822,2.182-5.936,3.724-9.491,4.262c-1.34,0.203-2.684,0.156-4.001-0.197
		c-3.026-0.812-4.681-3.229-4.489-6.527c0.103-1.779,0.479-3.51,1.017-5.197c1.803-5.649,3.645-11.286,5.47-16.928
		c0.24-0.741,0.465-1.487,0.723-2.317c-4.747,0-9.388,0-14.119,0c-0.302,0.906-0.612,1.83-0.918,2.755
		c-2.14,6.471-4.282,12.942-7.05,19.183c-2.174,4.902-4.719,9.586-8.088,13.786c-5.481,6.835-12.552,11.105-21.061,13.063
		c-5.114,1.177-10.302,1.508-15.531,1.377C322.623,268.036,321.648,267.995,320.455,267.954z"/>
	<path fill="#FFFFFF" d="M161.95,217.4c-4.067,0-7.992,0-12.091,0c0.435-1.436,0.826-2.729,1.236-4.085c4.081,0,8.102,0,12.206,0
		c2.176-7.502,4.335-14.946,6.494-22.391c-1.214-0.335-7.347,0.439-12.478,1.523c-4.111,0.868-8.12,2.074-12.153,3.65
		c-0.526-1.063-0.906-2.155-1.333-3.306c0.388-0.215,0.722-0.411,1.066-0.587c6.134-3.145,12.625-5.277,19.335-6.778
		c5.67-1.268,11.407-2.075,17.191-2.604c6.666-0.61,13.347-0.909,20.037-0.908c8.132,0.001,16.263,0.131,24.395,0.204
		c0.388,0.004,0.776,0,1.167,0c-0.025,0.792-2.01,6.935-2.592,8.078c-14.098-0.784-28.245-0.914-42.444-0.383
		c-2.429,7.85-4.826,15.596-7.272,23.5c7.788,0,15.411,0,23.172,0c-0.101,0.415-0.152,0.688-0.235,0.951
		c-2.402,7.66-4.811,15.316-7.204,22.979c-0.302,0.967-0.527,1.959-0.768,2.945c-0.069,0.283-0.093,0.584-0.092,0.877
		c0.004,1.156,0.693,1.978,1.85,2c0.837,0.016,1.707-0.104,2.51-0.342c1.094-0.323,2.137-0.816,3.342-1.292
		c0.473,0.811,0.973,1.668,1.528,2.618c-0.206,0.152-0.365,0.265-0.519,0.384c-2.795,2.161-5.877,3.697-9.397,4.239
		c-1.371,0.211-2.745,0.171-4.097-0.194c-2.675-0.723-4.279-2.696-4.449-5.459c-0.092-1.491,0.096-2.958,0.51-4.376
		c0.808-2.766,1.679-5.514,2.553-8.26c1.271-3.996,2.568-7.984,3.851-11.977c0.087-0.271,0.145-0.55,0.237-0.906
		c-4.724,0-9.34,0-14.056,0c-0.121,0.329-0.258,0.688-0.384,1.05c-1.841,5.291-3.607,10.61-5.542,15.866
		c-1.837,4.99-4.088,9.801-6.939,14.308c-2.633,4.162-5.768,7.879-9.7,10.884c-4.812,3.677-10.27,5.869-16.173,7.037
		c-5.376,1.064-10.808,1.18-16.259,0.969c-0.162-0.006-0.324-0.036-0.482-0.073c-0.056-0.013-0.099-0.078-0.219-0.179
		c0.962-1.759,1.933-3.532,2.945-5.382c0.364,0.05,0.709,0.101,1.056,0.143c4.808,0.593,9.623,0.733,14.403-0.145
		c5.219-0.959,9.453-3.556,12.536-7.946c2.17-3.09,3.62-6.525,4.919-10.035c3.12-8.425,5.751-17.005,8.149-25.66
		C161.828,218.089,161.863,217.831,161.95,217.4z"/>
	<path fill="#FFFFFF" d="M233.147,247.675c-3.095,0-6.101,0-9.281,0c0.18-0.58,0.323-1.064,0.479-1.544
		c2.742-8.409,5.486-16.817,8.224-25.227c0.192-0.591,0.391-1.188,0.493-1.798c0.283-1.686-0.464-2.582-2.172-2.613
		c-0.682-0.013-1.367,0.074-2.185,0.124c0.209-0.965,0.536-1.865,0.957-2.723c0.094-0.191,0.426-0.282,0.664-0.383
		c1.552-0.656,3.175-1.006,4.851-1.164c2.298-0.217,4.086,0.671,5.495,2.433c0.303,0.379,0.591,0.772,0.916,1.199
		c0.323-0.169,0.608-0.316,0.89-0.468c2.878-1.542,5.877-2.745,9.13-3.211c1.744-0.25,3.471-0.17,5.134,0.463
		c2.711,1.032,4.229,3.002,4.491,5.895c0.158,1.749-0.048,3.476-0.554,5.153c-1.588,5.269-3.201,10.53-4.801,15.794
		c-0.105,0.344-0.212,0.69-0.28,1.043c-0.282,1.464,0.504,2.468,2.004,2.457c0.709-0.005,1.438-0.134,2.12-0.336
		c0.937-0.279,1.837-0.681,2.867-1.073c0.429,0.78,0.863,1.569,1.269,2.307c-0.084,0.153-0.101,0.226-0.147,0.264
		c-3.102,2.533-6.496,4.445-10.584,4.753c-0.901,0.068-1.847-0.005-2.727-0.207c-3.255-0.749-4.934-3.19-4.4-6.483
		c0.266-1.64,0.709-3.261,1.189-4.856c1.34-4.454,2.754-8.885,4.105-13.335c0.274-0.904,0.439-1.848,0.583-2.785
		c0.319-2.072-0.707-3.311-2.812-3.311c-0.904,0-1.826,0.163-2.706,0.385c-1.438,0.363-2.742,1.063-4.01,1.829
		c-0.454,0.274-0.694,0.636-0.851,1.136c-2.67,8.467-5.356,16.929-8.039,25.391C233.372,247.064,233.266,247.338,233.147,247.675z"
		/>
	<path fill="#FFFFFF" d="M274.781,232.489c-0.463,1.564-0.646,3.138-0.503,4.751c0.02,0.228,0.065,0.454,0.102,0.68
		c0.426,2.603,2.182,4.334,4.795,4.783c2.478,0.426,4.835-0.047,7.113-0.967c1.334-0.538,2.61-1.219,3.911-1.836
		c0.289-0.137,0.575-0.279,0.932-0.453c0.657,1.038,1.282,2.025,2.043,3.227c-0.247,0.157-0.517,0.288-0.739,0.477
		c-3.714,3.162-7.958,5.159-12.817,5.736c-1.825,0.217-3.672,0.195-5.481-0.207c-4.729-1.052-7.494-4.075-8.561-8.712
		c-0.782-3.397-0.469-6.781,0.371-10.123c1.2-4.771,3.414-8.995,6.97-12.443c3.599-3.492,7.88-5.346,12.949-5.181
		c1.751,0.057,3.449,0.4,5.044,1.15c3.088,1.452,4.753,3.918,5.093,7.284c0.209,2.068-0.175,4.052-1.049,5.932
		c-1.396,3-3.842,4.733-6.936,5.652c-2.744,0.815-5.556,0.875-8.381,0.689C278.072,232.823,276.51,232.647,274.781,232.489z
		 M275.82,228.203c2.542,0.629,6.186,0.492,8.381-0.265c1.474-0.509,2.695-1.353,3.502-2.707c0.956-1.604,1.292-3.362,1.059-5.201
		c-0.255-2.009-1.754-3.091-3.756-2.836c-1.346,0.171-2.497,0.746-3.539,1.582c-1.243,0.997-2.217,2.228-3.053,3.57
		C277.286,224.159,276.394,226.079,275.82,228.203z"/>
	<path fill="#FFFFFF" d="M462.418,217.974c-2.006,0-3.83,0-5.815,0c0.332-1.457,0.829-2.718,1.263-4.096c2,0,3.988,0,6.037,0
		c1.068-3.272,2.112-6.47,3.153-9.662c2.983,0,5.884,0,8.936,0c-1.002,3.209-1.973,6.32-2.963,9.492
		c0.791,0.257,1.539,0.107,2.269,0.133c0.753,0.027,1.508,0.006,2.262,0.006s1.508,0,2.263,0c0.751,0,1.501,0,2.426,0
		c-0.19,0.597-0.341,1.079-0.498,1.559c-0.213,0.654-0.464,1.298-0.637,1.962c-0.133,0.511-0.408,0.665-0.915,0.658
		c-1.77-0.023-3.541-0.009-5.312-0.009c-1.047,0-2.093,0-3.183,0c-0.115,0.269-0.233,0.495-0.31,0.735
		c-1.956,6.081-3.93,12.156-5.838,18.251c-0.358,1.143-0.567,2.364-0.627,3.559c-0.08,1.589,0.796,2.56,2.353,2.928
		c1.504,0.355,3.014,0.247,4.479-0.135c1.898-0.495,3.764-1.118,5.773-1.725c0.494,0.763,0.983,1.666,1.457,2.684
		c-0.502,0.354-0.962,0.712-1.454,1.02c-3.466,2.176-7.191,3.619-11.309,3.906c-1.848,0.129-3.666-0.054-5.433-0.636
		c-3.33-1.095-5.204-3.631-5.285-7.137c-0.036-1.558,0.225-3.072,0.705-4.545c1.93-5.917,3.875-11.83,5.814-17.744
		C462.14,218.841,462.249,218.5,462.418,217.974z"/>
	<path fill="#FFFFFF" d="M208.75,217.486c-2.126,0-4.112,0-6.243,0c0.46-1.438,0.877-2.738,1.309-4.089c2.122,0,4.214,0,6.425,0
		c1.06-3.212,2.113-6.403,3.18-9.634c2.935,0,5.84,0,8.9,0c-0.999,3.208-1.976,6.345-2.999,9.631c2.649,0,5.155,0,7.815,0
		c-0.474,1.448-0.898,2.742-1.348,4.118c-2.614,0-5.192,0-7.803,0c-0.497,1.545-0.97,3.007-1.438,4.471
		c-1.615,5.056-3.234,10.11-4.834,15.17c-0.236,0.747-0.431,1.515-0.551,2.289c-0.335,2.167,0.827,3.623,3.025,3.843
		c1.361,0.136,2.684-0.081,3.967-0.521c1.078-0.37,2.138-0.794,3.295-1.227c0.468,0.817,0.935,1.634,1.527,2.668
		c-0.228,0.146-0.486,0.286-0.717,0.462c-3.267,2.492-6.933,3.951-11.044,4.196c-1.684,0.1-3.338-0.15-4.903-0.829
		c-3.143-1.365-4.844-4.211-4.577-7.632c0.126-1.614,0.547-3.16,1.049-4.688c1.851-5.634,3.707-11.266,5.559-16.899
		C208.474,218.418,208.588,218.018,208.75,217.486z"/>
	<path fill="#FFFFFF" d="M317.975,244.42c0.897-1.198,1.699-2.269,2.536-3.386c0.298,0.192,0.539,0.346,0.779,0.5
		c2.002,1.288,4.151,2.122,6.572,1.944c0.738-0.054,1.5-0.229,2.183-0.512c2.198-0.913,3.212-2.952,2.726-5.278
		c-0.239-1.141-0.723-2.177-1.336-3.152c-0.785-1.249-1.617-2.467-2.415-3.708c-1.051-1.636-1.977-3.339-2.344-5.269
		c-0.688-3.614-0.088-6.929,2.509-9.687c1.553-1.649,3.533-2.576,5.71-3.1c4.27-1.026,8.325-0.306,12.238,1.532
		c0.086,0.04,0.16,0.106,0.349,0.234c-0.461,1.221-0.929,2.459-1.426,3.777c-0.439-0.136-0.806-0.251-1.174-0.363
		c-1.739-0.53-3.492-0.928-5.318-0.499c-0.413,0.097-0.827,0.211-1.218,0.372c-2.362,0.977-3.432,3.194-2.584,5.615
		c0.396,1.132,1.01,2.199,1.619,3.241c0.759,1.301,1.643,2.529,2.421,3.821c1.21,2.009,2.165,4.122,2.349,6.505
		c0.343,4.442-1.369,7.902-5.162,10.195c-4.222,2.552-8.696,2.616-13.241,0.894c-1.823-0.691-3.48-1.68-4.953-2.965
		C318.551,244.916,318.304,244.704,317.975,244.42z"/>
	<path fill="#FFFFFF" d="M323.106,214.456c-0.495,1.287-0.961,2.498-1.436,3.736c-1.127-0.289-2.157-0.61-3.21-0.809
		c-1.571-0.297-3.132-0.238-4.632,0.414c-2.218,0.964-3.217,3.09-2.533,5.417c0.403,1.371,1.171,2.555,1.919,3.751
		c0.99,1.583,2.013,3.149,2.934,4.772c0.896,1.58,1.457,3.291,1.607,5.12c0.318,3.9-1.011,7.122-4.152,9.451
		c-3.753,2.783-7.983,3.304-12.44,2.161c-2.476-0.635-4.715-1.783-6.669-3.453c-0.293-0.251-0.562-0.53-0.882-0.833
		c0.849-1.132,1.651-2.202,2.499-3.332c0.314,0.201,0.58,0.371,0.846,0.54c1.951,1.239,4.045,2.057,6.391,1.897
		c0.863-0.059,1.761-0.274,2.55-0.626c2.025-0.903,2.947-2.93,2.479-5.137c-0.284-1.34-0.923-2.518-1.656-3.65
		c-0.713-1.1-1.466-2.175-2.168-3.282c-1.183-1.867-2.161-3.818-2.435-6.058c-0.6-4.899,1.556-9.468,6.873-11.361
		c3.834-1.366,7.663-1.163,11.468,0.148c0.65,0.224,1.285,0.491,1.922,0.751C322.587,214.157,322.779,214.281,323.106,214.456z"/>
	<path fill="#FFFFFF" d="M454.826,214.729c-0.481,1.257-0.946,2.47-1.415,3.695c-1.206-0.296-2.334-0.621-3.482-0.841
		c-1.548-0.298-3.073-0.139-4.516,0.525c-2.073,0.953-3.069,3.024-2.384,5.211c0.338,1.08,0.876,2.114,1.444,3.1
		c0.768,1.333,1.673,2.585,2.481,3.896c1.14,1.85,2.071,3.786,2.434,5.964c0.757,4.551-1.2,8.779-5.219,11.076
		c-3.601,2.058-7.429,2.418-11.398,1.334c-2.432-0.664-4.636-1.797-6.561-3.445c-0.174-0.149-0.346-0.301-0.511-0.461
		c-0.093-0.09-0.168-0.198-0.327-0.391c0.807-1.076,1.623-2.162,2.476-3.299c0.315,0.205,0.581,0.383,0.851,0.554
		c2.162,1.369,4.474,2.168,7.077,1.846c2.158-0.267,3.816-1.561,4.28-3.387c0.326-1.285,0.183-2.566-0.397-3.739
		c-0.579-1.17-1.279-2.283-1.959-3.401c-0.799-1.315-1.687-2.579-2.441-3.919c-1.347-2.395-1.793-4.99-1.348-7.696
		c0.629-3.83,2.878-6.389,6.446-7.783c3.583-1.4,7.235-1.386,10.892-0.29c0.97,0.291,1.91,0.682,2.857,1.045
		C454.34,214.411,454.548,214.569,454.826,214.729z"/>
	<path fill="#FFFFFF" d="M431.733,219.035c-0.521-0.115-0.933-0.209-1.346-0.297c-3.563-0.765-6.745,0.072-9.602,2.283
		c-0.565,0.437-0.906,0.986-1.115,1.678c-2.451,8.119-4.922,16.232-7.391,24.345c-0.094,0.31-0.22,0.611-0.338,0.935
		c-3.079,0-6.12,0-9.272,0c0.082-0.325,0.134-0.597,0.22-0.859c2.688-8.215,5.385-16.428,8.06-24.647
		c0.282-0.866,0.56-1.763,0.631-2.663c0.153-1.923-0.875-2.949-2.795-2.958c-0.78-0.004-1.559-0.001-2.456-0.001
		c0.252-0.842,0.465-1.656,0.752-2.443c0.073-0.201,0.361-0.368,0.586-0.464c1.395-0.591,2.849-0.995,4.358-1.131
		c2.541-0.228,4.486,0.935,6.114,2.754c0.369,0.412,0.684,0.872,1.067,1.366c0.643-0.486,1.265-0.954,1.885-1.425
		c3.783-2.876,8.015-3.515,12.573-2.522c0.186,0.041,0.364,0.122,0.664,0.225C433.462,215.155,432.616,217.052,431.733,219.035z"/>
	<path fill="#FFFFFF" d="M398.901,208.586c-2.953-0.056-4.969-2.643-4.299-5.516c0.656-2.814,3.49-4.903,6.173-4.55
		c2.959,0.389,4.633,2.898,3.853,5.775C403.961,206.753,401.451,208.634,398.901,208.586z"/>
	<path fill="#FFFFFF" d="M195.927,208.211c-3.051,0.003-5.122-2.615-4.417-5.583c0.622-2.617,3.079-4.555,5.729-4.52
		c3.032,0.04,5.029,2.67,4.311,5.675C200.964,206.237,198.459,208.208,195.927,208.211z"/>
</g>
</svg>
