<?xml version="1.0" encoding="utf-8"?>
<!-- Generator: Adobe Illustrator 16.0.0, SVG Export Plug-In . SVG Version: 6.00 Build 0)  -->
<!DOCTYPE svg PUBLIC "-//W3C//DTD SVG 1.1//EN" "http://www.w3.org/Graphics/SVG/1.1/DTD/svg11.dtd">
<svg version="1.1" xmlns="http://www.w3.org/2000/svg" xmlns:xlink="http://www.w3.org/1999/xlink" x="0px" y="0px" width="600px"
	 height="450px" viewBox="0 0 600 450" enable-background="new 0 0 600 450" xml:space="preserve">
<g id="Layer_2">
	<rect x="-15.976" y="-9.384" fill="#4C4C4C" width="631.977" height="468.884"/>
</g>
<g id="Layer_1">
	<g id="Layer_1_1_" display="none">
		<g display="inline">
			<path fill="#F1CD34" d="M389.523,201.527L389.523,201.527v1.673h9.445v-5.337c0-2.668,2.424-4.822,5.404-4.822
				c2.985,0,5.4,2.154,5.4,4.822v13.378v11.668v0.131h9.451v-2.499v-19.014h0.002c1.771-0.028,2.219-1.096,0.986-2.398
				l-13.759-14.586c-1.251-1.321-3.268-1.311-4.496,0.019l-13.438,14.545C387.3,200.42,387.752,201.5,389.523,201.527z"/>
			<path fill="#FFFFFF" d="M419.224,237.717v-0.009v-1.681h-9.451v5.357c0,2.65-2.424,4.809-5.4,4.809
				c-2.98,0-5.404-2.158-5.404-4.809v-13.388v-12.183v-0.13h-9.445v4.549v17.475l-0.009,0.009c-1.762,0.012-2.214,1.088-0.988,2.393
				l13.766,14.578c1.241,1.328,3.262,1.311,4.495-0.011l13.438-14.547C421.445,238.813,420.996,237.729,419.224,237.717z"/>
			<path fill="#FFFFFF" d="M422.576,204.521L422.576,204.521h-1.675v9.455h5.355c2.651,0,4.811,2.418,4.811,5.405
				c0,2.974-2.159,5.396-4.811,5.396h-13.39h-11.663h-0.132v9.456h4.04h17.465v0.006c0.027,1.763,1.103,2.207,2.401,0.977
				l14.589-13.755c1.324-1.243,1.311-3.263-0.032-4.494l-14.529-13.437C423.686,202.304,422.609,202.756,422.576,204.521z"/>
			<path fill="#FFFFFF" d="M386.365,234.23h0.013h1.663v-9.455h-5.342c-2.661,0-4.809-2.422-4.809-5.396
				c0-2.986,2.147-5.405,4.809-5.405h13.388h11.668h0.123v-9.455h-4.031h-17.47l-0.013-0.009c-0.016-1.762-1.089-2.207-2.394-0.971
				l-14.583,13.749c-1.321,1.25-1.313,3.273,0.014,4.503l14.551,13.435C385.264,236.443,386.346,235.997,386.365,234.23z"/>
			<g>
				<path fill="#FFFFFF" d="M290.356,210.047c-2.69,1.686-2.671,3.033-2.671,3.315c0,0.289,0,3.557,0,3.557h0.019v21.587h8.434
					v-21.587h0.007c0,0,0-1.332,0-1.51c0-0.185,0.142-0.372,0.278-0.509c0.767-0.571,2.556-0.958,4.155-1.086
					c1.623-0.116,3.271,0.18,3.271,0.18l1.065-6.951C296.714,206.081,291.415,209.399,290.356,210.047z"/>
			</g>
			<g>
				<g>
					<path fill="#FFFFFF" d="M224.774,207.303L224.774,207.303c-0.29-0.073-0.6-0.138-0.905-0.192
						c-2.726-0.517-5.667-0.509-5.667-0.509s-2.956-0.008-5.677,0.509c-0.306,0.054-0.615,0.119-0.907,0.192l0,0
						c-3.608,0.804-6.31,4.023-6.31,7.874v6.781v1.561v6.779c0,3.856,2.7,7.067,6.31,7.872l0,0c0.292,0.073,0.603,0.137,0.907,0.198
						c2.722,0.517,5.677,0.509,5.677,0.509s2.941,0.008,5.667-0.509c0.306-0.062,0.615-0.126,0.905-0.198l0,0
						c3.609-0.806,6.31-4.016,6.31-7.872v-6.779v-1.561v-6.781C231.083,211.326,228.383,208.108,224.774,207.303z M222.752,222.238
						v0.996v0.285v6.04c0,1.777-1.44,3.219-3.22,3.219h-1.331h-1.341c-1.775,0-3.225-1.44-3.225-3.219v-6.04v-0.285v-0.996v-0.28
						v-6.041c0-1.783,1.449-3.215,3.225-3.215h1.341h1.331c1.779,0,3.22,1.432,3.22,3.215v6.041V222.238z"/>
				</g>
			</g>
			<g>
				<g>
					<path fill="#FFFFFF" d="M258.007,212.517c-0.619-2.629-1.789-3.623-2.481-4.259c-1.876-1.311-4.12-1.475-4.12-1.475
						c-8.424-0.684-14.546,2.347-15.613,2.997c-2.681,1.683-2.661,2.886-2.661,3.17c0,0.285,0,3.969,0,3.969h0.007v21.394v0.193
						v12.65h8.447v-12.65v-0.193v-2.556c2.965,2.226,5.864,2.933,6.998,3.039c3.61,0.487,5.587-0.462,6.594-0.978
						c3.024-1.575,3.2-6.383,3.2-7.426c0-1.041,0.043-13.553,0.043-14.475C258.42,214.997,258.201,213.48,258.007,212.517z
						 M250.025,226.311c0,0.842-0.024,3.897-0.087,4.479c-0.228,1.809-1.4,2.054-1.837,2.116c-0.427,0.055-1.075,0.055-2.467-0.159
						c-2.036-0.279-3.481-0.977-4.049-1.35v-14.478h0.005c0,0,0-2.444,0-2.629c0-0.187,0.087-0.223,0.224-0.357
						c0.771-0.571,2.606-1.013,4.219-1.137c0.652-0.051,1.223-0.077,1.675-0.088c1.045,0.12,1.294,0.398,1.634,0.795
						c0.507,0.609,0.685,2.121,0.685,2.885C250.025,217.156,250.048,225.677,250.025,226.311z"/>
				</g>
			</g>
			<g>
				<g>
					<path fill="#FFFFFF" d="M284.239,230.789c-4.162,1.429-9.728,1.711-11.153,1.465c-2.671-0.424-3.759-2.176-4.067-3.337
						c-0.313-1.151-0.275-2.942-0.275-2.942c2.004,0,5.988-0.373,7.308-0.534c5.026-0.625,6.939-2.063,7.445-2.452
						c1.812-1.375,1.729-3.047,1.729-3.59c0-0.551,0-2.633,0-3.791c0-1.34-0.297-2.988-0.621-3.893
						c-0.688-1.944-2.047-2.966-3.018-3.574c-3.726-1.709-6.587-1.452-8.268-1.471c-3.045-0.039-5.046,0.451-6.267,0.82
						c-2.26,0.726-3.337,1.729-4.186,2.733c-2.62,2.973-2.473,9.368-2.473,9.368c-0.043,2.587-0.065,5.83-0.018,6.972
						c0.071,2.037,0.431,3.756,0.785,4.793c1.102,3.631,3.709,5.302,4.873,5.869c2.922,1.57,7.6,1.883,10.513,1.551
						c4.006-0.446,9.125-2.043,9.125-2.043L284.239,230.789z M268.766,216.41c0-0.709,0.203-1.473,0.516-1.827
						c1.276-1.428,2.988-1.755,5.079-1.9c2.101-0.145,2.399,0.624,2.722,1.384c0.329,0.772,0.285,3.949,0.285,4.625
						c-0.063,1-1.005,1.574-1.56,1.87c-2.239,0.975-7.085,1.387-7.085,1.387S268.766,217.117,268.766,216.41z"/>
				</g>
			</g>
			<g>
				<path fill="#FFFFFF" d="M324.318,229.994c0,0-2.98,1.088-4.092,1.167c-0.806,0.079-1.427,0.057-1.881-0.435
					c-0.459-0.49-0.354-1.34-0.367-2.391V213.74h6.505v-6.62h-6.505v-6.87h-8.413v6.87h-3.611v6.62h3.611v14.312v0.009v0.275l0,0
					c0.002,0.52,0.025,1.76,0.1,3.295c0.097,2.043,1.041,4.539,3.221,5.907c0.687,0.472,2.121,1.065,4.385,1.19
					c1.956,0.129,4.369-0.399,5.398-0.719c1.02-0.32,3.394-1.08,3.394-1.08L324.318,229.994z"/>
			</g>
			<g>
				<path fill="#FFFFFF" d="M342.934,205.862v24.215c-0.552,0.315-1.429,0.712-2.753,1.101c-1.266,0.301-3.401,0.543-4.296,0.238
					c-0.604-0.139-1.296-0.943-1.358-2.927c-0.021-0.806-0.057-1.954-0.057-2.399v-20.229h-8.397v20.384h-0.011
					c0,0,0.018,1.608,0.142,3.868c0.151,1.671,0.558,4.203,2.114,5.578c1.319,1.156,2.805,1.882,5.466,1.865
					c1.155,0.034,3.357-0.039,5.825-1.178c0.998-0.48,2.073-1.059,3.326-2.01v5.689c0,0,0.169,1.713-0.443,2.902
					c-0.265,0.387-0.862,0.898-2.158,0.914c-1.287,0.018-5.552-0.4-11.422-2.572l-1.977,5.975c0,0,6.158,2.168,9.89,2.736
					c2.066,0.344,5.129,0.635,7.188,0.299c2.036-0.336,4.154-0.725,5.455-2.408c0.63-0.74,1.365-1.92,1.712-4.59
					c0.073-0.752,0.151-2.52,0.151-3.496l0,0V205.86h-8.396V205.862z"/>
			</g>
			<g>
				<path fill="#FFFFFF" d="M192.088,209.419c0.036,2.822-0.319,6.052-1.479,8.541c-0.236,0.525-0.81,1.756-2.098,2.979
					c-0.057,0.047-0.114,0.097-0.167,0.144v17.424h8.443V216.92h0.007c0,0,0-1.332,0-1.51c0-0.185,0.141-0.372,0.277-0.509
					c0.763-0.571,2.553-0.958,4.168-1.086c1.601-0.116,3.253,0.18,3.253,0.18l1.061-6.951
					C198.953,206.263,194.224,208.268,192.088,209.419z"/>
			</g>
			<g>
				<g>
					<path fill="#FFFFFF" d="M190.732,205.067c-0.644-3.24-1.922-4.771-2.828-5.681c-2.325-2.094-4.954-2.57-6.604-2.863
						c-2.036-0.306-4.905-0.422-7.032-0.456v-0.014h-0.908c-1.203-0.019-2.009,0-2.009,0h-3.021h-8.879v7.632v12.21v7.63v14.979
						h8.879v-14.979h5.938c3.528,0,6.351-0.268,8.125-0.636c5.305-1.093,6.834-4.171,7.363-5.334
						C191.435,213.941,191.376,208.308,190.732,205.067z M180.92,214.428c-0.792,1.16-3.326,1.469-4.33,1.469
						c-0.997,0-2.323,0-2.323,0h-5.938v-12.21h5.938h2.354c1.555,0.084,3.061,0.266,3.978,1.116
						c1.445,1.503,1.294,3.506,1.358,5.274C181.92,212.489,181.479,213.578,180.92,214.428z"/>
				</g>
			</g>
			<path fill="#F1CD34" d="M323.015,197.606v4.13h-2.385v-10.344c0-0.334,0.128-0.616,0.367-0.85
				c0.225-0.235,0.512-0.353,0.843-0.353h3.93c1.228,0,2.146,0.317,2.753,0.939c0.621,0.628,0.937,1.559,0.937,2.789
				c0,1.165-0.302,2.082-0.904,2.75c-0.605,0.624-1.486,0.938-2.618,0.938L323.015,197.606L323.015,197.606z M323.015,195.53h2.316
				c0.625,0,1.075-0.141,1.348-0.405c0.281-0.247,0.431-0.671,0.431-1.276c0-0.516-0.137-0.926-0.396-1.242
				c-0.322-0.273-0.737-0.399-1.249-0.399h-2.449V195.53L323.015,195.53z"/>
			<path fill="#F1CD34" d="M331.368,190.189h1.207c0.309,0,0.582,0.108,0.804,0.322c0.224,0.212,0.338,0.476,0.338,0.786v10.439
				h-2.349V190.189L331.368,190.189z"/>
			<path fill="#F1CD34" d="M343.287,192.81v5.233c0,1.589-0.422,2.632-1.246,3.123c-0.828,0.486-1.732,0.738-2.718,0.738
				c-0.966-0.042-1.849-0.314-2.636-0.813c-0.792-0.487-1.189-1.51-1.189-3.048v-5.233h2.349v5.704c0,0.541,0.158,0.935,0.463,1.17
				c0.319,0.251,0.678,0.371,1.075,0.371c0.409,0,0.765-0.12,1.098-0.371c0.32-0.235,0.484-0.629,0.484-1.17v-4.558
				c0-0.317,0.1-0.584,0.316-0.811c0.215-0.22,0.484-0.334,0.828-0.334L343.287,192.81L343.287,192.81z"/>
			<path fill="#F1CD34" d="M344.825,198.777h2.278c0.023,0.452,0.194,0.791,0.507,1.013c0.335,0.221,0.778,0.336,1.34,0.336
				c0.397,0,0.753-0.082,1.045-0.237c0.259-0.155,0.393-0.371,0.393-0.637c0-0.404-0.461-0.706-1.401-0.904
				c-0.406-0.068-0.707-0.136-0.908-0.203c-1.182-0.293-1.974-0.64-2.385-1.041c-0.445-0.409-0.673-0.941-0.673-1.612
				c0-0.85,0.326-1.558,0.977-2.118c0.672-0.513,1.543-0.767,2.618-0.767c1.162,0,2.088,0.254,2.785,0.767
				c0.645,0.56,0.997,1.289,1.038,2.191h-1.443c-0.424,0-0.755-0.191-0.97-0.575c-0.094-0.093-0.18-0.176-0.265-0.266
				c-0.272-0.209-0.645-0.307-1.107-0.307c-0.447,0-0.783,0.07-1.004,0.207c-0.205,0.137-0.319,0.335-0.319,0.598
				c0,0.363,0.59,0.661,1.758,0.914c0.128,0.043,0.247,0.072,0.352,0.091c0.1,0.027,0.192,0.034,0.287,0.034
				c1.137,0.3,1.922,0.629,2.383,1.009c0.424,0.407,0.63,0.941,0.63,1.615c0,0.983-0.352,1.739-1.069,2.28
				c-0.674,0.486-1.674,0.738-3.016,0.738c-1.283,0-2.223-0.26-2.857-0.776c-0.645-0.515-0.971-1.26-0.971-2.243L344.825,198.777
				L344.825,198.777z"/>
			<g>
				<g>
					<path fill="#FFFFFF" d="M160.637,264.051v-8.123h2.932c0.476,0,0.881,0.049,1.22,0.148c0.338,0.096,0.614,0.236,0.829,0.415
						c0.215,0.183,0.37,0.397,0.469,0.647c0.097,0.254,0.146,0.53,0.146,0.831c0,0.285-0.038,0.532-0.112,0.74
						c-0.075,0.205-0.173,0.379-0.293,0.519c-0.12,0.139-0.258,0.248-0.411,0.325c-0.155,0.078-0.315,0.132-0.48,0.164v0.023
						c0.565,0.082,0.984,0.304,1.259,0.664c0.274,0.362,0.411,0.813,0.411,1.353c0,0.422-0.064,0.781-0.196,1.073
						s-0.314,0.53-0.548,0.71c-0.232,0.18-0.514,0.311-0.84,0.391c-0.328,0.077-0.682,0.118-1.065,0.118L160.637,264.051
						L160.637,264.051z M161.404,259.516h1.94c0.398,0,0.733-0.033,1.003-0.103c0.272-0.068,0.49-0.167,0.655-0.297
						c0.165-0.132,0.283-0.294,0.354-0.486c0.072-0.192,0.107-0.413,0.107-0.66c0-0.256-0.041-0.472-0.124-0.647
						c-0.082-0.178-0.215-0.32-0.396-0.43c-0.18-0.108-0.415-0.187-0.703-0.236c-0.29-0.051-0.646-0.073-1.066-0.073h-1.771V259.516
						L161.404,259.516z M161.404,263.396h1.951c0.421,0,0.787-0.021,1.1-0.058c0.313-0.037,0.57-0.114,0.772-0.231
						c0.203-0.115,0.356-0.28,0.458-0.494c0.103-0.215,0.152-0.5,0.152-0.854c0-0.338-0.057-0.612-0.169-0.817
						c-0.113-0.204-0.275-0.364-0.485-0.479c-0.211-0.113-0.462-0.189-0.755-0.232c-0.293-0.041-0.621-0.06-0.981-0.06h-2.042
						L161.404,263.396L161.404,263.396z"/>
					<path fill="#FFFFFF" d="M171.408,261.285c0,0.316,0.042,0.615,0.124,0.898c0.082,0.281,0.204,0.525,0.365,0.733
						c0.162,0.208,0.367,0.372,0.615,0.495s0.534,0.188,0.857,0.188c0.443,0,0.823-0.117,1.139-0.353
						c0.316-0.233,0.527-0.562,0.632-0.991h0.755c-0.082,0.278-0.191,0.534-0.326,0.771c-0.136,0.236-0.305,0.442-0.508,0.621
						c-0.203,0.178-0.443,0.314-0.722,0.41c-0.278,0.099-0.602,0.146-0.97,0.146c-0.467,0-0.868-0.078-1.206-0.234
						c-0.339-0.158-0.617-0.375-0.835-0.652c-0.219-0.273-0.38-0.596-0.485-0.967c-0.105-0.375-0.157-0.774-0.157-1.201
						c0-0.43,0.063-0.831,0.187-1.211c0.124-0.373,0.3-0.702,0.529-0.985c0.23-0.283,0.511-0.502,0.842-0.666
						c0.331-0.16,0.706-0.242,1.128-0.242c0.805,0,1.437,0.278,1.896,0.831s0.685,1.355,0.677,2.406h-4.536V261.285z
						 M175.221,260.723c0-0.287-0.039-0.557-0.119-0.808c-0.079-0.251-0.195-0.47-0.349-0.653c-0.154-0.185-0.349-0.333-0.581-0.439
						c-0.233-0.11-0.5-0.164-0.801-0.164s-0.566,0.057-0.795,0.171c-0.229,0.112-0.426,0.26-0.588,0.45
						c-0.16,0.188-0.291,0.406-0.389,0.654c-0.097,0.246-0.161,0.512-0.191,0.791h3.813V260.723z"/>
					<path fill="#FFFFFF" d="M187.02,266.352h-0.677v-8.144h0.677v1.024h0.023c0.097-0.187,0.224-0.355,0.378-0.506
						c0.154-0.151,0.323-0.276,0.508-0.373c0.184-0.098,0.373-0.172,0.569-0.226c0.194-0.052,0.387-0.08,0.574-0.08
						c0.475,0,0.875,0.08,1.206,0.237c0.331,0.16,0.604,0.374,0.818,0.648c0.215,0.273,0.37,0.6,0.468,0.977
						c0.099,0.374,0.147,0.777,0.147,1.205c0,0.406-0.054,0.799-0.159,1.173c-0.105,0.379-0.265,0.708-0.479,0.987
						c-0.216,0.281-0.485,0.51-0.812,0.679c-0.328,0.169-0.713,0.251-1.157,0.251c-0.413,0-0.81-0.091-1.188-0.273
						c-0.38-0.186-0.68-0.457-0.897-0.817V266.352L187.02,266.352z M187.02,261.152c0,0.328,0.045,0.644,0.135,0.939
						c0.092,0.297,0.221,0.557,0.391,0.778c0.169,0.221,0.375,0.399,0.62,0.532c0.244,0.13,0.52,0.195,0.83,0.195
						c0.346,0,0.647-0.067,0.906-0.209c0.261-0.138,0.473-0.33,0.639-0.568c0.166-0.239,0.285-0.523,0.36-0.842
						c0.075-0.32,0.105-0.662,0.091-1.032c0-0.367-0.051-0.694-0.152-0.976c-0.103-0.281-0.243-0.52-0.423-0.717
						c-0.181-0.193-0.392-0.345-0.632-0.445c-0.24-0.1-0.504-0.152-0.789-0.152c-0.316,0-0.599,0.063-0.848,0.191
						c-0.248,0.131-0.454,0.305-0.62,0.525c-0.165,0.221-0.292,0.486-0.378,0.79C187.063,260.468,187.02,260.796,187.02,261.152z"/>
					<path fill="#FFFFFF" d="M198.773,260.643c0.128-0.016,0.28-0.039,0.456-0.065c0.177-0.032,0.322-0.073,0.436-0.126
						c0.112-0.053,0.183-0.143,0.209-0.266c0.025-0.125,0.039-0.24,0.039-0.345c0-0.347-0.111-0.63-0.332-0.851
						c-0.224-0.221-0.598-0.333-1.123-0.333c-0.233,0-0.447,0.021-0.644,0.062c-0.195,0.041-0.366,0.114-0.514,0.215
						c-0.146,0.104-0.267,0.237-0.361,0.406s-0.155,0.383-0.186,0.639h-0.688c0.023-0.347,0.103-0.644,0.236-0.886
						c0.136-0.247,0.31-0.444,0.525-0.598c0.215-0.155,0.462-0.269,0.743-0.338c0.283-0.073,0.581-0.11,0.897-0.11
						c0.293,0,0.569,0.032,0.83,0.096c0.259,0.064,0.484,0.168,0.677,0.307s0.341,0.324,0.451,0.557
						c0.11,0.233,0.163,0.52,0.163,0.858v3.182c0,0.263,0.047,0.429,0.142,0.502c0.094,0.071,0.284,0.056,0.569-0.05v0.53
						c-0.052,0.014-0.13,0.036-0.232,0.067c-0.1,0.027-0.201,0.043-0.298,0.043c-0.105,0-0.208-0.011-0.305-0.033
						c-0.113-0.015-0.203-0.051-0.272-0.105c-0.066-0.059-0.122-0.126-0.163-0.205c-0.041-0.078-0.069-0.164-0.084-0.26
						c-0.015-0.092-0.022-0.192-0.022-0.297c-0.285,0.314-0.613,0.557-0.981,0.721c-0.369,0.164-0.767,0.246-1.194,0.246
						c-0.257,0-0.502-0.032-0.74-0.1c-0.236-0.068-0.445-0.174-0.625-0.315c-0.181-0.142-0.324-0.319-0.429-0.524
						c-0.105-0.205-0.157-0.453-0.157-0.74c0-0.991,0.68-1.579,2.042-1.758L198.773,260.643z M199.912,260.982
						c-0.285,0.119-0.575,0.197-0.868,0.235c-0.293,0.039-0.587,0.066-0.88,0.089c-0.519,0.039-0.923,0.155-1.212,0.353
						c-0.29,0.196-0.436,0.493-0.436,0.89c0,0.184,0.035,0.338,0.107,0.471c0.071,0.129,0.165,0.239,0.281,0.323
						c0.116,0.087,0.253,0.151,0.406,0.192c0.154,0.043,0.311,0.064,0.468,0.064c0.271,0,0.534-0.035,0.79-0.101
						c0.257-0.067,0.483-0.173,0.683-0.31c0.2-0.143,0.358-0.317,0.479-0.532c0.121-0.212,0.181-0.468,0.181-0.761L199.912,260.982
						L199.912,260.982z"/>
					<path fill="#FFFFFF" d="M206.004,264.051h-0.677v-5.843h0.677v1.093h0.022c0.188-0.468,0.431-0.792,0.729-0.975
						c0.297-0.188,0.688-0.278,1.179-0.278v0.735c-0.385-0.01-0.7,0.05-0.948,0.178s-0.444,0.301-0.592,0.52
						c-0.146,0.22-0.248,0.476-0.305,0.771c-0.056,0.297-0.084,0.607-0.084,0.932L206.004,264.051L206.004,264.051z"/>
					<path fill="#FFFFFF" d="M214.036,264.074c-0.083,0.014-0.192,0.041-0.328,0.078c-0.137,0.037-0.286,0.055-0.451,0.055
						c-0.339,0-0.597-0.082-0.774-0.251c-0.176-0.169-0.265-0.472-0.265-0.908v-4.276h-0.823v-0.562h0.823v-1.625h0.677v1.625h1.094
						v0.562h-1.094v4.006c0,0.144,0.005,0.267,0.011,0.371c0.009,0.105,0.03,0.192,0.067,0.261c0.038,0.067,0.096,0.116,0.176,0.146
						c0.079,0.032,0.189,0.047,0.332,0.047c0.09,0,0.184-0.01,0.276-0.023c0.095-0.014,0.186-0.034,0.277-0.057v0.553H214.036z"/>
					<path fill="#FFFFFF" d="M226.443,264.206c-0.377-0.005-0.728-0.073-1.054-0.201c-0.328-0.128-0.614-0.319-0.858-0.575
						c-0.243-0.256-0.438-0.574-0.58-0.959c-0.144-0.383-0.214-0.83-0.214-1.342c0-0.429,0.057-0.831,0.169-1.203
						c0.113-0.372,0.282-0.695,0.509-0.975c0.225-0.278,0.507-0.498,0.846-0.662c0.338-0.16,0.733-0.242,1.185-0.242
						c0.459,0,0.857,0.082,1.195,0.242c0.339,0.164,0.621,0.381,0.847,0.654c0.226,0.276,0.394,0.601,0.502,0.976
						c0.108,0.379,0.163,0.781,0.163,1.21c0,0.466-0.063,0.887-0.191,1.262c-0.128,0.377-0.311,0.701-0.547,0.971
						c-0.237,0.269-0.524,0.479-0.858,0.625C227.219,264.133,226.849,264.206,226.443,264.206z M228.428,261.13
						c0-0.347-0.038-0.671-0.112-0.972c-0.074-0.299-0.191-0.561-0.35-0.783c-0.157-0.221-0.361-0.395-0.609-0.525
						c-0.248-0.127-0.552-0.191-0.913-0.191c-0.354,0-0.655,0.07-0.907,0.208c-0.252,0.142-0.456,0.323-0.615,0.555
						c-0.158,0.231-0.274,0.491-0.35,0.787c-0.074,0.299-0.112,0.604-0.112,0.922c0,0.361,0.043,0.694,0.13,0.997
						c0.087,0.305,0.212,0.566,0.378,0.783c0.165,0.219,0.372,0.388,0.621,0.507c0.248,0.123,0.533,0.183,0.856,0.183
						c0.354,0,0.656-0.067,0.907-0.209c0.252-0.138,0.458-0.324,0.615-0.558c0.159-0.233,0.275-0.498,0.35-0.79
						C228.39,261.75,228.428,261.445,228.428,261.13z"/>
					<path fill="#FFFFFF" d="M232.738,258.77v-0.561h0.868v-0.927c0-0.466,0.095-0.835,0.282-1.105
						c0.188-0.269,0.508-0.405,0.959-0.405c0.105,0,0.203,0.004,0.293,0.011s0.18,0.018,0.271,0.034v0.621
						c-0.151-0.039-0.285-0.058-0.406-0.058c-0.172,0-0.309,0.032-0.405,0.097c-0.098,0.063-0.17,0.147-0.215,0.252
						c-0.046,0.105-0.073,0.225-0.084,0.356s-0.017,0.265-0.017,0.399v0.724h1.128v0.562h-1.128v5.281h-0.678v-5.281H232.738
						L232.738,258.77z"/>
					<path fill="#FFFFFF" d="M247.514,264.074c-0.083,0.014-0.192,0.041-0.328,0.078s-0.286,0.055-0.451,0.055
						c-0.339,0-0.597-0.082-0.773-0.251c-0.176-0.169-0.266-0.472-0.266-0.908v-4.276h-0.822v-0.562h0.822v-1.625h0.678v1.625h1.094
						v0.562h-1.094v4.006c0,0.144,0.005,0.267,0.011,0.371c0.008,0.105,0.03,0.192,0.067,0.261c0.037,0.067,0.096,0.116,0.176,0.146
						c0.079,0.032,0.188,0.047,0.332,0.047c0.09,0,0.183-0.01,0.275-0.023c0.096-0.014,0.187-0.034,0.277-0.057v0.553H247.514z"/>
					<path fill="#FFFFFF" d="M251.529,264.051v-8.123h0.678v3.094c0.27-0.289,0.55-0.521,0.84-0.701
						c0.29-0.18,0.638-0.272,1.043-0.272c0.362,0,0.696,0.063,1.004,0.187s0.567,0.341,0.778,0.648
						c0.143,0.21,0.227,0.428,0.253,0.648c0.025,0.224,0.04,0.451,0.04,0.693v3.825h-0.678v-3.813c0-0.527-0.115-0.92-0.349-1.186
						c-0.234-0.262-0.621-0.395-1.162-0.395c-0.211,0-0.403,0.033-0.576,0.096c-0.172,0.064-0.329,0.148-0.468,0.253
						c-0.139,0.105-0.258,0.226-0.354,0.361c-0.099,0.137-0.174,0.278-0.227,0.429c-0.066,0.188-0.107,0.37-0.124,0.543
						c-0.015,0.174-0.021,0.361-0.021,0.561v3.15h-0.677V264.051z"/>
					<path fill="#FFFFFF" d="M261.151,261.285c0,0.316,0.042,0.615,0.124,0.898c0.083,0.281,0.205,0.525,0.366,0.733
						c0.162,0.208,0.367,0.372,0.615,0.495s0.534,0.188,0.856,0.188c0.444,0,0.824-0.117,1.14-0.353
						c0.315-0.233,0.526-0.562,0.632-0.991h0.755c-0.082,0.278-0.192,0.534-0.326,0.771c-0.136,0.236-0.305,0.442-0.508,0.621
						c-0.203,0.178-0.444,0.314-0.722,0.41c-0.278,0.099-0.602,0.146-0.971,0.146c-0.466,0-0.867-0.078-1.205-0.234
						c-0.34-0.158-0.617-0.375-0.836-0.652c-0.218-0.273-0.38-0.596-0.484-0.967c-0.105-0.375-0.157-0.774-0.157-1.201
						c0-0.43,0.063-0.831,0.187-1.211c0.124-0.373,0.3-0.702,0.529-0.985s0.511-0.502,0.841-0.666
						c0.331-0.16,0.706-0.242,1.129-0.242c0.805,0,1.437,0.278,1.896,0.831s0.684,1.355,0.677,2.406h-4.537V261.285z
						 M264.964,260.723c0-0.287-0.039-0.557-0.119-0.808c-0.079-0.251-0.195-0.47-0.349-0.653c-0.154-0.185-0.349-0.333-0.581-0.439
						c-0.233-0.11-0.5-0.164-0.802-0.164c-0.3,0-0.565,0.057-0.795,0.171c-0.229,0.112-0.425,0.26-0.587,0.45
						c-0.161,0.188-0.291,0.406-0.389,0.654c-0.097,0.246-0.161,0.512-0.192,0.791h3.813V260.723z"/>
					<path fill="#FFFFFF" d="M276.763,266.352h-0.677v-8.144h0.677v1.024h0.023c0.097-0.187,0.224-0.355,0.378-0.506
						c0.153-0.151,0.322-0.276,0.508-0.373c0.184-0.098,0.373-0.172,0.569-0.226c0.194-0.052,0.387-0.08,0.574-0.08
						c0.475,0,0.875,0.08,1.206,0.237c0.331,0.16,0.604,0.374,0.818,0.648c0.215,0.273,0.37,0.6,0.468,0.977
						c0.098,0.374,0.147,0.777,0.147,1.205c0,0.406-0.055,0.799-0.159,1.173c-0.105,0.379-0.266,0.708-0.479,0.987
						c-0.215,0.281-0.484,0.51-0.811,0.679c-0.328,0.169-0.713,0.251-1.157,0.251c-0.413,0-0.81-0.091-1.188-0.273
						c-0.381-0.186-0.68-0.457-0.897-0.817V266.352L276.763,266.352z M276.763,261.152c0,0.328,0.044,0.644,0.135,0.939
						c0.091,0.297,0.221,0.557,0.391,0.778c0.169,0.221,0.375,0.399,0.62,0.532c0.243,0.13,0.52,0.195,0.829,0.195
						c0.347,0,0.648-0.067,0.907-0.209c0.26-0.138,0.473-0.33,0.639-0.568c0.166-0.239,0.284-0.523,0.36-0.842
						c0.075-0.32,0.105-0.662,0.09-1.032c0-0.367-0.05-0.694-0.151-0.976c-0.103-0.281-0.243-0.52-0.423-0.717
						c-0.181-0.193-0.392-0.345-0.633-0.445c-0.239-0.1-0.503-0.152-0.789-0.152c-0.315,0-0.598,0.063-0.847,0.191
						c-0.248,0.131-0.454,0.305-0.62,0.525c-0.165,0.221-0.292,0.486-0.378,0.79C276.806,260.468,276.763,260.796,276.763,261.152z"
						/>
					<path fill="#FFFFFF" d="M286.542,264.051h-0.678v-5.843h0.678v1.093h0.022c0.188-0.468,0.431-0.792,0.729-0.975
						c0.297-0.188,0.688-0.278,1.179-0.278v0.735c-0.385-0.01-0.7,0.05-0.948,0.178s-0.444,0.301-0.592,0.52
						c-0.146,0.22-0.248,0.476-0.305,0.771c-0.057,0.297-0.084,0.607-0.084,0.932L286.542,264.051L286.542,264.051z"/>
					<path fill="#FFFFFF" d="M292.588,256.932v-1.004h0.744v1.004H292.588z M292.622,264.051v-5.843h0.677v5.843H292.622z"/>
					<path fill="#FFFFFF" d="M297.336,258.208h0.732l1.896,5.008l1.896-5.008h0.734l-2.27,5.843h-0.755L297.336,258.208z"/>
					<path fill="#FFFFFF" d="M306.597,256.932v-1.004h0.744v1.004H306.597z M306.632,264.051v-5.843h0.678v5.843H306.632z"/>
					<path fill="#FFFFFF" d="M312.068,264.051v-8.123h0.678v8.123H312.068z"/>
					<path fill="#FFFFFF" d="M317.82,261.285c0,0.316,0.043,0.615,0.126,0.898c0.082,0.281,0.205,0.525,0.365,0.733
						c0.162,0.208,0.367,0.372,0.616,0.495c0.246,0.123,0.534,0.188,0.855,0.188c0.445,0,0.824-0.117,1.14-0.353
						c0.314-0.233,0.526-0.562,0.632-0.991h0.755c-0.082,0.278-0.192,0.534-0.326,0.771c-0.135,0.236-0.304,0.442-0.509,0.621
						c-0.201,0.178-0.443,0.314-0.721,0.41c-0.278,0.099-0.604,0.146-0.971,0.146c-0.466,0-0.87-0.078-1.207-0.234
						c-0.338-0.158-0.615-0.375-0.835-0.652c-0.217-0.273-0.379-0.596-0.483-0.967c-0.105-0.375-0.157-0.774-0.157-1.201
						c0-0.43,0.062-0.831,0.185-1.211c0.126-0.373,0.302-0.702,0.53-0.985c0.231-0.283,0.511-0.502,0.842-0.666
						c0.331-0.16,0.705-0.242,1.128-0.242c0.807,0,1.437,0.278,1.897,0.831c0.457,0.553,0.682,1.355,0.676,2.406h-4.538V261.285z
						 M321.634,260.723c0-0.287-0.041-0.557-0.119-0.808c-0.08-0.251-0.196-0.47-0.353-0.653c-0.152-0.185-0.347-0.333-0.579-0.439
						c-0.233-0.11-0.5-0.164-0.802-0.164c-0.299,0-0.565,0.057-0.797,0.171c-0.228,0.112-0.425,0.26-0.584,0.45
						c-0.162,0.188-0.292,0.406-0.39,0.654c-0.099,0.246-0.162,0.512-0.192,0.791h3.815V260.723z"/>
					<path fill="#FFFFFF" d="M331.119,258.208h0.677v5.276c0,0.394-0.039,0.768-0.119,1.123c-0.078,0.356-0.22,0.672-0.422,0.943
						c-0.203,0.272-0.482,0.486-0.835,0.648c-0.354,0.162-0.809,0.242-1.363,0.242c-0.429,0-0.799-0.053-1.107-0.162
						c-0.308-0.11-0.559-0.246-0.755-0.413s-0.345-0.349-0.447-0.546c-0.1-0.201-0.154-0.389-0.161-0.559h0.721
						c0.052,0.217,0.135,0.395,0.249,0.535c0.114,0.137,0.246,0.246,0.402,0.326c0.152,0.08,0.323,0.135,0.511,0.162
						c0.187,0.031,0.383,0.046,0.589,0.046c0.456,0,0.826-0.078,1.104-0.237c0.278-0.154,0.488-0.365,0.631-0.621
						c0.144-0.256,0.236-0.543,0.277-0.867c0.041-0.323,0.058-0.652,0.05-0.99c-0.219,0.361-0.518,0.632-0.896,0.816
						c-0.381,0.184-0.778,0.274-1.189,0.274c-0.444,0-0.831-0.082-1.156-0.251c-0.326-0.169-0.599-0.396-0.813-0.678
						s-0.374-0.609-0.479-0.988c-0.105-0.374-0.158-0.768-0.158-1.173c0-0.427,0.048-0.831,0.146-1.205
						c0.099-0.377,0.253-0.703,0.469-0.978c0.215-0.273,0.485-0.488,0.818-0.647c0.329-0.158,0.73-0.237,1.205-0.237
						c0.188,0,0.379,0.027,0.575,0.08s0.386,0.128,0.571,0.227c0.183,0.096,0.352,0.221,0.507,0.371
						c0.154,0.151,0.281,0.32,0.379,0.508h0.022L331.119,258.208L331.119,258.208z M331.119,261.152c0-0.356-0.046-0.686-0.13-0.988
						c-0.087-0.305-0.212-0.568-0.377-0.79c-0.169-0.222-0.374-0.396-0.621-0.524c-0.251-0.129-0.532-0.192-0.847-0.192
						c-0.285,0-0.55,0.052-0.79,0.153c-0.24,0.101-0.452,0.25-0.632,0.444c-0.18,0.196-0.322,0.437-0.422,0.718
						c-0.104,0.28-0.153,0.606-0.153,0.975c-0.014,0.369,0.014,0.712,0.091,1.031c0.073,0.32,0.194,0.604,0.361,0.843
						c0.164,0.239,0.374,0.431,0.63,0.567c0.256,0.143,0.561,0.211,0.915,0.211c0.308,0,0.584-0.066,0.829-0.196
						c0.244-0.132,0.452-0.311,0.621-0.532c0.169-0.221,0.299-0.482,0.388-0.778C331.073,261.796,331.119,261.48,331.119,261.152z"
						/>
					<path fill="#FFFFFF" d="M336.849,261.285c0,0.316,0.041,0.615,0.123,0.898c0.084,0.281,0.205,0.525,0.367,0.733
						c0.161,0.208,0.366,0.372,0.613,0.495c0.249,0.123,0.534,0.188,0.858,0.188c0.443,0,0.824-0.117,1.139-0.353
						c0.317-0.233,0.527-0.562,0.632-0.991h0.756c-0.082,0.278-0.192,0.534-0.326,0.771c-0.138,0.236-0.307,0.442-0.507,0.621
						c-0.205,0.178-0.445,0.314-0.725,0.41c-0.277,0.099-0.6,0.146-0.97,0.146c-0.466,0-0.867-0.078-1.205-0.234
						c-0.34-0.158-0.619-0.375-0.835-0.652c-0.219-0.273-0.381-0.596-0.486-0.967c-0.104-0.375-0.156-0.774-0.156-1.201
						c0-0.43,0.062-0.831,0.187-1.211c0.123-0.373,0.299-0.702,0.53-0.985c0.228-0.283,0.509-0.502,0.84-0.666
						c0.331-0.16,0.708-0.242,1.128-0.242c0.803,0,1.438,0.278,1.894,0.831c0.462,0.553,0.686,1.355,0.679,2.406h-4.535V261.285z
						 M340.659,260.723c0-0.287-0.037-0.557-0.118-0.808c-0.078-0.251-0.194-0.47-0.348-0.653c-0.155-0.185-0.349-0.333-0.582-0.439
						c-0.232-0.11-0.5-0.164-0.801-0.164s-0.566,0.057-0.794,0.171c-0.231,0.112-0.425,0.26-0.589,0.45
						c-0.16,0.188-0.29,0.406-0.389,0.654c-0.096,0.246-0.159,0.512-0.191,0.791h3.812V260.723z"/>
					<path fill="#FFFFFF" d="M350.148,255.928h0.678v8.123h-0.678v-1.027h-0.021c-0.101,0.196-0.227,0.365-0.38,0.512
						c-0.154,0.148-0.323,0.269-0.507,0.369c-0.187,0.097-0.374,0.172-0.57,0.225c-0.197,0.053-0.389,0.078-0.575,0.078
						c-0.476,0-0.876-0.078-1.207-0.234c-0.331-0.158-0.605-0.375-0.819-0.652c-0.215-0.273-0.37-0.598-0.466-0.971
						c-0.1-0.38-0.146-0.781-0.146-1.211c0-0.406,0.051-0.794,0.155-1.173c0.105-0.374,0.266-0.702,0.479-0.985
						c0.215-0.283,0.485-0.508,0.813-0.676c0.329-0.17,0.712-0.257,1.157-0.257c0.413,0,0.81,0.091,1.189,0.278
						c0.379,0.183,0.68,0.456,0.896,0.816L350.148,255.928L350.148,255.928z M350.148,261.107c0-0.334-0.043-0.646-0.135-0.943
						c-0.091-0.297-0.219-0.557-0.388-0.778c-0.172-0.221-0.38-0.396-0.621-0.53c-0.247-0.131-0.521-0.198-0.831-0.198
						c-0.353,0-0.657,0.071-0.913,0.208c-0.256,0.142-0.466,0.33-0.632,0.57c-0.167,0.242-0.285,0.521-0.361,0.84
						c-0.075,0.32-0.105,0.664-0.089,1.033c0,0.369,0.05,0.693,0.15,0.977c0.102,0.283,0.242,0.52,0.426,0.717
						c0.178,0.196,0.39,0.342,0.63,0.445c0.242,0.103,0.504,0.152,0.79,0.152c0.314,0,0.598-0.063,0.847-0.191
						s0.454-0.305,0.621-0.525c0.164-0.221,0.29-0.484,0.377-0.79S350.148,261.458,350.148,261.107z"/>
				</g>
			</g>
		</g>
	</g>
	<rect x="242.367" y="192.682" fill="#B2B2B2" width="6.397" height="35.529"/>
	<path fill="#B2B2B2" d="M290.249,198.348c-0.324-0.655-0.728-1.215-1.179-1.704c-1.169-1.266-2.673-2.021-4.053-2.541
		c-0.143-0.053-0.287-0.109-0.426-0.157c-3.171-1.118-9.659-1.261-9.659-1.261h-13.521l-2.718,3.96h15.457h0.035
		c0.394,0,4.463,0.035,7.21,1.162c0.944,0.461,2.706,1.278,3.377,3.757c0.12,0.442,0.215,1.072,0.255,1.627l-0.009,21.061H271.85
		c-1.189,0-3.784-0.032-4.777-0.157c-3.621-0.461-4.735-1.66-5.235-2.273c-1.261-1.542-1.303-3.965-1.174-5.15
		c0.303-2.717,1.12-3.409,1.847-3.995c0.875-0.701,1.838-1.109,3.105-1.366c1.589-0.324,3.324-0.393,4.243-0.407h0.66h8.448
		l2.717-3.963h-11.859c-6.284,0.074-9.255,1.273-10.207,1.618c-1.554,0.562-2.734,1.544-3.49,2.345
		c-0.438,0.465-0.736,0.87-0.88,1.099c-1.525,2.449-1.461,5.307-1.366,6.499c0.23,2.856,1.03,4.368,1.954,5.432
		c0.093,0.111,0.193,0.213,0.294,0.317c1.891,1.954,4.701,2.897,6.613,3.287c2.805,0.565,7.083,0.674,7.083,0.674h15.192h6.396
		v-3.96v-19.843C291.318,200.29,290.793,199.533,290.249,198.348"/>
	<path fill="#B2B2B2" d="M236.682,212.412c-0.329-0.579-0.701-1.079-1.095-1.509c-1.588-1.741-3.534-2.384-4.446-2.754
		c-3.236-1.18-9.249-1.206-9.668-1.208h-0.024h-4.468c0,0-4.149-0.049-6.185-0.59c-2.035-0.544-3.196-1.634-3.576-3.479
		c-0.241-1.192-0.236-3.602,1.731-4.831c0.674-0.424,2.673-1.324,7.384-1.396h17.505l2.715-3.96h-18.746c0,0-0.634-0.014-1.599,0
		c-1.648,0.019-4.271,0.12-6.386,0.505c-1.964,0.354-3.975,0.59-6.769,2.555c-0.299,0.211-0.63,0.518-0.949,0.9
		c-0.771,0.903-1.495,2.201-1.654,3.502c-0.167,1.352-0.309,3.102,0.639,5.354c0.22,0.514,0.544,0.998,0.944,1.44
		c1.333,1.47,3.5,2.488,5.377,2.96c2.437,0.618,5.691,0.884,9.668,1.002h4.458c2.717,0.072,4.397,0.347,5.344,0.586
		c2.041,0.514,3.384,2.072,3.676,2.893c0.637,1.792,0.481,3.979,0.389,4.794c-0.318,2.822-2.781,4.134-4.011,4.439
		c-2.002,0.498-4.529,0.618-6.048,0.646h-1.338h-16.566l-2.715,3.964h20.187c2.59,0,5.458-0.256,7.066-0.492
		c4.012-0.588,6.027-1.814,6.852-2.433c0.443-0.333,0.829-0.683,1.164-1.039c1.787-1.917,2.108-4.069,2.191-4.997
		C237.96,216.743,237.925,214.604,236.682,212.412"/>
	<polygon fill="#B2B2B2" points="198.007,228.223 204.891,228.223 185.261,183.507 182.62,183.507 179.319,183.507 176.678,183.507 
		157.071,228.223 163.966,228.223 171.558,210.315 187.735,210.315 184.715,205.878 173.276,205.878 180.969,187.458 	"/>
	<rect x="156.381" y="239.514" fill="#E21E26" width="282.583" height="3.041"/>
	<g>
		<g enable-background="new    ">
			<path fill="#B2B2B2" d="M169.182,265.592c-0.61,0.776-2.033,2.218-4.656,2.218c-0.444,0-1.497-0.037-2.624-0.555
				c-1.479-0.702-3.474-2.477-3.474-6.338c0-0.702,0-2.568,1.201-4.287c0.628-0.905,2.125-2.531,4.989-2.531
				c2.495,0,3.807,1.237,4.398,2.069c0.425,0.628,0.684,1.274,0.905,1.959l-2.42,0.628c-0.019-0.166-0.093-0.592-0.333-1.035
				c-0.499-0.924-1.478-1.404-2.513-1.386c-0.739,0-1.257,0.222-1.516,0.352c-0.961,0.48-2.069,1.736-2.069,4.176
				c0,0.369,0.019,1.922,0.776,3.086c0.259,0.388,0.573,0.721,0.942,0.961c0.776,0.536,1.552,0.591,1.903,0.591
				c1.017,0,1.774-0.406,2.402-1.183c0.259-0.313,0.462-0.702,0.518-0.794c0.074-0.167,0.129-0.314,0.24-0.647l2.31,0.961
				C169.884,264.502,169.626,265.019,169.182,265.592z"/>
		</g>
		<g enable-background="new    ">
			<path fill="#B2B2B2" d="M179.129,267.477l-2.569-4.842h-2.199v4.842h-2.421v-13.046h5.34c0.591,0,2.347,0.056,3.511,1.589
				c0.758,0.998,0.795,2.125,0.795,2.551c0,0.203-0.019,0.85-0.24,1.459c-0.203,0.536-0.832,1.663-2.328,2.125l2.901,5.322H179.129z
				 M178.297,256.926c-0.425-0.277-0.924-0.389-1.959-0.389h-1.977v4.065h0.869c1.423,0,2.31,0,2.901-0.314
				c0.37-0.203,0.979-0.684,0.979-1.736C179.11,258.219,179.073,257.442,178.297,256.926z"/>
		</g>
		<g enable-background="new    ">
			<path fill="#B2B2B2" d="M191.144,267.477l-0.758-2.55h-4.897l-0.757,2.55h-2.624l4.417-13.046h2.771l4.454,13.046H191.144z
				 M187.947,256.777l-1.811,6.006h3.604L187.947,256.777z"/>
		</g>
		<g enable-background="new    ">
			<path fill="#B2B2B2" d="M198.817,256.611v3.252h5.451v2.088h-5.451v5.525h-2.421v-13.046h8.629v2.181H198.817z"/>
			<path fill="#B2B2B2" d="M212.68,256.63v10.847h-2.439V256.63h-3.548v-2.199h9.59v2.199H212.68z"/>
		</g>
		<g enable-background="new    ">
			<path fill="#B2B2B2" d="M217.748,267.477v-13.046h9.276v2.181h-6.874v3.067h6.301v2.106h-6.301v3.492h7.335v2.199H217.748z"/>
		</g>
		<g enable-background="new    ">
			<path fill="#B2B2B2" d="M236.452,267.125c-1.127,0.352-2.033,0.352-3.197,0.352h-4.158v-13.046h4.675
				c0.591,0,1.312,0.037,1.885,0.148c0.647,0.129,2.051,0.554,3.142,1.958c0.573,0.758,1.349,2.218,1.349,4.527
				C240.148,263.651,239.15,266.257,236.452,267.125z M236.304,257.479c-0.222-0.185-0.665-0.518-1.367-0.702
				c-0.628-0.166-0.961-0.147-2.107-0.147h-1.293v8.647h0.647c1.312,0,2.088-0.019,2.679-0.11c0.333-0.056,1.257-0.203,1.922-1.017
				c0.813-1.035,0.776-2.938,0.776-3.104C237.561,259.105,236.969,258.071,236.304,257.479z"/>
		</g>
		<g enable-background="new    ">
			<path fill="#B2B2B2" d="M251.927,256.611v3.252h5.451v2.088h-5.451v5.525h-2.421v-13.046h8.629v2.181H251.927z"/>
		</g>
		<g enable-background="new    ">
			<path fill="#B2B2B2" d="M269.412,265.942c-0.295,0.314-1.053,1.072-2.217,1.497c-0.407,0.148-1.164,0.37-2.273,0.37
				c-1.848,0-3.252-0.61-4.472-2.015c-1.22-1.386-1.737-3.012-1.737-4.822c0-0.426,0.019-1.423,0.388-2.532
				c0.85-2.605,3.086-4.342,5.876-4.342c2.513,0,4.01,1.367,4.619,2.069c0.684,0.776,1.645,2.291,1.626,4.786
				C271.223,261.767,271.131,264.076,269.412,265.942z M267.989,258.053c-0.684-1.108-1.718-1.719-3.03-1.719
				c-0.813,0-1.404,0.259-1.663,0.388c-0.924,0.499-2.07,1.719-2.07,4.158c0,0.499,0.019,2.901,1.848,4.103
				c0.794,0.517,1.589,0.554,1.921,0.554c0.259,0,0.85-0.019,1.497-0.313c0.961-0.444,2.217-1.553,2.273-4.011
				C268.783,260.141,268.58,258.995,267.989,258.053z"/>
		</g>
		<g enable-background="new    ">
			<path fill="#B2B2B2" d="M281.244,267.477l-2.569-4.842h-2.199v4.842h-2.421v-13.046h5.34c0.591,0,2.347,0.056,3.511,1.589
				c0.758,0.998,0.795,2.125,0.795,2.551c0,0.203-0.019,0.85-0.24,1.459c-0.203,0.536-0.832,1.663-2.328,2.125l2.901,5.322H281.244z
				 M280.412,256.926c-0.425-0.277-0.924-0.389-1.959-0.389h-1.977v4.065h0.869c1.423,0,2.31,0,2.901-0.314
				c0.37-0.203,0.979-0.684,0.979-1.736C281.225,258.219,281.188,257.442,280.412,256.926z"/>
		</g>
		<g enable-background="new    ">
			<path fill="#B2B2B2" d="M299.175,267.477v-5.932h-5.599v5.932h-2.458v-13.046h2.458v4.915h5.599v-4.915h2.458v13.046H299.175z"/>
			<path fill="#B2B2B2" d="M315.699,265.942c-0.295,0.314-1.053,1.072-2.217,1.497c-0.406,0.148-1.164,0.37-2.273,0.37
				c-1.848,0-3.252-0.61-4.471-2.015c-1.221-1.386-1.737-3.012-1.737-4.822c0-0.426,0.019-1.423,0.388-2.532
				c0.85-2.605,3.086-4.342,5.877-4.342c2.512,0,4.01,1.367,4.619,2.069c0.684,0.776,1.645,2.291,1.626,4.786
				C317.511,261.767,317.418,264.076,315.699,265.942z M314.278,258.053c-0.684-1.108-1.719-1.719-3.031-1.719
				c-0.813,0-1.404,0.259-1.662,0.388c-0.924,0.499-2.07,1.719-2.07,4.158c0,0.499,0.019,2.901,1.848,4.103
				c0.795,0.517,1.59,0.554,1.922,0.554c0.259,0,0.85-0.019,1.497-0.313c0.961-0.444,2.218-1.553,2.272-4.011
				C315.072,260.141,314.868,258.995,314.278,258.053z"/>
		</g>
		<g enable-background="new    ">
			<path fill="#B2B2B2" d="M328.788,266.46c-1.571,1.331-3.677,1.35-4.269,1.35c-0.775,0-3.271-0.037-5.082-1.94
				c-0.221-0.24-0.461-0.555-0.628-0.851l2.052-1.423c0.572,0.851,1.645,1.959,4.047,1.959c0.11,0,0.572,0,0.961-0.092
				c0.276-0.056,1.552-0.407,1.552-1.627c0-0.129-0.019-0.48-0.24-0.775c-0.444-0.592-1.626-0.758-2.272-0.906l-1.553-0.351
				c-0.665-0.147-1.386-0.296-1.977-0.609c-0.61-0.314-1.867-1.146-1.867-3.031c0-0.295,0.037-1.146,0.499-1.921
				c0.591-0.998,2.015-2.144,4.657-2.144c1.164,0,3.455,0.185,5.266,2.642l-2.014,1.497c-0.406-0.646-1.33-1.94-3.382-1.94
				c-0.13,0-1.774-0.019-2.31,0.998c-0.111,0.203-0.148,0.388-0.148,0.592c0,0.222,0.056,0.406,0.166,0.591
				c0.314,0.536,1.035,0.702,2.236,0.961l1.35,0.296c1.238,0.277,2.605,0.646,3.474,1.663c0.37,0.406,0.757,0.997,0.757,2.198
				C330.063,264.778,329.694,265.685,328.788,266.46z"/>
		</g>
		<g enable-background="new    ">
			<path fill="#B2B2B2" d="M338.975,262.303c-1.128,0.721-2.348,0.739-3.623,0.739h-1.902v4.435h-2.439v-13.046h4.398
				c0.313,0,0.628-0.019,0.941,0c0.573,0.037,2.218,0.148,3.382,1.516c0.942,1.09,0.979,2.31,0.979,2.827
				C340.711,260.806,339.658,261.859,338.975,262.303z M337.903,257.479c-0.555-0.961-1.645-0.961-2.587-0.961h-1.866v4.527h1.756
				c0.166,0,0.351-0.019,0.517-0.019c1.257-0.055,1.812-0.443,2.125-0.961c0.13-0.222,0.351-0.702,0.351-1.367
				C338.198,258.293,338.106,257.85,337.903,257.479z"/>
		</g>
		<g enable-background="new    ">
			<path fill="#B2B2B2" d="M342.785,267.477v-13.046h2.402v13.046H342.785z"/>
		</g>
		<g enable-background="new    ">
			<path fill="#B2B2B2" d="M353.727,256.63v10.847h-2.438V256.63h-3.548v-2.199h9.59v2.199H353.727z"/>
		</g>
		<g enable-background="new    ">
			<path fill="#B2B2B2" d="M365.391,267.477l-0.758-2.55h-4.896l-0.758,2.55h-2.624l4.417-13.046h2.771l4.453,13.046H365.391z
				 M362.194,256.777l-1.811,6.006h3.604L362.194,256.777z"/>
			<path fill="#B2B2B2" d="M370.699,267.477v-13.046h2.457v10.828h5.174v2.218H370.699z"/>
			<path fill="#B2B2B2" d="M381.291,267.477v-13.046h2.402v13.046H381.291z"/>
			<path fill="#B2B2B2" d="M392.603,256.63v10.847h-2.438V256.63h-3.549v-2.199h9.59v2.199H392.603z"/>
		</g>
		<g enable-background="new    ">
			<path fill="#B2B2B2" d="M403.287,262.321v5.155h-2.421v-5.155l-4.361-7.891h2.772l2.826,5.396l2.846-5.396h2.735L403.287,262.321
				z"/>
		</g>
	</g>
	<rect x="242.367" y="180.667" fill="#E21E26" width="6.397" height="6.395"/>
	<path fill="#E21E26" d="M305.574,200.59c0,1.109,0.226,2.021,0.674,2.745c0.449,0.72,1.052,1.315,1.809,1.785
		c0.759,0.47,1.636,0.854,2.636,1.153c1.002,0.299,2.044,0.583,3.129,0.845c1.458,0.356,2.894,0.75,4.306,1.18
		c1.411,0.433,2.669,1.025,3.772,1.787c1.103,0.759,1.995,1.748,2.678,2.967c0.684,1.217,1.023,2.785,1.023,4.696
		c0,1.951-0.368,3.632-1.109,5.048c-0.737,1.417-1.759,2.581-3.064,3.49c-1.306,0.907-2.848,1.581-4.629,2.024
		c-1.782,0.438-3.731,0.66-5.852,0.66c-0.974,0-1.972-0.062-2.995-0.181c-1.022-0.125-1.994-0.289-2.926-0.493
		c-0.928-0.208-1.766-0.443-2.516-0.706c-0.75-0.262-1.342-0.524-1.773-0.786v-4.189c0.676,0.336,1.436,0.646,2.28,0.926
		c0.842,0.282,1.713,0.521,2.613,0.72c0.902,0.197,1.81,0.353,2.729,0.465c0.919,0.109,1.782,0.167,2.588,0.167
		c1.313,0,2.565-0.113,3.757-0.338c1.19-0.227,2.236-0.602,3.135-1.125c0.899-0.525,1.612-1.241,2.139-2.153
		c0.525-0.91,0.787-2.048,0.787-3.416c0-1.125-0.229-2.055-0.688-2.784c-0.461-0.734-1.073-1.336-1.842-1.815
		c-0.771-0.479-1.657-0.868-2.659-1.167c-1.002-0.299-2.058-0.581-3.164-0.847c-1.463-0.333-2.891-0.713-4.289-1.139
		c-1.396-0.419-2.643-1.007-3.739-1.757c-1.098-0.75-1.979-1.715-2.646-2.896c-0.664-1.183-0.998-2.692-0.998-4.53
		c0-1.912,0.351-3.558,1.049-4.935c0.701-1.38,1.646-2.518,2.841-3.419c1.196-0.9,2.571-1.565,4.129-1.998
		c1.553-0.431,3.215-0.646,4.976-0.646c2.007,0,3.877,0.194,5.613,0.579c1.734,0.384,3.321,0.884,4.766,1.502v4.247
		c-1.555-0.655-3.162-1.19-4.824-1.602c-1.659-0.414-3.435-0.632-5.327-0.65c-1.427,0-2.664,0.157-3.714,0.465
		c-1.051,0.308-1.923,0.752-2.617,1.322c-0.694,0.574-1.208,1.266-1.546,2.083C305.743,198.692,305.574,199.595,305.574,200.59"/>
	<path fill="#E21E26" d="M349.201,196.852c-0.299,1.724-1,4.743-2.104,9.055l-5.831,22.362h-4.655l-11.529-37.637h4.586
		l6.465,22.084c1.029,3.544,1.91,6.731,2.634,9.559h0.111c0.372-1.743,0.777-3.44,1.217-5.09c0.437-1.65,0.826-3.12,1.162-4.416
		l5.708-22.137h4.585l5.68,22.137c1.391,5.328,2.18,8.495,2.366,9.506h0.116c0.647-2.622,1.527-5.81,2.636-9.559l6.472-22.084h4.585
		l-11.538,37.637h-4.649l-5.811-22.362c-1.06-4.164-1.759-7.18-2.095-9.055H349.201L349.201,196.852z"/>
	<rect x="376.18" y="190.634" fill="#E21E26" width="4.585" height="37.636"/>
	<path fill="#E21E26" d="M390.024,200.59c0,1.109,0.224,2.021,0.674,2.745c0.449,0.72,1.051,1.315,1.809,1.785
		c0.759,0.47,1.636,0.854,2.636,1.153c1.002,0.299,2.044,0.583,3.129,0.845c1.458,0.356,2.893,0.75,4.305,1.18
		c1.412,0.433,2.669,1.025,3.773,1.787c1.102,0.759,1.995,1.748,2.678,2.967c0.684,1.217,1.023,2.785,1.023,4.696
		c0,1.951-0.368,3.632-1.109,5.048c-0.738,1.417-1.759,2.581-3.064,3.49c-1.306,0.907-2.848,1.581-4.63,2.024
		c-1.781,0.438-3.732,0.66-5.851,0.66c-0.974,0-1.974-0.062-2.995-0.181c-1.022-0.125-1.997-0.289-2.926-0.493
		c-0.928-0.208-1.766-0.443-2.519-0.706c-0.747-0.262-1.34-0.524-1.771-0.786v-4.189c0.676,0.336,1.435,0.646,2.28,0.926
		c0.843,0.282,1.713,0.521,2.612,0.72c0.9,0.197,1.811,0.353,2.729,0.465c0.919,0.109,1.782,0.167,2.588,0.167
		c1.313,0,2.565-0.113,3.754-0.338c1.192-0.227,2.238-0.602,3.136-1.125c0.9-0.525,1.613-1.241,2.14-2.153
		c0.524-0.91,0.787-2.048,0.787-3.416c0-1.125-0.229-2.055-0.688-2.784c-0.461-0.734-1.074-1.336-1.842-1.815
		c-0.771-0.479-1.657-0.868-2.659-1.167c-1.002-0.299-2.058-0.581-3.164-0.847c-1.463-0.333-2.893-0.713-4.289-1.139
		c-1.396-0.419-2.643-1.007-3.743-1.757c-1.095-0.75-1.977-1.715-2.643-2.896c-0.664-1.183-0.998-2.692-0.998-4.53
		c0-1.912,0.35-3.558,1.049-4.935c0.701-1.38,1.646-2.518,2.84-3.419c1.194-0.901,2.572-1.565,4.127-1.998
		c1.556-0.431,3.218-0.646,4.979-0.646c2.007,0,3.877,0.194,5.613,0.579c1.733,0.384,3.32,0.884,4.766,1.502v4.247
		c-1.555-0.655-3.164-1.19-4.824-1.602c-1.66-0.414-3.437-0.632-5.328-0.65c-1.426,0-2.664,0.157-3.713,0.465
		c-1.053,0.308-1.923,0.752-2.618,1.322c-0.693,0.574-1.208,1.266-1.546,2.083C390.193,198.692,390.024,199.595,390.024,200.59"/>
	<path fill="#E21E26" d="M417.244,200.59c0,1.109,0.225,2.021,0.675,2.745c0.448,0.72,1.051,1.315,1.81,1.785
		c0.757,0.47,1.636,0.854,2.636,1.153c1,0.299,2.042,0.583,3.127,0.845c1.458,0.356,2.894,0.75,4.306,1.18
		c1.412,0.433,2.669,1.025,3.772,1.787c1.103,0.759,1.995,1.748,2.678,2.967c0.684,1.217,1.023,2.785,1.023,4.696
		c0,1.951-0.368,3.632-1.109,5.048c-0.737,1.417-1.759,2.581-3.064,3.49c-1.305,0.907-2.847,1.581-4.629,2.024
		c-1.782,0.438-3.731,0.66-5.852,0.66c-0.974,0-1.972-0.062-2.995-0.181c-1.022-0.125-1.994-0.289-2.926-0.493
		c-0.928-0.208-1.766-0.443-2.516-0.706c-0.75-0.262-1.342-0.524-1.773-0.786v-4.189c0.676,0.336,1.436,0.646,2.28,0.926
		c0.842,0.282,1.715,0.521,2.613,0.72c0.902,0.197,1.81,0.353,2.729,0.465c0.919,0.109,1.782,0.167,2.588,0.167
		c1.313,0,2.565-0.113,3.757-0.338c1.19-0.227,2.236-0.602,3.135-1.125c0.899-0.525,1.612-1.241,2.139-2.153
		c0.525-0.91,0.787-2.048,0.787-3.416c0-1.125-0.229-2.055-0.688-2.784c-0.461-0.734-1.073-1.336-1.842-1.815
		c-0.771-0.479-1.657-0.868-2.66-1.167c-1.002-0.299-2.058-0.581-3.164-0.847c-1.463-0.333-2.891-0.713-4.289-1.139
		c-1.396-0.419-2.643-1.007-3.739-1.757c-1.098-0.75-1.979-1.715-2.646-2.896c-0.664-1.183-0.998-2.692-0.998-4.53
		c0-1.912,0.351-3.558,1.05-4.935c0.7-1.38,1.647-2.518,2.842-3.419c1.193-0.9,2.568-1.565,4.127-1.998
		c1.555-0.431,3.215-0.646,4.976-0.646c2.007,0,3.877,0.194,5.613,0.579c1.734,0.384,3.324,0.884,4.766,1.502v4.247
		c-1.555-0.655-3.162-1.19-4.823-1.602c-1.657-0.414-3.436-0.632-5.328-0.65c-1.427,0-2.664,0.157-3.713,0.465
		c-1.052,0.308-1.924,0.752-2.616,1.322c-0.697,0.574-1.211,1.266-1.548,2.083C417.413,198.692,417.244,199.595,417.244,200.59"/>
</g>
</svg>
