<?xml version="1.0" encoding="utf-8"?>
<!-- Generator: Adobe Illustrator 17.0.0, SVG Export Plug-In . SVG Version: 6.00 Build 0)  -->
<!DOCTYPE svg PUBLIC "-//W3C//DTD SVG 1.1//EN" "http://www.w3.org/Graphics/SVG/1.1/DTD/svg11.dtd">
<svg version="1.1" xmlns="http://www.w3.org/2000/svg" xmlns:xlink="http://www.w3.org/1999/xlink" x="0px" y="0px" width="600px"
	 height="450px" viewBox="0 0 600 450" enable-background="new 0 0 600 450" xml:space="preserve">
<g id="Layer_1">
	<g id="NtTFTi_1_">
		
			<image overflow="visible" width="2000" height="1581" id="NtTFTi" xlink:href="E38E9A23AB29EEFF.jpg"  transform="matrix(1 0 0 1 1905.2847 -583.8125)">
		</image>
	</g>
	<rect x="-5.833" y="-10.5" fill="#B3E8B3" width="616" height="470"/>
	<g id="El8QzF_3_">
		
			<image overflow="visible" enable-background="new    " width="5001" height="2048" id="El8QzF_4_" xlink:href="8BA16A6EC96EF3EC.jpg"  transform="matrix(0.9998 0 0 0.9998 601.7702 -4455.9434)">
		</image>
	</g>
	<g id="Layer_3">
	</g>
	<path d="M2351.225-506.137c-1.644-0.044-3.576,0.432-4.85-0.277c-1.31-0.728-2.633-2.578-2.707-4.002
		c-0.054-1.05,1.923-3.125,2.933-3.087c1.369,0.051,3.14,1.42,3.885,2.715c0.739,1.284,0.42,3.177,0.57,4.801
		C2351.061-505.989,2351.225-506.137,2351.225-506.137z"/>
	<path d="M1840.215-561.753c-0.715-1.3-2.19-2.776-1.941-3.852c0.278-1.197,2.145-2.815,3.286-2.789
		c1.046,0.024,2.733,1.92,2.866,3.131c0.121,1.106-1.463,2.398-2.295,3.608C1841.492-561.687,1840.854-561.72,1840.215-561.753z"/>
	<g>
		<circle fill="#FF7B00" cx="236.003" cy="262.887" r="57.789"/>
		<rect x="224.591" y="297.852" fill="#00A400" width="197.194" height="12.964"/>
		<g>
			<path fill="#00A600" d="M225.732,293.262c1.109-0.117,1.828-0.315,2.157-0.593c0.329-0.278,0.493-0.983,0.493-2.116v-13.411
				c0-1.07-0.162-1.769-0.486-2.098c-0.324-0.329-1.045-0.532-2.164-0.611v-0.559h8.509v0.559c-1.109,0.059-1.852,0.241-2.23,0.545
				c-0.378,0.304-0.567,0.957-0.567,1.958v14.485c0,0.334,0.056,0.596,0.17,0.788c0.113,0.191,0.361,0.312,0.744,0.361
				c0.226,0.029,0.464,0.049,0.715,0.059c0.25,0.01,0.72,0.015,1.407,0.015c2.682,0,4.495-0.221,5.439-0.663s1.857-1.57,2.742-3.386
				h0.766l-1.474,5.226h-16.22V293.262z"/>
			<path fill="#00A600" d="M257.364,281.449c1.04,0.957,1.56,2.314,1.56,4.07h-9.348c0.098,2.272,0.613,3.927,1.546,4.964
				c0.932,1.038,2.036,1.557,3.312,1.557c1.03,0,1.899-0.269,2.606-0.808c0.707-0.538,1.359-1.302,1.958-2.291l0.515,0.176
				c-0.403,1.249-1.156,2.403-2.26,3.465c-1.104,1.062-2.456,1.592-4.056,1.592c-1.845,0-3.271-0.697-4.276-2.09
				c-1.006-1.393-1.509-2.998-1.509-4.814c0-1.973,0.584-3.675,1.752-5.108c1.168-1.433,2.689-2.149,4.563-2.149
				C255.111,280.014,256.323,280.492,257.364,281.449z M250.312,282.575c-0.314,0.53-0.54,1.197-0.677,2.002h6.212
				c-0.108-0.981-0.294-1.712-0.559-2.193c-0.481-0.864-1.286-1.295-2.414-1.295C251.755,281.088,250.901,281.584,250.312,282.575z"
				/>
			<path fill="#00A600" d="M263.808,293.41c1.05-0.098,1.712-0.277,1.987-0.537c0.275-0.26,0.412-0.964,0.412-2.112v-7.022
				c0-0.638-0.044-1.079-0.133-1.325c-0.147-0.402-0.456-0.604-0.927-0.604c-0.108,0-0.214,0.01-0.317,0.029
				c-0.103,0.02-0.4,0.098-0.891,0.236v-0.456l0.633-0.206c1.717-0.559,2.915-0.981,3.592-1.266c0.275-0.118,0.451-0.177,0.53-0.177
				c0.02,0.069,0.03,0.142,0.03,0.221v10.569c0,1.119,0.135,1.821,0.405,2.105c0.27,0.285,0.881,0.466,1.833,0.545v0.412h-7.154
				V293.41z M266.149,273.726c0.294-0.303,0.657-0.454,1.089-0.454c0.422,0,0.782,0.149,1.082,0.447
				c0.299,0.298,0.449,0.662,0.449,1.091c0,0.42-0.15,0.779-0.449,1.077c-0.299,0.298-0.66,0.447-1.082,0.447
				c-0.432,0-0.795-0.149-1.089-0.447c-0.294-0.298-0.442-0.657-0.442-1.077S265.854,274.029,266.149,273.726z"/>
			<path fill="#00A600" d="M276.185,289.185h0.486c0.225,1.119,0.529,1.978,0.911,2.576c0.685,1.099,1.689,1.649,3.011,1.649
				c0.734,0,1.314-0.204,1.74-0.611c0.426-0.407,0.639-0.935,0.639-1.582c0-0.412-0.123-0.81-0.368-1.192
				c-0.245-0.383-0.677-0.756-1.295-1.119l-1.648-0.942c-1.207-0.648-2.095-1.3-2.665-1.958c-0.569-0.657-0.854-1.433-0.854-2.326
				c0-1.099,0.392-2.002,1.178-2.709c0.785-0.707,1.771-1.06,2.959-1.06c0.52,0,1.092,0.098,1.715,0.294
				c0.623,0.196,0.974,0.294,1.053,0.294c0.177,0,0.304-0.024,0.383-0.074c0.078-0.049,0.147-0.127,0.206-0.235h0.353l0.103,4.107
				h-0.456c-0.196-0.952-0.461-1.693-0.795-2.223c-0.609-0.981-1.487-1.472-2.635-1.472c-0.687,0-1.227,0.211-1.619,0.633
				c-0.393,0.422-0.589,0.918-0.589,1.487c0,0.903,0.677,1.708,2.031,2.414l1.943,1.045c2.09,1.138,3.136,2.463,3.136,3.975
				c0,1.158-0.434,2.105-1.301,2.841c-0.867,0.736-2.001,1.104-3.402,1.104c-0.588,0-1.254-0.098-1.999-0.294
				c-0.745-0.196-1.185-0.294-1.323-0.294c-0.118,0-0.221,0.042-0.309,0.125c-0.088,0.083-0.157,0.184-0.206,0.302h-0.383V289.185z"
				/>
			<path fill="#00A600" d="M294.024,280.19v9.421c0,0.668,0.093,1.202,0.28,1.605c0.363,0.746,1.03,1.119,2.002,1.119
				c0.667,0,1.32-0.221,1.958-0.662c0.363-0.245,0.731-0.584,1.104-1.016v-8.067c0-0.756-0.147-1.251-0.442-1.487
				c-0.294-0.235-0.883-0.378-1.767-0.427v-0.486h4.755v10.363c0,0.668,0.12,1.126,0.361,1.376c0.24,0.25,0.748,0.361,1.524,0.331
				v0.412c-0.54,0.147-0.937,0.258-1.192,0.331c-0.255,0.074-0.682,0.209-1.281,0.405c-0.255,0.088-0.815,0.299-1.678,0.633
				c-0.049,0-0.079-0.022-0.088-0.066c-0.01-0.044-0.015-0.096-0.015-0.155v-2.37c-0.667,0.795-1.276,1.384-1.825,1.767
				c-0.834,0.589-1.718,0.883-2.65,0.883c-0.854,0-1.659-0.305-2.414-0.914c-0.765-0.6-1.148-1.607-1.148-3.022v-7.65
				c0-0.779-0.167-1.3-0.5-1.563c-0.216-0.165-0.677-0.282-1.384-0.351v-0.412H294.024z"/>
			<path fill="#00A600" d="M307.579,293.336c0.903-0.078,1.502-0.238,1.796-0.478c0.294-0.24,0.442-0.753,0.442-1.538v-6.639
				c0-0.972-0.091-1.666-0.272-2.083c-0.182-0.417-0.513-0.626-0.994-0.626c-0.098,0-0.228,0.012-0.39,0.037
				c-0.162,0.025-0.331,0.057-0.508,0.096v-0.486c0.558-0.196,1.13-0.398,1.717-0.604c0.587-0.206,0.993-0.353,1.218-0.441
				c0.489-0.186,0.993-0.398,1.511-0.633c0.069,0,0.11,0.025,0.125,0.074c0.015,0.049,0.022,0.152,0.022,0.309v2.414
				c0.63-0.873,1.237-1.555,1.823-2.046c0.586-0.491,1.193-0.736,1.823-0.736c0.502,0,0.91,0.15,1.225,0.449
				c0.315,0.3,0.472,0.675,0.472,1.126c0,0.403-0.12,0.741-0.361,1.016c-0.241,0.275-0.542,0.412-0.905,0.412
				c-0.373,0-0.748-0.172-1.126-0.515c-0.378-0.343-0.675-0.515-0.891-0.515c-0.344,0-0.765,0.277-1.266,0.832
				c-0.501,0.555-0.751,1.126-0.751,1.715v6.639c0,0.844,0.196,1.43,0.589,1.759c0.392,0.329,1.045,0.483,1.958,0.464v0.486h-7.257
				V293.336z"/>
			<path fill="#00A600" d="M331.041,281.449c1.04,0.957,1.56,2.314,1.56,4.07h-9.348c0.098,2.272,0.613,3.927,1.546,4.964
				c0.932,1.038,2.036,1.557,3.312,1.557c1.03,0,1.899-0.269,2.606-0.808c0.707-0.538,1.359-1.302,1.958-2.291l0.515,0.176
				c-0.402,1.249-1.156,2.403-2.26,3.465c-1.104,1.062-2.456,1.592-4.056,1.592c-1.845,0-3.271-0.697-4.276-2.09
				c-1.006-1.393-1.509-2.998-1.509-4.814c0-1.973,0.584-3.675,1.752-5.108c1.168-1.433,2.689-2.149,4.563-2.149
				C328.789,280.014,330,280.492,331.041,281.449z M323.99,282.575c-0.314,0.53-0.54,1.197-0.677,2.002h6.212
				c-0.108-0.981-0.294-1.712-0.559-2.193c-0.481-0.864-1.286-1.295-2.414-1.295C325.432,281.088,324.578,281.584,323.99,282.575z"
				/>
		</g>
		<g>
			<path fill="#00A600" d="M347.518,293.262c1.187-0.127,1.926-0.344,2.216-0.652c0.289-0.308,0.434-1.111,0.434-2.41v-13.057
				c0-1.07-0.162-1.769-0.486-2.098c-0.324-0.329-1.045-0.532-2.164-0.611v-0.559h16.06l0.103,4.313h-0.839
				c-0.206-1.377-0.594-2.249-1.163-2.615c-0.569-0.366-1.693-0.55-3.371-0.55h-4.134c-0.404,0-0.662,0.069-0.775,0.206
				c-0.113,0.138-0.17,0.407-0.17,0.81v6.727h4.372c1.286,0,2.105-0.19,2.458-0.571s0.638-1.152,0.854-2.314h0.707v6.963h-0.707
				c-0.226-1.168-0.515-1.941-0.868-2.318c-0.353-0.378-1.168-0.567-2.444-0.567h-4.372v6.595c0,1.103,0.169,1.808,0.508,2.116
				c0.339,0.308,1.077,0.505,2.215,0.593v0.559h-8.435V293.262z"/>
			<path fill="#00A600" d="M370.199,287.33c0.903-0.589,2.704-1.389,5.403-2.4v-1.251c0-1.001-0.098-1.698-0.294-2.09
				c-0.334-0.657-1.026-0.986-2.076-0.986c-0.501,0-0.977,0.128-1.428,0.383c-0.452,0.265-0.677,0.628-0.677,1.089
				c0,0.118,0.024,0.317,0.074,0.596c0.049,0.28,0.074,0.459,0.074,0.537c0,0.55-0.182,0.932-0.545,1.148
				c-0.206,0.128-0.452,0.191-0.736,0.191c-0.442,0-0.78-0.145-1.016-0.434c-0.236-0.289-0.353-0.611-0.353-0.964
				c0-0.687,0.424-1.406,1.273-2.157c0.849-0.751,2.093-1.126,3.732-1.126c1.904,0,3.194,0.618,3.872,1.855
				c0.363,0.677,0.545,1.663,0.545,2.959v5.903c0,0.569,0.039,0.962,0.118,1.178c0.127,0.383,0.392,0.574,0.795,0.574
				c0.226,0,0.412-0.034,0.559-0.103c0.147-0.068,0.402-0.236,0.766-0.5v0.765c-0.314,0.383-0.653,0.697-1.016,0.942
				c-0.55,0.373-1.109,0.559-1.678,0.559c-0.668,0-1.151-0.216-1.45-0.648c-0.299-0.432-0.464-0.947-0.493-1.546
				c-0.746,0.648-1.384,1.129-1.914,1.443c-0.893,0.53-1.742,0.795-2.547,0.795c-0.844,0-1.575-0.297-2.193-0.891
				c-0.618-0.594-0.927-1.347-0.927-2.26C368.065,289.47,368.776,288.282,370.199,287.33z M375.602,285.667
				c-1.129,0.373-2.061,0.785-2.797,1.237c-1.413,0.874-2.12,1.865-2.12,2.973c0,0.893,0.294,1.551,0.883,1.973
				c0.383,0.275,0.81,0.412,1.281,0.412c0.648,0,1.268-0.182,1.862-0.545c0.594-0.363,0.891-0.824,0.891-1.384V285.667z"/>
			<path fill="#00A600" d="M383.489,293.336c0.903-0.078,1.502-0.238,1.796-0.478c0.294-0.24,0.442-0.753,0.442-1.538v-6.639
				c0-0.972-0.091-1.666-0.272-2.083c-0.182-0.417-0.513-0.626-0.994-0.626c-0.098,0-0.228,0.012-0.39,0.037
				c-0.162,0.025-0.331,0.057-0.508,0.096v-0.486c0.558-0.196,1.13-0.398,1.717-0.604c0.587-0.206,0.993-0.353,1.218-0.441
				c0.489-0.186,0.993-0.398,1.511-0.633c0.069,0,0.11,0.025,0.125,0.074c0.015,0.049,0.022,0.152,0.022,0.309v2.414
				c0.63-0.873,1.237-1.555,1.823-2.046c0.586-0.491,1.193-0.736,1.823-0.736c0.502,0,0.91,0.15,1.225,0.449
				c0.315,0.3,0.472,0.675,0.472,1.126c0,0.403-0.12,0.741-0.361,1.016c-0.24,0.275-0.542,0.412-0.905,0.412
				c-0.373,0-0.748-0.172-1.126-0.515c-0.378-0.343-0.675-0.515-0.891-0.515c-0.344,0-0.765,0.277-1.266,0.832
				c-0.501,0.555-0.751,1.126-0.751,1.715v6.639c0,0.844,0.196,1.43,0.589,1.759c0.392,0.329,1.045,0.483,1.958,0.464v0.486h-7.257
				V293.336z"/>
			<path fill="#00A600" d="M396.897,293.439c0.766-0.068,1.276-0.196,1.531-0.383c0.392-0.285,0.589-0.854,0.589-1.708v-7.611
				c0-0.726-0.096-1.202-0.287-1.428c-0.191-0.226-0.508-0.339-0.949-0.339c-0.206,0-0.361,0.01-0.464,0.029
				c-0.103,0.02-0.223,0.054-0.361,0.103v-0.515l1.06-0.353c0.383-0.127,1.011-0.358,1.884-0.692c0.873-0.334,1.335-0.5,1.384-0.5
				c0.049,0,0.078,0.025,0.088,0.074c0.01,0.049,0.015,0.142,0.015,0.28v1.987c0.972-0.883,1.811-1.494,2.517-1.833
				c0.707-0.339,1.433-0.508,2.179-0.508c1.011,0,1.815,0.344,2.414,1.03c0.314,0.373,0.574,0.878,0.78,1.516
				c0.726-0.736,1.359-1.281,1.899-1.634c0.932-0.608,1.884-0.913,2.856-0.913c1.58,0,2.635,0.643,3.165,1.928
				c0.304,0.726,0.456,1.875,0.456,3.445v6.109c0,0.697,0.155,1.17,0.464,1.421c0.309,0.25,0.866,0.415,1.671,0.493v0.383h-6.639
				v-0.412c0.854-0.078,1.415-0.25,1.686-0.515c0.27-0.265,0.405-0.805,0.405-1.619v-6.345c0-0.952-0.103-1.653-0.309-2.105
				c-0.363-0.805-1.075-1.207-2.135-1.207c-0.638,0-1.271,0.211-1.899,0.633c-0.363,0.245-0.81,0.638-1.34,1.178v7.537
				c0,0.795,0.14,1.398,0.42,1.811c0.28,0.412,0.871,0.633,1.774,0.662v0.383h-6.757v-0.383c0.932-0.118,1.526-0.343,1.781-0.677
				c0.255-0.333,0.383-1.158,0.383-2.473v-4.114c0-1.508-0.098-2.546-0.294-3.114c-0.324-0.962-1.011-1.443-2.061-1.443
				c-0.599,0-1.187,0.164-1.766,0.493c-0.579,0.329-1.089,0.758-1.531,1.288v8.052c0,0.746,0.13,1.261,0.39,1.546
				c0.26,0.285,0.827,0.432,1.7,0.442v0.383h-6.698V293.439z"/>
		</g>
		<g>
			<path fill="#FFFFFF" d="M237.558,300.336h1.486c0.99,0,1.661,0.038,2.011,0.115c0.351,0.077,0.636,0.272,0.857,0.586
				c0.221,0.314,0.331,0.815,0.331,1.503c0,0.628-0.078,1.05-0.234,1.266c-0.156,0.216-0.464,0.346-0.922,0.389
				c0.415,0.103,0.695,0.241,0.837,0.414c0.143,0.173,0.232,0.331,0.267,0.476c0.035,0.145,0.052,0.543,0.052,1.194v2.129h-1.949
				v-2.682c0-0.432-0.034-0.7-0.102-0.803c-0.068-0.103-0.247-0.155-0.536-0.155v3.639h-2.099V300.336z M239.657,301.717v1.795
				c0.236,0,0.401-0.032,0.496-0.097c0.095-0.065,0.142-0.275,0.142-0.631v-0.444c0-0.256-0.046-0.424-0.137-0.503
				C240.067,301.756,239.9,301.717,239.657,301.717z"/>
			<path fill="#FFFFFF" d="M271.438,300.336h3.5v1.615h-1.401v1.53h1.311v1.535h-1.311v1.775h1.54v1.615h-3.639V300.336z"/>
			<path fill="#FFFFFF" d="M308.509,302.778h-1.949v-0.598c0-0.279-0.025-0.457-0.075-0.533c-0.05-0.076-0.133-0.115-0.249-0.115
				c-0.126,0-0.222,0.052-0.287,0.155c-0.065,0.103-0.097,0.259-0.097,0.469c0,0.269,0.036,0.472,0.109,0.609
				c0.07,0.136,0.267,0.301,0.593,0.493c0.934,0.555,1.523,1.01,1.765,1.365c0.243,0.356,0.364,0.929,0.364,1.72
				c0,0.575-0.067,0.999-0.202,1.271c-0.135,0.272-0.395,0.501-0.78,0.685c-0.386,0.184-0.834,0.277-1.346,0.277
				c-0.562,0-1.041-0.106-1.438-0.319c-0.397-0.213-0.657-0.484-0.78-0.813c-0.123-0.329-0.184-0.796-0.184-1.401v-0.528h1.949
				v0.982c0,0.302,0.027,0.497,0.082,0.583c0.055,0.086,0.152,0.13,0.292,0.13c0.14,0,0.243-0.055,0.312-0.165
				c0.068-0.11,0.102-0.272,0.102-0.488c0-0.475-0.065-0.786-0.194-0.932c-0.133-0.146-0.46-0.39-0.982-0.733
				c-0.522-0.346-0.867-0.597-1.037-0.753c-0.17-0.156-0.31-0.372-0.421-0.648c-0.111-0.276-0.167-0.628-0.167-1.057
				c0-0.618,0.079-1.07,0.237-1.356c0.158-0.286,0.413-0.509,0.765-0.67s0.778-0.242,1.276-0.242c0.545,0,1.01,0.088,1.393,0.264
				c0.384,0.176,0.638,0.398,0.763,0.665c0.125,0.267,0.187,0.722,0.187,1.363V302.778z"/>
			<path fill="#FFFFFF" d="M342.518,305.061c0,0.811-0.019,1.385-0.057,1.722c-0.038,0.337-0.158,0.646-0.359,0.925
				c-0.201,0.279-0.473,0.494-0.815,0.643c-0.342,0.15-0.741,0.224-1.196,0.224c-0.432,0-0.82-0.071-1.164-0.212
				c-0.344-0.141-0.621-0.353-0.83-0.636c-0.209-0.282-0.334-0.59-0.374-0.922c-0.04-0.332-0.06-0.914-0.06-1.745v-1.381
				c0-0.811,0.019-1.385,0.057-1.722c0.038-0.337,0.158-0.646,0.359-0.925c0.201-0.279,0.473-0.494,0.815-0.643
				c0.342-0.15,0.741-0.224,1.196-0.224c0.432,0,0.82,0.071,1.164,0.212c0.344,0.141,0.621,0.353,0.83,0.636
				c0.209,0.282,0.334,0.59,0.374,0.922c0.04,0.332,0.06,0.914,0.06,1.745V305.061z M340.419,302.409
				c0-0.376-0.021-0.616-0.062-0.72c-0.042-0.105-0.127-0.157-0.257-0.157c-0.11,0-0.194,0.042-0.252,0.127
				c-0.058,0.085-0.087,0.335-0.087,0.75v3.769c0,0.469,0.019,0.758,0.057,0.867c0.038,0.11,0.127,0.165,0.267,0.165
				c0.143,0,0.234-0.063,0.274-0.189c0.04-0.126,0.06-0.427,0.06-0.902V302.409z"/>
			<path fill="#FFFFFF" d="M371.682,300.336h1.486c0.99,0,1.661,0.038,2.011,0.115c0.351,0.077,0.636,0.272,0.857,0.586
				c0.221,0.314,0.332,0.815,0.332,1.503c0,0.628-0.078,1.05-0.234,1.266c-0.156,0.216-0.464,0.346-0.922,0.389
				c0.415,0.103,0.695,0.241,0.837,0.414c0.143,0.173,0.232,0.331,0.267,0.476c0.035,0.145,0.052,0.543,0.052,1.194v2.129h-1.949
				v-2.682c0-0.432-0.034-0.7-0.102-0.803c-0.068-0.103-0.247-0.155-0.536-0.155v3.639h-2.099V300.336z M373.781,301.717v1.795
				c0.236,0,0.401-0.032,0.496-0.097c0.095-0.065,0.142-0.275,0.142-0.631v-0.444c0-0.256-0.046-0.424-0.137-0.503
				C374.19,301.756,374.023,301.717,373.781,301.717z"/>
			<path fill="#FFFFFF" d="M409.789,300.336v1.615h-1.246v6.456h-2.099v-6.456h-1.241v-1.615H409.789z"/>
		</g>
		<path fill="#00A600" d="M244.859,129.324c0,0,32.318,23.189,35.422,25.38c3.104,2.191,12.781,6.756,13.694,17.528
			c0.913,10.773,3.652,23.006,7.303,25.197c3.652,2.191,5.478,4.565,5.478,4.565s-0.73-13.146,4.017-20.45
			c4.747-7.303,2.191-16.798-0.365-21.18c-2.556-4.382-6.938-10.773-6.938-10.773s9.312,6.391,9.86,7.669s-0.73-16.068-7.669-22.458
			c-7.091-6.531,17.346,11.868,24.832,39.621c7.486,27.753-1.826,31.405-2.556,35.97c-0.73,4.565-5.66,9.677,0.365,18.441
			c6.025,8.764,10.773,11.138,8.764,14.242c-2.008,3.104-8.399,7.486-16.981,8.947s-18.989,0.548-24.467,5.66
			c-5.478,5.112-11.503,5.66-13.329,9.312c-1.826,3.652-5.478,8.399-5.478,8.399s-12.416-7.303-17.346-6.573
			c-4.93,0.73,15.52-5.112,19.902-11.686s16.25-10.225,13.877-23.006c-2.374-12.781-10.042-16.433-11.138-19.719
			c-1.096-3.287-8.399-11.503-11.138-21.728c-2.739-10.225-6.938-25.014-11.868-28.301s-4.93-3.287-4.93-3.287
			s2.921-3.834-2.739-6.573s-3.834-2.556-3.834-2.556s8.947,0.548,2.739-4.565c-6.208-5.112-7.669-8.034-7.669-8.034
			s9.129,6.573,10.59,3.652C254.718,140.097,247.78,133.158,244.859,129.324z"/>
		<path fill="#00A600" d="M337.613,222.809c0,0,12.051-9.86,18.989-2.556c6.938,7.303,13.877,11.138,13.877,11.138
			s-11.503,2.374-11.686,4.017c-0.183,1.643,2.556-7.121-3.469-9.129C349.299,224.27,347.473,222.261,337.613,222.809z"/>
	</g>
</g>
<g id="Layer_3_1_">
</g>
<g id="Layer_2_1_">
</g>
</svg>
