<?xml version="1.0" encoding="utf-8"?>
<!-- Generator: Adobe Illustrator 17.0.0, SVG Export Plug-In . SVG Version: 6.00 Build 0)  -->
<!DOCTYPE svg PUBLIC "-//W3C//DTD SVG 1.1//EN" "http://www.w3.org/Graphics/SVG/1.1/DTD/svg11.dtd">
<svg version="1.1" xmlns="http://www.w3.org/2000/svg" xmlns:xlink="http://www.w3.org/1999/xlink" x="0px" y="0px" width="600px"
	 height="450px" viewBox="0 0 600 450" enable-background="new 0 0 600 450" xml:space="preserve">
<g id="Layer_2">
	<rect x="-5.833" y="-10.5" fill="#E8E8E8" width="616" height="470"/>
	<path d="M-3520.994,1556.61c12.555-19.254,26.757-37.293,41.707-54.73c42.408-49.466,91.129-91.534,147.434-124.55
		c51.523-30.213,106.39-51.939,164.696-65.172c48.334-10.97,97.221-16.687,146.709-15.167c24.238,0.745,48.511,3.377,72.559,6.683
		c55.774,7.668,107.82,26.767,156.745,54.318c55.392,31.193,101.584,72.923,139.425,123.911
		c39.189,52.805,67.096,111.026,83.263,174.815c11.22,44.267,15.185,89.19,12.719,134.782
		c-5.284,97.722-41.135,183.147-103.84,257.583c-37.922,45.017-82.027,82.731-134.744,109.699
		c-49.791,25.471-102.577,37.297-158.434,32.805c-51.629-4.152-99.132-20.617-140.09-52.92
		c-49.297-38.88-74.336-89.606-70.98-153.08c4.014-75.918,61.648-141.072,136.339-154.339c20.682-3.674,41.104-0.949,61.564,2.638
		c16.032,2.811,32.357,6.957,48.366,6.257c30.97-1.353,58.869-11.677,77.219-39.02c9.308-13.87,13.541-29.686,14.452-46.215
		c1.745-31.639-3.115-61.983-14.207-92.048c-8.553-23.184-17.025-46.206-28.799-67.916c-22.343-41.197-52.015-76.535-87.333-107.098
		c-52.048-45.04-112.211-73.737-179.641-87.064c-37.166-7.346-74.618-8.828-112.364-4.509
		c-70.889,8.112-134.587,33.944-191.732,76.416c-20.216,15.025-37.302,33.12-52.865,52.81
		c-8.648,10.941-17.728,21.541-26.613,32.295C-3519.957,1557.399-3520.476,1557.005-3520.994,1556.61z"/>
	<path d="M-1805.492,2141.503c0-166.138,0-331.557,0-497.657c40.355,0,80.109,0,121.235,0
		c-13.555,31.568-22.132,63.69-27.326,96.914c6.13,1.778,7.568-2.107,9.025-5.197c8.655-18.359,21.289-33.809,35.485-47.978
		c41.148-41.073,91.142-60.376,149.031-58.466c30.963,1.022,60.524,9.086,88.585,22.22c12.859,6.018,23.024,15.762,33.084,25.526
		c5.677,5.509,6.63,5.726,12.365,0.824c33.936-29.005,73.953-42.762,117.723-47.287c33.571-3.47,66.685-1.392,98.659,9.814
		c58.244,20.413,99.032,58.914,118.732,118.09c9.038,27.147,11.169,55.452,11.207,83.881c0.131,97.977,0.116,195.954,0.122,293.931
		c0,1.596-0.447,3.192-0.768,5.342c-2.153,0.294-4.036,0.775-5.919,0.775c-42.99-0.006-85.98-0.056-128.971-0.118
		c-9.356-0.014-9.305-0.05-9.306-9.431c-0.002-81.983,0.094-163.967-0.141-245.949c-0.045-15.639-0.615-31.361-2.317-46.895
		c-5.221-47.646-34.474-70.324-79.908-73.486c-24.333-1.693-46.814,5.145-68,16.696c-6.141,3.348-12.084,7.059-18.234,10.389
		c-4.512,2.443-6.159,5.441-4.08,10.578c5.741,14.182,6.394,29.168,6.392,44.225c-0.01,92.315-0.005,184.629-0.005,276.944
		c0,5.23,0,10.461,0,16.348c-48.844,0-96.598,0-144.898,0c-0.345-2.431-0.847-4.316-0.846-6.2
		c0.041-98.645,0.164-197.289,0.163-295.934c0-15.581-2.66-30.571-12.356-43.45c-14.955-19.866-35.835-28.404-59.774-29.52
		c-28.126-1.312-54.022,6.887-77.702,21.824c-16.624,10.487-14.36,5.889-14.369,25.835c-0.048,105.644-0.022,211.287-0.022,316.931
		c0,3.227,0,6.454,0,10.483C-1707.939,2141.503-1756.077,2141.503-1805.492,2141.503z"/>
	<path d="M-1894.202,2002.859c0,46.728,0,92.219,0,137.505c-7.803,2.289-439.264,2.682-450.407,0.483c0-228.301,0-456.73,0-685.092
		c7.127-2.223,413.652-2.957,428.273-0.693c0,43.592,0,87.339,0,132.123c-2.769,0.217-5.624,0.637-8.479,0.637
		c-82.31,0.02-164.619-0.003-246.928-0.017c-10.095-0.002-10.896,0.722-10.906,10.612c-0.033,32.99-0.022,65.979-0.019,98.969
		c0.001,9.231,0.906,10.285,10.288,10.301c38.989,0.064,77.978,0.052,116.966,0.012c25.99-0.027,51.981-0.158,77.971-0.211
		c1.283-0.003,2.566,0.287,5.261,0.609c0.459,22.585-0.029,45.083,0.124,67.562c0.151,22.257,0.033,44.516,0.033,67.538
		c-3.294,0.313-5.824,0.762-8.354,0.764c-63.314,0.048-126.629,0.048-189.943,0.055c-1.666,0-3.332-0.01-4.998-0.046
		c-4.885-0.105-7.542,2.054-7.366,7.161c0.057,1.664,0.054,3.332,0.054,4.997c0.001,44.987,0.021,89.973-0.018,134.96
		c-0.01,11.285,0.232,11.685,11.788,11.692c80.31,0.044,160.619,0.057,240.928,0.078
		C-1918.33,2002.862-1906.724,2002.859-1894.202,2002.859z"/>
	<path d="M-4.548,2308.233c9.042,2.122,17.317,4.159,25.638,5.997c14.877,3.285,29.618,3.08,44.523-0.633
		c17.787-4.43,31.213-14.44,41.258-29.44c11.221-16.756,18.638-35.327,25.324-54.178c4.786-13.493,8.747-27.276,13.308-40.851
		c1.546-4.601,1.824-8.825,0.326-13.583c-20.403-64.822-40.657-129.691-60.926-194.556c-27.125-86.803-54.237-173.61-81.342-260.419
		c-8.338-26.705-16.642-53.422-24.924-80.145c-0.279-0.9-0.162-1.922-0.28-3.617c2.277-0.3,4.421-0.827,6.564-0.828
		c54.315-0.038,108.631-0.003,162.946-0.035c7.96-0.005,8.095-0.171,10.292,7.464c17.409,60.504,34.739,121.03,52.142,181.536
		c7.366,25.609,14.884,51.175,22.246,76.785c1.286,4.471,2.133,9.068,3.186,13.606c0.672,2.9,1.014,6.763,4.898,6.177
		c1.723-0.26,3.768-3.48,4.31-5.689c5.877-23.927,11.438-47.932,17.18-71.893c7.917-33.044,15.874-66.078,23.89-99.098
		c8.171-33.665,16.424-67.31,24.665-100.958c1.971-8.047,2.014-7.954,9.796-7.961c54.979-0.049,109.957-0.138,164.935-0.177
		c0.945-0.001,1.891,0.462,3.663,0.924c-0.34,2.159-0.358,4.361-1.045,6.329c-21.721,62.278-43.508,124.534-65.285,186.792
		c-22.107,63.202-44.211,126.404-66.324,189.604c-20.463,58.483-40.961,116.954-61.393,175.448
		c-8.018,22.953-14.928,46.345-24.035,68.853c-21.669,53.561-53.464,100.506-96.337,139.442c-23.862,21.671-50.546,39-81.779,48.706
		c-24.101,7.49-48.546,7.509-73.239,5.14c-5.304-0.509-10.595-1.161-15.882-1.821c-7.742-0.967-8.4-1.659-8.397-9.296
		c0.015-40.655,0.063-81.309,0.099-121.964C-4.545,2318.982-4.548,2314.07-4.548,2308.233z"/>
	<path d="M-476.451,1935.183c-4.373,0-7.922,0-11.472,0c-103.33,0-206.661-0.003-309.991,0.009c-4.666,0-9.332,0.111-13.997,0.211
		c-4.43,0.095-6.985,2.051-6.348,6.82c4.061,30.376,16.873,55.28,44.631,70.644c16.576,9.175,34.626,13.988,53.28,15.979
		c34.326,3.663,68.605,2.181,102.621-3.473c22.648-3.764,45.47-7.192,67.621-13.026c20.209-5.323,39.616-13.688,59.384-20.692
		c1.209-0.428,2.479-0.684,4.463-1.22c0.478,2.119,1.22,3.887,1.224,5.656c0.068,36.33,0.057,72.66,0.047,108.99
		c-0.003,9.618-0.02,9.631-8.764,12.9c-46.435,17.362-94.34,28.323-143.62,33.698c-28.269,3.083-56.623,3.965-84.841,1.651
		c-61.203-5.02-117.468-23.456-164.175-65.268c-37.813-33.85-60.715-76.37-71.546-125.563c-9.818-44.591-9.827-89.407-0.052-133.948
		c16.348-74.487,55.197-132.926,123.875-169.146c25.304-13.345,52.49-20.692,80.933-24.187
		c42.099-5.173,83.198-1.546,123.159,12.577c56.627,20.013,97.094,58.212,123.304,111.816c20.111,41.13,28.685,85.057,30.188,130.51
		C-476.044,1904.694-476.451,1919.297-476.451,1935.183z M-818.267,1830.292c8.974,2.8,200.226,2.935,208.611,0.493
		c1.885-6.29-2.017-11.495-3.948-16.895c-10.631-29.734-30.254-50.921-61.026-59.748c-28.852-8.277-57.933-8.235-86.359,2.568
		C-794.664,1769.507-809.395,1797.124-818.267,1830.292z"/>
	<path d="M-239.129,2141.601c-48.701,0-96.533,0-145.156,0c0-165.804,0-331.217,0-497.552c40.561,0,80.982,0,122.302,0
		c-5.402,15.972-11.436,31.634-15.936,47.725c-4.502,16.098-8.411,32.462-10.044,49.679c6.191,0.347,7.119-3.726,8.801-6.676
		c4.121-7.228,7.557-14.896,12.164-21.788c25.645-38.362,60.467-63.609,106.459-71.258c23.759-3.952,47.824-3.042,71.721,0.44
		c4.716,0.687,7.002,2.802,6.981,7.833c-0.163,37.994-0.167,75.988-0.286,113.982c-0.004,1.229-0.711,2.456-1.275,4.278
		c-4.754-0.891-9.255-1.746-13.761-2.577c-27.559-5.08-54.319-1.175-80.872,6.654c-19.825,5.846-37.684,14.894-53.136,28.765
		c-5.068,4.549-7.539,9.325-7.523,16.389c0.242,105.99,0.227,211.981,0.246,317.971
		C-238.446,2137.084-238.795,2138.702-239.129,2141.601z"/>
	<path d="M-2364.16,2365.438c0.833-40.008,16.615-72.142,52.546-91.184c50.959-27.008,119.593-5.215,139.142,60.25
		c7.255,24.296,6.943,48.802-2.167,72.617c-14.509,37.927-50.127,66.328-102.137,61.98c-47.363-3.959-85.857-45.161-87.371-94.67
		C-2364.24,2371.437-2364.16,2368.436-2364.16,2365.438z M-2265.908,2452.144c21.613,0.075,44.028-10.256,58.037-26.776
		c26.48-31.226,28.03-76.378,4.937-109.66c-35.753-51.528-98.616-41.869-126.249-0.982c-18.673,27.63-21.43,57.492-8.504,88.434
		C-2325.605,2432.084-2296.185,2452.039-2265.908,2452.144z"/>
	<path d="M-1124.203,2464.893c0-42.016,0-83.79,0-126.194c5.766,0,10.909,0,16.612,0c0.749,2.949,1.453,5.72,2.1,8.267
		c4.56,2.768,7.051-0.583,9.964-2.571c12.227-8.342,25.452-12.871,40.485-10.707c11.662,1.678,21.598,6.389,29.133,15.729
		c1.61,1.995,3.726,3.583,6.048,5.771c2.158-1.722,4.016-2.96,5.586-4.494c18.563-18.131,47.226-22.575,70.339-10.804
		c13.177,6.711,20.382,17.738,22.789,32.086c0.549,3.273,0.878,6.625,0.884,9.941c0.045,25.642-0.022,51.283-0.032,76.925
		c-0.001,3.042,0.284,6.905-3.517,7.179c-4.78,0.344-9.779-0.299-14.41-1.538c-1.039-0.278-1.302-4.789-1.316-7.354
		c-0.107-20.315-0.058-40.631-0.08-60.946c-0.004-3.662,0.04-7.334-0.2-10.985c-1.559-23.673-22.153-38.442-44.873-31.69
		c-6.254,1.859-12.31,5.093-17.775,8.723c-7.201,4.782-10.954,11.178-10.607,20.916c0.852,23.948,0.271,47.948,0.22,71.926
		c-0.007,3.251-0.277,6.502-0.461,10.558c-6.118,0-11.565,0-18.202,0c-0.217-2.675-0.64-5.494-0.644-8.314
		c-0.026-22.647,0.045-45.293,0.051-67.94c0.003-10.285-2.098-19.894-9.654-27.503c-11.926-12.01-28.131-14.087-44.168-5.726
		c-1.767,0.921-3.392,2.112-5.121,3.111c-10.859,6.271-16.739,14.238-15.854,28.209c1.429,22.557,0.383,45.27,0.424,67.916
		c0.02,11.061,0.062,11.06-10.895,10.884c-1.325-0.021-2.658,0.047-3.971-0.088
		C-1121.964,2466.118-1122.537,2465.668-1124.203,2464.893z"/>
	<path d="M-1479.929,2465.525c0-66.052,0-131.124,0-196.988c6.311,0,12.013,0,18.859,0c0,26.421,0,52.095,0,79.829
		c4.198-2.177,7.027-3.015,9.033-4.785c14.579-12.869,46.425-13.172,63.26-2.021c10.74,7.114,18.271,16.581,20.112,29.626
		c1.159,8.214,2.064,16.529,2.193,24.812c0.324,20.972,0.175,41.951,0.13,62.928c-0.005,2.221-0.569,4.441-0.94,7.152
		c-6.041,0-11.568,0-17.721,0c-0.257-2.305-0.716-4.515-0.717-6.726c-0.016-22.308,0.042-44.616,0.082-66.924
		c0.014-8.11-1.229-15.869-5.552-22.979c-11.062-18.191-32.929-23.772-53.301-13.22c-4.096,2.121-7.779,5.104-11.465,7.934
		c-4.232,3.25-5.635,7.426-5.535,13.039c0.458,25.96,0.393,51.931,0.37,77.898c-0.01,11.507-0.167,11.532-11.822,11.237
		C-1474.878,2466.29-1476.805,2465.901-1479.929,2465.525z"/>
	<path d="M-1896.107,2440.109c0,4.524,0.401,9.378-0.206,14.104c-0.229,1.784-2.48,3.931-4.331,4.79
		c-19.104,8.858-38.932,13.269-60.107,9.533c-28.669-5.057-49.721-27.021-52.908-56.047c-1.852-16.87,0.047-33.262,8.651-48.32
		c18.591-32.538,57.294-37.097,84.248-21.869c19.279,10.892,30.835,37.842,26.25,60.764c-1.991,0.222-4.199,0.686-6.406,0.682
		c-27.288-0.051-54.576-0.171-81.864-0.272c-0.998-0.004-1.999-0.042-2.995,0.008c-7.886,0.395-9.439,2.153-8.618,9.721
		c2.047,18.857,16.354,34.793,34.928,39.181c19.22,4.541,36.869,0.03,53.824-8.915c2.619-1.382,5.292-2.664,7.963-3.942
		C-1897.474,2439.428-1897.077,2439.735-1896.107,2440.109z M-1952.306,2390.663c0-0.005,0-0.01,0-0.016
		c10.955,0,21.911,0.117,32.864-0.04c7.906-0.113,9.337-2.094,7.407-9.808c-2.321-9.276-6.837-17.201-14.538-23.151
		c-24.875-19.22-61.213-5.007-66.275,25.948c-0.832,5.086,0.634,6.904,6.684,7.01
		C-1974.882,2390.803-1963.593,2390.663-1952.306,2390.663z"/>
	<path d="M-1187.991,2439.126c0,5.39,0.462,9.711-0.188,13.858c-0.343,2.189-2.168,5.03-4.098,5.95
		c-21.36,10.183-43.684,14.346-66.942,8.129c-19.923-5.326-34.185-17.884-41.368-37.264c-10.102-27.257-7.586-53.33,11.517-76.007
		c26.951-31.995,86.105-25.028,100.32,18.501c2.44,7.471,2.899,15.657,3.705,23.572c0.72,7.068-0.263,7.759-7.787,7.749
		c-26.632-0.034-53.263-0.086-79.895-0.136c-14.222-0.027-15.391,1.292-12.318,14.764c4.207,18.442,16.328,29.064,34.021,34.154
		c13.413,3.858,26.485,1.624,39.202-2.712C-1204.08,2447.044-1196.789,2443.081-1187.991,2439.126z M-1244.151,2390.67
		c0-0.02,0-0.04,0-0.059c4.327,0,8.654-0.003,12.98,0.001c4.66,0.005,9.329-0.171,13.977,0.061
		c14.64,0.73,18.198-0.595,11.031-17.175c-7.428-17.186-24.003-26.108-44.011-23.995c-16.18,1.708-30.493,15.411-33.789,32.347
		c-1.277,6.562,0.171,8.655,6.862,8.77C-1266.12,2390.808-1255.135,2390.67-1244.151,2390.67z"/>
	<path d="M-1702.135,2401.261c-0.181,39.783-29.599,68.617-69.841,68.628c-28.736,0.008-51.166-11.88-63.929-38.21
		c-17.873-36.875-2.463-84.174,44.771-95.597c32.803-7.933,66.479,6.523,81.37,34.294
		C-1704.468,2380.251-1701.598,2390.73-1702.135,2401.261z M-1824.637,2402.037c-0.207,29.27,22.997,52.79,52.679,52.301
		c33.599-0.553,51.375-25.198,52.037-50.836c0.724-27.989-24.41-53.053-52.644-53.394
		C-1801.06,2349.765-1824.432,2373.072-1824.637,2402.037z"/>
	<path d="M-592.193,2358.973c1.18-4.792,1.638-9.496,3.567-13.488c1.272-2.633,4.336-5.179,7.155-6.157
		c16.34-5.664,33.124-7.344,50.147-3.533c17.851,3.997,29.652,16.82,30.084,35.034c0.725,30.603,0.244,61.235,0.232,91.855
		c0,0.603-0.474,1.206-1.144,2.803c-4.932,0-10.296,0-15.686,0c-0.392-0.531-1.078-1.031-1.124-1.584
		c-0.927-11.229-2.135-11.861-11.155-5.729c-12.575,8.55-26.374,12.124-41.605,11.07c-31.599-2.187-39.73-34.74-25.744-55.411
		c8.793-12.996,22.019-19.146,36.648-22.177c10.373-2.149,21.055-2.926,31.638-3.901c8.946-0.824,10.48-2.288,9.585-11.033
		c-1.563-15.275-10.88-24.993-26.023-26.926c-14.292-1.824-27.87,0.263-40.373,7.818c-1.129,0.682-2.339,1.238-3.543,1.781
		C-589.785,2359.509-590.179,2359.31-592.193,2358.973z M-519.611,2418.095c0.1,0,0.201,0,0.301,0c0-3.659,0.052-7.319-0.011-10.978
		c-0.124-7.195-2.004-9.236-9.158-7.798c-11.388,2.29-22.742,4.956-33.865,8.281c-7.724,2.308-14.4,6.836-19.052,13.803
		c-6.199,9.283-5.005,19.617,3.419,26.872c6.128,5.278,13.493,7.757,21.352,5.943c7.05-1.627,14.022-4.123,20.591-7.178
		c11.671-5.427,19.86-13.403,16.431-27.948C-519.676,2418.777-519.611,2418.428-519.611,2418.095z"/>
	<path d="M-339.58,2437.185c7.831,3.875,13.593,7.205,19.708,9.655c13.697,5.486,27.648,10.045,42.688,5.715
		c2.54-0.731,5.136-1.59,7.391-2.924c6.566-3.886,11.675-8.999,11.924-17.251c0.257-8.525-5.028-13.758-11.872-16.988
		c-6.875-3.245-14.306-5.354-21.574-7.713c-9.5-3.083-19.163-5.679-28.606-8.921c-15.304-5.253-22.692-15.61-22.356-30.59
		c0.298-13.297,9.233-24.895,23.223-29.335c18.713-5.94,37.434-5.469,55.935,1.103c8.88,3.155,9.207,3.808,9.338,13.663
		c0.025,1.894,0.004,3.789,0.004,7.064c-3.421-1.521-5.716-2.48-7.96-3.549c-11.984-5.708-24.552-8.352-37.819-7.06
		c-7.163,0.698-13.643,3.186-18.683,8.522c-7.608,8.056-7.246,17.172,2.285,22.682c7.638,4.415,16.502,6.814,24.975,9.651
		c8.833,2.957,17.961,5.046,26.763,8.085c17.046,5.886,25.79,18.067,25.199,34.302c-0.582,15.99-11.336,29.708-27.737,33.914
		c-23.657,6.067-46.249,2.403-67.719-8.989c-3.599-1.909-5.514-4.492-5.166-8.774
		C-339.352,2445.933-339.58,2442.377-339.58,2437.185z"/>
	<path d="M-652.906,2360.91c-9.413-2.905-17.442-6.253-25.803-7.779c-16.801-3.065-32.636,0.31-46.241,10.923
		c-26.09,20.353-23.849,61.733,4.283,79.505c19.367,12.235,39.609,11.945,60.149,2.953c2.321-1.016,4.638-2.04,8.093-3.561
		c0,5.507,0.503,9.826-0.202,13.937c-0.38,2.211-2.404,4.81-4.416,5.969c-30.516,17.58-77.957,4.692-96.123-26.235
		c-21.995-37.446-4.116-90.956,44.535-100.773c15.052-3.037,29.808-2.066,44.343,2.784c11.232,3.748,11.814,4.522,11.751,16.152
		C-652.548,2356.727-652.765,2358.667-652.906,2360.91z"/>
	<path d="M-1541.295,2362.859c-13.246-8.216-25.993-11.207-39.615-10.643c-22.327,0.926-41.18,13.915-47.948,33.106
		c-11.025,31.264,10.678,64.356,44.209,67.052c13.793,1.109,27.298-0.073,39.362-8.013c0.989-0.651,2.413-0.64,4.643-1.182
		c0,5.203,0.519,9.818-0.224,14.221c-0.359,2.129-2.711,4.794-4.797,5.629c-32.06,12.842-76.802,10.668-97.813-29.915
		c-18.431-35.598-3.184-85.803,45.279-97.017c15.939-3.688,31.767-2.341,47.187,3.143c9.869,3.51,10.333,4.265,10.255,15.154
		C-1540.772,2356.606-1541.029,2358.817-1541.295,2362.859z"/>
	<path d="M-386.869,2452.778c0.203,2.161,0.505,3.776,0.479,5.386c-0.125,7.909-0.809,8.889-8.399,8.923
		c-6.614,0.03-13.265-0.369-19.837-1.125c-7.797-0.897-12.746-5.887-14.679-13.15c-1.608-6.042-2.763-12.406-2.795-18.634
		c-0.273-53.884-0.251-107.769-0.279-161.654c0-0.948,0.45-1.895,0.938-3.822c5.543,0,11.25,0,17.466,0
		c0.395,1.86,1.134,3.72,1.134,5.581c-0.001,50.892-0.078,101.784-0.14,152.676c-0.022,18.156,3.901,22.449,22.386,24.601
		C-389.639,2451.672-388.725,2452.158-386.869,2452.778z"/>
	<path d="M-2105.784,2269.476c1.091-0.647,1.62-1.198,2.212-1.278c15.205-2.036,15.646-1.566,15.634,13.342
		c-0.038,48.313,0.001,96.626,0.021,144.94c0.001,2.331-0.045,4.677,0.191,6.99c1.015,9.947,6.341,15.682,16.273,17.407
		c3.226,0.56,6.525,0.697,10.288,1.077c0,4.783,0,9.214,0,14.332c-10.918,1.386-21.089,2.077-31.153-1.138
		c-5.017-1.603-9.018-4.82-10.484-9.924c-1.64-5.706-3.426-11.647-3.457-17.495c-0.29-55.307-0.221-110.616-0.228-165.924
		C-2106.487,2271.173-2106.116,2270.54-2105.784,2269.476z"/>
	<path d="M-829.818,2465.222c-1.229,0.544-1.828,1.033-2.439,1.048c-18.793,0.448-15.496,0.385-15.515-14.171
		c-0.047-35.584-0.115-71.168-0.139-106.752c-0.001-1.912,0.318-3.824,0.553-6.462c5.94,0,11.412,0,16.881,0.001
		c0.234,0.229,0.483,0.445,0.704,0.687c0.222,0.243,0.548,0.487,0.601,0.772c0.241,1.297,0.569,2.609,0.568,3.916
		c-0.035,39.242-0.1,78.483-0.209,117.725C-828.815,2462.918-829.375,2463.848-829.818,2465.222z"/>
	<path d="M-837.292,2288.744c5.708-0.003,10.68,5.224,10.418,10.951c-0.248,5.405-5.002,9.843-10.475,9.778
		c-5.587-0.066-10.168-4.408-10.395-9.851C-847.982,2293.88-843.05,2288.746-837.292,2288.744z"/>
	<g id="El8QzF_3_">
		
			<image overflow="visible" width="5000" height="2047" id="El8QzF_4_" xlink:href="8BA16A6EC96EF3EC.jpg"  transform="matrix(1 0 0 1 601.6667 -4455.6904)">
		</image>
	</g>
	<g>
		<g>
			<path fill="#606B6A" d="M289.235,245.413c0-14.043,0-28.024,0-42.064c3.411,0,6.771,0,10.247,0
				c-1.146,2.668-1.871,5.383-2.31,8.192c0.518,0.15,0.64-0.178,0.763-0.439c0.732-1.552,1.799-2.858,2.999-4.055
				c3.478-3.472,7.704-5.103,12.597-4.942c2.617,0.086,5.116,0.768,7.487,1.878c1.087,0.509,1.946,1.332,2.796,2.158
				c0.48,0.466,0.56,0.484,1.045,0.07c2.868-2.452,6.251-3.614,9.95-3.997c2.838-0.293,5.636-0.118,8.339,0.829
				c4.923,1.725,8.37,4.98,10.036,9.981c0.764,2.295,0.944,4.687,0.947,7.09c0.011,8.281,0.01,16.563,0.01,24.844
				c0,0.135-0.038,0.27-0.065,0.451c-0.182,0.025-0.341,0.066-0.5,0.066c-3.634,0-7.267-0.005-10.901-0.01
				c-0.791-0.001-0.786-0.004-0.787-0.797c0-6.929,0.008-13.859-0.012-20.788c-0.004-1.322-0.052-2.651-0.196-3.964
				c-0.441-4.027-2.914-5.944-6.754-6.211c-2.057-0.143-3.957,0.435-5.748,1.411c-0.519,0.283-1.021,0.597-1.541,0.878
				c-0.381,0.206-0.521,0.46-0.345,0.894c0.485,1.199,0.54,2.465,0.54,3.738c-0.001,7.803,0,15.605,0,23.408
				c0,0.442,0,0.884,0,1.382c-4.128,0-8.165,0-12.247,0c-0.029-0.205-0.072-0.365-0.072-0.524
				c0.003-8.338,0.014-16.676,0.014-25.013c0-1.317-0.225-2.584-1.044-3.673c-1.264-1.679-3.029-2.401-5.052-2.495
				c-2.377-0.111-4.566,0.582-6.568,1.845c-1.405,0.886-1.214,0.498-1.215,2.184c-0.004,8.929-0.002,17.859-0.002,26.788
				c0,0.273,0,0.546,0,0.886C297.48,245.413,293.412,245.413,289.235,245.413z"/>
			<path fill="#606B6A" d="M281.737,233.695c0,3.95,0,7.795,0,11.622c-0.66,0.193-37.128,0.227-38.07,0.041
				c0-19.297,0-38.604,0-57.906c0.602-0.188,34.963-0.25,36.199-0.059c0,3.685,0,7.382,0,11.168
				c-0.234,0.018-0.475,0.054-0.717,0.054c-6.957,0.002-13.914,0-20.871-0.001c-0.853,0-0.921,0.061-0.922,0.897
				c-0.003,2.788-0.002,5.577-0.002,8.365c0,0.78,0.077,0.869,0.87,0.871c3.295,0.005,6.591,0.004,9.886,0.001
				c2.197-0.002,4.394-0.013,6.59-0.018c0.108,0,0.217,0.024,0.445,0.051c0.039,1.909-0.002,3.811,0.01,5.711
				c0.013,1.881,0.003,3.763,0.003,5.709c-0.278,0.026-0.492,0.064-0.706,0.065c-5.352,0.004-10.703,0.004-16.055,0.005
				c-0.141,0-0.282-0.001-0.422-0.004c-0.413-0.009-0.637,0.174-0.623,0.605c0.005,0.141,0.005,0.282,0.005,0.422
				c0,3.802,0.002,7.605-0.002,11.407c-0.001,0.954,0.02,0.988,0.996,0.988c6.788,0.004,13.576,0.005,20.364,0.007
				C279.697,233.695,280.678,233.695,281.737,233.695z"/>
			<path fill="#606B6A" d="M441.457,259.506c0.764,0.179,1.464,0.352,2.167,0.507c1.258,0.278,2.503,0.26,3.763-0.053
				c1.503-0.374,2.638-1.22,3.487-2.488c0.948-1.416,1.575-2.986,2.14-4.579c0.404-1.14,0.739-2.305,1.125-3.453
				c0.131-0.389,0.154-0.746,0.028-1.148c-1.725-5.479-3.436-10.962-5.15-16.445c-2.293-7.337-4.584-14.674-6.875-22.012
				c-0.705-2.257-1.407-4.515-2.107-6.774c-0.024-0.076-0.014-0.162-0.024-0.306c0.193-0.025,0.374-0.07,0.555-0.07
				c4.591-0.003,9.182,0,13.773-0.003c0.673,0,0.684-0.014,0.87,0.631c1.471,5.114,2.936,10.23,4.407,15.344
				c0.623,2.165,1.258,4.325,1.88,6.49c0.109,0.378,0.18,0.766,0.269,1.15c0.057,0.245,0.086,0.572,0.414,0.522
				c0.146-0.022,0.318-0.294,0.364-0.481c0.497-2.022,0.967-4.051,1.452-6.077c0.669-2.793,1.342-5.585,2.019-8.376
				c0.691-2.845,1.388-5.689,2.085-8.533c0.167-0.68,0.17-0.672,0.828-0.673c4.647-0.004,9.294-0.012,13.941-0.015
				c0.08,0,0.16,0.039,0.31,0.078c-0.029,0.182-0.03,0.369-0.088,0.535c-1.836,5.264-3.677,10.526-5.518,15.788
				c-1.869,5.342-3.737,10.684-5.606,16.026c-1.73,4.943-3.462,9.885-5.189,14.829c-0.678,1.94-1.262,3.917-2.031,5.82
				c-1.832,4.527-4.519,8.495-8.143,11.786c-2.017,1.832-4.272,3.296-6.912,4.117c-2.037,0.633-4.103,0.635-6.19,0.434
				c-0.448-0.043-0.896-0.098-1.342-0.154c-0.654-0.082-0.71-0.14-0.71-0.786c0.001-3.436,0.005-6.873,0.008-10.309
				C441.457,260.414,441.457,259.999,441.457,259.506z"/>
			<path fill="#606B6A" d="M401.57,227.974c-0.37,0-0.67,0-0.97,0c-8.734,0-17.468,0-26.201,0.001c-0.394,0-0.789,0.009-1.183,0.018
				c-0.374,0.008-0.59,0.173-0.537,0.576c0.343,2.567,1.426,4.672,3.772,5.971c1.401,0.775,2.927,1.182,4.503,1.351
				c2.901,0.31,5.799,0.184,8.674-0.294c1.914-0.318,3.843-0.608,5.716-1.101c1.708-0.45,3.348-1.157,5.019-1.749
				c0.102-0.036,0.21-0.058,0.377-0.103c0.04,0.179,0.103,0.329,0.103,0.478c0.006,3.071,0.005,6.141,0.004,9.212
				c0,0.813-0.002,0.814-0.741,1.09c-3.925,1.467-7.974,2.394-12.139,2.848c-2.389,0.261-4.786,0.335-7.171,0.14
				c-5.173-0.424-9.929-1.983-13.877-5.517c-3.196-2.861-5.132-6.455-6.047-10.613c-0.83-3.769-0.831-7.557-0.004-11.322
				c1.382-6.296,4.665-11.235,10.47-14.297c2.139-1.128,4.437-1.749,6.841-2.044c3.558-0.437,7.032-0.131,10.41,1.063
				c4.786,1.692,8.207,4.92,10.422,9.451c1.7,3.476,2.425,7.189,2.552,11.031C401.604,225.397,401.57,226.632,401.57,227.974z
				 M372.678,219.109c0.758,0.237,16.924,0.248,17.632,0.042c0.159-0.532-0.171-0.972-0.334-1.428
				c-0.899-2.513-2.557-4.304-5.158-5.05c-2.439-0.7-4.897-0.696-7.299,0.217C374.673,213.971,373.428,216.305,372.678,219.109z"/>
			<path fill="#606B6A" d="M421.629,245.422c-4.116,0-8.159,0-12.269,0c0-14.014,0-27.996,0-42.055c3.428,0,6.845,0,10.337,0
				c-0.457,1.35-0.967,2.674-1.347,4.034c-0.38,1.361-0.711,2.744-0.849,4.199c0.523,0.029,0.602-0.315,0.744-0.564
				c0.348-0.611,0.639-1.259,1.028-1.842c2.168-3.242,5.111-5.376,8.998-6.023c2.008-0.334,4.042-0.257,6.062,0.037
				c0.399,0.058,0.592,0.237,0.59,0.662c-0.014,3.211-0.014,6.423-0.024,9.634c0,0.104-0.06,0.208-0.108,0.362
				c-0.402-0.075-0.782-0.148-1.163-0.218c-2.329-0.429-4.591-0.099-6.836,0.562c-1.676,0.494-3.185,1.259-4.491,2.431
				c-0.428,0.385-0.637,0.788-0.636,1.385c0.021,8.959,0.019,17.917,0.021,26.876C421.687,245.04,421.657,245.177,421.629,245.422z"
				/>
			<path fill="#606B6A" d="M242.014,264.341c0.07-3.382,1.404-6.098,4.441-7.707c4.307-2.283,10.108-0.441,11.761,5.093
				c0.613,2.054,0.587,4.125-0.183,6.138c-1.226,3.206-4.237,5.606-8.633,5.239c-4.003-0.335-7.257-3.817-7.385-8.002
				C242.008,264.848,242.014,264.594,242.014,264.341z M250.319,271.67c1.827,0.006,3.721-0.867,4.906-2.263
				c2.238-2.639,2.369-6.456,0.417-9.269c-3.022-4.355-8.335-3.539-10.671-0.083c-1.578,2.335-1.811,4.859-0.719,7.475
				C245.273,269.974,247.76,271.661,250.319,271.67z"/>
			<path fill="#606B6A" d="M346.82,272.747c0-3.551,0-7.082,0-10.666c0.487,0,0.922,0,1.404,0c0.063,0.249,0.123,0.483,0.177,0.699
				c0.385,0.234,0.596-0.049,0.842-0.217c1.033-0.705,2.151-1.088,3.422-0.905c0.986,0.142,1.826,0.54,2.462,1.329
				c0.136,0.169,0.315,0.303,0.511,0.488c0.182-0.146,0.339-0.25,0.472-0.38c1.569-1.533,3.992-1.908,5.945-0.913
				c1.114,0.567,1.723,1.499,1.926,2.712c0.046,0.277,0.074,0.56,0.075,0.84c0.004,2.167-0.002,4.335-0.003,6.502
				c0,0.257,0.024,0.584-0.297,0.607c-0.404,0.029-0.827-0.025-1.218-0.13c-0.088-0.023-0.11-0.405-0.111-0.622
				c-0.009-1.717-0.005-3.434-0.007-5.151c0-0.31,0.003-0.62-0.017-0.928c-0.132-2.001-1.872-3.249-3.793-2.679
				c-0.529,0.157-1.04,0.431-1.502,0.737c-0.609,0.404-0.926,0.945-0.897,1.768c0.072,2.024,0.023,4.053,0.019,6.079
				c-0.001,0.275-0.023,0.55-0.039,0.892c-0.517,0-0.977,0-1.538,0c-0.018-0.226-0.054-0.464-0.054-0.703
				c-0.002-1.914,0.004-3.828,0.004-5.743c0-0.869-0.177-1.681-0.816-2.325c-1.008-1.015-2.378-1.191-3.733-0.484
				c-0.149,0.078-0.287,0.179-0.433,0.263c-0.918,0.53-1.415,1.203-1.34,2.384c0.121,1.907,0.032,3.826,0.036,5.741
				c0.002,0.935,0.005,0.935-0.921,0.92c-0.112-0.002-0.225,0.004-0.336-0.007C347.009,272.851,346.96,272.813,346.82,272.747z"/>
			<path fill="#606B6A" d="M316.753,272.801c0-5.583,0-11.083,0-16.65c0.533,0,1.015,0,1.594,0c0,2.233,0,4.403,0,6.747
				c0.355-0.184,0.594-0.255,0.763-0.404c1.232-1.088,3.924-1.113,5.347-0.171c0.908,0.601,1.544,1.401,1.7,2.504
				c0.098,0.694,0.174,1.397,0.185,2.097c0.027,1.773,0.015,3.546,0.011,5.319c0,0.188-0.048,0.375-0.079,0.604
				c-0.511,0-0.978,0-1.498,0c-0.022-0.195-0.06-0.382-0.061-0.568c-0.001-1.886,0.004-3.771,0.007-5.657
				c0.001-0.686-0.104-1.341-0.469-1.942c-0.935-1.538-2.783-2.009-4.505-1.117c-0.346,0.179-0.658,0.431-0.969,0.671
				c-0.358,0.275-0.476,0.628-0.468,1.102c0.039,2.194,0.033,4.389,0.031,6.584c-0.001,0.973-0.014,0.975-0.999,0.95
				C317.179,272.865,317.017,272.832,316.753,272.801z"/>
			<path fill="#606B6A" d="M281.576,270.652c0,0.382,0.034,0.793-0.017,1.192c-0.019,0.151-0.21,0.332-0.366,0.405
				c-1.615,0.749-3.291,1.122-5.08,0.806c-2.423-0.427-4.203-2.284-4.472-4.737c-0.157-1.426,0.004-2.811,0.731-4.084
				c1.571-2.75,4.843-3.136,7.121-1.848c1.63,0.921,2.606,3.198,2.219,5.136c-0.168,0.019-0.355,0.058-0.541,0.058
				c-2.306-0.004-4.613-0.014-6.919-0.023c-0.084,0-0.169-0.004-0.253,0.001c-0.667,0.033-0.798,0.182-0.728,0.822
				c0.173,1.594,1.382,2.941,2.952,3.312c1.625,0.384,3.116,0.003,4.549-0.754c0.221-0.117,0.447-0.225,0.673-0.333
				C281.46,270.595,281.494,270.621,281.576,270.652z M276.826,266.473c0,0,0-0.001,0-0.001c0.926,0,1.852,0.01,2.778-0.003
				c0.668-0.01,0.789-0.177,0.626-0.829c-0.196-0.784-0.578-1.454-1.229-1.957c-2.103-1.625-5.174-0.423-5.602,2.193
				c-0.07,0.43,0.054,0.584,0.565,0.592C274.917,266.485,275.872,266.473,276.826,266.473z"/>
			<path fill="#606B6A" d="M341.428,270.569c0,0.456,0.039,0.821-0.016,1.171c-0.029,0.185-0.183,0.425-0.346,0.503
				c-1.805,0.861-3.692,1.213-5.658,0.687c-1.684-0.45-2.889-1.512-3.497-3.15c-0.854-2.304-0.641-4.508,0.973-6.424
				c2.278-2.704,7.278-2.115,8.479,1.564c0.206,0.631,0.245,1.323,0.313,1.992c0.061,0.597-0.022,0.656-0.658,0.655
				c-2.251-0.003-4.502-0.007-6.753-0.012c-1.202-0.002-1.301,0.109-1.041,1.248c0.356,1.559,1.38,2.457,2.876,2.887
				c1.134,0.326,2.239,0.137,3.313-0.229C340.068,271.239,340.684,270.904,341.428,270.569z M336.681,266.474
				c0-0.002,0-0.003,0-0.005c0.366,0,0.731,0,1.097,0c0.394,0,0.789-0.014,1.181,0.005c1.237,0.062,1.538-0.05,0.932-1.452
				c-0.628-1.453-2.029-2.207-3.72-2.028c-1.368,0.144-2.577,1.303-2.856,2.734c-0.108,0.555,0.014,0.732,0.58,0.741
				C334.824,266.485,335.753,266.474,336.681,266.474z"/>
			<path fill="#606B6A" d="M297.971,267.369c-0.015,3.363-2.502,5.8-5.903,5.801c-2.429,0.001-4.325-1.004-5.403-3.23
				c-1.511-3.117-0.208-7.115,3.784-8.08c2.773-0.671,5.619,0.551,6.878,2.899C297.774,265.593,298.016,266.479,297.971,267.369z
				 M287.617,267.434c-0.017,2.474,1.944,4.462,4.453,4.421c2.84-0.047,4.342-2.13,4.398-4.297c0.061-2.366-2.063-4.484-4.45-4.513
				C289.609,263.016,287.634,264.986,287.617,267.434z"/>
			<path fill="#606B6A" d="M391.787,263.795c0.1-0.405,0.138-0.803,0.302-1.14c0.108-0.223,0.366-0.438,0.605-0.52
				c1.381-0.479,2.8-0.621,4.239-0.299c1.509,0.338,2.506,1.422,2.543,2.961c0.061,2.587,0.021,5.176,0.02,7.764
				c0,0.051-0.04,0.102-0.097,0.237c-0.417,0-0.87,0-1.326,0c-0.033-0.045-0.091-0.087-0.095-0.134
				c-0.078-0.949-0.181-1.003-0.943-0.484c-1.063,0.723-2.229,1.025-3.517,0.936c-2.671-0.185-3.358-2.936-2.176-4.684
				c0.743-1.098,1.861-1.618,3.098-1.874c0.877-0.182,1.78-0.247,2.674-0.33c0.756-0.07,0.886-0.193,0.81-0.933
				c-0.132-1.291-0.92-2.113-2.2-2.276c-1.208-0.154-2.356,0.022-3.412,0.661c-0.095,0.058-0.198,0.105-0.3,0.151
				C391.99,263.84,391.957,263.823,391.787,263.795z M397.922,268.792c0.008,0,0.017,0,0.025,0c0-0.309,0.004-0.619-0.001-0.928
				c-0.01-0.608-0.169-0.781-0.774-0.659c-0.963,0.194-1.922,0.419-2.862,0.7c-0.653,0.195-1.217,0.578-1.61,1.167
				c-0.524,0.785-0.423,1.658,0.289,2.271c0.518,0.446,1.141,0.656,1.805,0.502c0.596-0.138,1.185-0.349,1.74-0.607
				c0.986-0.459,1.679-1.133,1.389-2.362C397.916,268.849,397.922,268.82,397.922,268.792z"/>
			<path fill="#606B6A" d="M413.139,270.405c0.662,0.328,1.149,0.609,1.666,0.816c1.158,0.464,2.337,0.849,3.608,0.483
				c0.215-0.062,0.434-0.134,0.625-0.247c0.555-0.328,0.987-0.761,1.008-1.458c0.022-0.721-0.425-1.163-1.003-1.436
				c-0.581-0.274-1.209-0.453-1.824-0.652c-0.803-0.261-1.62-0.48-2.418-0.754c-1.294-0.444-1.918-1.319-1.89-2.586
				c0.025-1.124,0.78-2.104,1.963-2.479c1.582-0.502,3.164-0.462,4.728,0.093c0.751,0.267,0.778,0.322,0.789,1.155
				c0.002,0.16,0,0.32,0,0.597c-0.289-0.129-0.483-0.21-0.673-0.3c-1.013-0.482-2.075-0.706-3.197-0.597
				c-0.605,0.059-1.153,0.269-1.579,0.72c-0.643,0.681-0.612,1.451,0.193,1.917c0.646,0.373,1.395,0.576,2.111,0.816
				c0.747,0.25,1.518,0.426,2.262,0.683c1.441,0.498,2.18,1.527,2.13,2.899c-0.049,1.352-0.958,2.511-2.344,2.866
				c-2,0.513-3.909,0.203-5.724-0.76c-0.304-0.161-0.466-0.38-0.437-0.742C413.158,271.145,413.139,270.844,413.139,270.405z"/>
			<path fill="#606B6A" d="M386.655,263.958c-0.796-0.246-1.474-0.529-2.181-0.658c-1.42-0.259-2.759,0.026-3.909,0.923
				c-2.205,1.72-2.016,5.218,0.362,6.72c1.637,1.034,3.348,1.01,5.084,0.25c0.196-0.086,0.392-0.172,0.684-0.301
				c0,0.465,0.043,0.83-0.017,1.178c-0.032,0.187-0.203,0.407-0.373,0.505c-2.579,1.486-6.589,0.397-8.125-2.217
				c-1.859-3.165-0.348-7.688,3.764-8.518c1.272-0.257,2.519-0.175,3.748,0.235c0.949,0.317,0.999,0.382,0.993,1.365
				C386.685,263.605,386.667,263.769,386.655,263.958z"/>
			<path fill="#606B6A" d="M311.566,264.123c-1.12-0.694-2.197-0.947-3.348-0.9c-1.887,0.078-3.481,1.176-4.053,2.798
				c-0.932,2.643,0.903,5.44,3.737,5.667c1.166,0.094,2.307-0.006,3.327-0.677c0.084-0.055,0.204-0.054,0.392-0.1
				c0,0.44,0.044,0.83-0.019,1.202c-0.03,0.18-0.229,0.405-0.405,0.476c-2.71,1.085-6.492,0.902-8.268-2.528
				c-1.558-3.009-0.269-7.252,3.827-8.2c1.347-0.312,2.685-0.198,3.988,0.266c0.834,0.297,0.873,0.36,0.867,1.281
				C311.61,263.595,311.588,263.781,311.566,264.123z"/>
			<path fill="#606B6A" d="M409.142,271.723c0.017,0.183,0.043,0.319,0.041,0.455c-0.011,0.668-0.068,0.751-0.71,0.754
				c-0.559,0.003-1.121-0.031-1.677-0.095c-0.659-0.076-1.077-0.498-1.241-1.111c-0.136-0.511-0.234-1.049-0.236-1.575
				c-0.023-4.554-0.021-9.109-0.024-13.664c0-0.08,0.038-0.16,0.079-0.323c0.469,0,0.951,0,1.476,0
				c0.033,0.157,0.096,0.314,0.096,0.472c0,4.302-0.007,8.603-0.012,12.905c-0.002,1.535,0.33,1.897,1.892,2.079
				C408.907,271.63,408.985,271.671,409.142,271.723z"/>
			<path fill="#606B6A" d="M263.853,256.23c0.092-0.055,0.137-0.101,0.187-0.108c1.285-0.172,1.322-0.132,1.321,1.128
				c-0.003,4.084,0,8.167,0.002,12.251c0,0.197-0.004,0.395,0.016,0.591c0.086,0.841,0.536,1.325,1.375,1.471
				c0.273,0.047,0.552,0.059,0.87,0.091c0,0.404,0,0.779,0,1.211c-0.923,0.117-1.783,0.176-2.633-0.096
				c-0.424-0.135-0.762-0.407-0.886-0.839c-0.139-0.482-0.29-0.984-0.292-1.479c-0.025-4.675-0.019-9.35-0.019-14.024
				C263.794,256.373,263.825,256.32,263.853,256.23z"/>
			<path fill="#606B6A" d="M371.702,272.775c-0.104,0.046-0.155,0.087-0.206,0.089c-1.588,0.038-1.31,0.033-1.311-1.198
				c-0.004-3.008-0.01-6.015-0.012-9.023c0-0.162,0.027-0.323,0.047-0.546c0.502,0,0.965,0,1.427,0
				c0.02,0.019,0.041,0.038,0.06,0.058c0.019,0.021,0.046,0.041,0.051,0.065c0.02,0.11,0.048,0.221,0.048,0.331
				c-0.003,3.317-0.008,6.634-0.018,9.95C371.787,272.58,371.74,272.659,371.702,272.775z"/>
			<path fill="#606B6A" d="M371.07,257.859c0.482,0,0.903,0.442,0.881,0.926c-0.021,0.457-0.423,0.832-0.885,0.826
				c-0.472-0.006-0.859-0.373-0.879-0.833C370.167,258.293,370.584,257.859,371.07,257.859z"/>
		</g>
		<path fill="#F1544A" d="M143.942,195.826c1.061-1.627,2.262-3.152,3.525-4.626c3.585-4.181,7.702-7.737,12.462-10.527
			c4.355-2.554,8.992-4.39,13.921-5.509c4.085-0.927,8.217-1.41,12.4-1.282c2.049,0.063,4.1,0.285,6.133,0.565
			c4.714,0.648,9.113,2.262,13.249,4.591c4.682,2.637,8.586,6.164,11.785,10.473c3.312,4.463,5.671,9.384,7.038,14.776
			c0.948,3.742,1.283,7.539,1.075,11.392c-0.447,8.26-3.477,15.48-8.777,21.772c-3.205,3.805-6.933,6.993-11.389,9.272
			c-4.208,2.153-8.67,3.152-13.391,2.773c-4.364-0.351-8.379-1.743-11.841-4.473c-4.167-3.286-6.283-7.574-5.999-12.939
			c0.339-6.417,5.211-11.924,11.524-13.045c1.748-0.311,3.474-0.08,5.204,0.223c1.355,0.238,2.735,0.588,4.088,0.529
			c2.618-0.114,4.976-0.987,6.527-3.298c0.787-1.172,1.145-2.509,1.222-3.906c0.147-2.674-0.263-5.239-1.201-7.78
			c-0.723-1.96-1.439-3.905-2.434-5.74c-1.889-3.482-4.396-6.469-7.382-9.052c-4.399-3.807-9.484-6.232-15.184-7.359
			c-3.141-0.621-6.307-0.746-9.497-0.381c-5.992,0.686-11.376,2.869-16.206,6.459c-1.709,1.27-3.153,2.799-4.468,4.464
			c-0.731,0.925-1.498,1.821-2.249,2.73C144.03,195.893,143.986,195.86,143.942,195.826z"/>
		<path fill="#8B9596" d="M138.634,192.67c0,0-4.268,10.988-4.607,14.918c-0.338,3.93-1.183,12.256-0.169,17.792
			c1.014,5.536,3.846,15.975,7.354,21.258c3.508,5.283,16.989,19.145,22.906,20.708c5.917,1.564,39.303,0.803,41.628-0.803
			c2.324-1.606,11.833-6.086,12.383-6.762c0.549-0.676,1.057,1.733-6.508,7.269c-7.565,5.536-16.059,10.481-26.118,11.833
			s-21.258,2.367-35.5-4.564c-14.242-6.931-26.709-21.342-29.964-32.372c-3.254-11.03-6.17-23.962-0.465-40.191
			s17.2-25.399,20.793-28.146s14.284-8.875,23.455-10.227c9.171-1.352,9.931-0.465,9.086,0.972
			c-0.845,1.437-11.368,3.001-19.567,10.016C145.143,181.387,139.142,191.36,138.634,192.67z"/>
		<path fill="#23B9EC" d="M201.928,206.138c0,0-5.24-22.258-30.485-23.836c0,0-24.117-1.747-33.189,25.413
			c-5.334,15.968-1.918,31.388,5.388,42.874c5.121,8.052,12.408,14.194,18.842,17.137c13.721,6.276,24.941,6.741,35.5,3.888
			c5.875-1.587,12.597-4.46,19.701-9.995c4.177-3.254,2.388-4.656,2.388-4.656s-0.718-1.493-3.17,0.789c0,0-5.494,3.529-9.805,5.24
			c-4.311,1.712-10.079,4.374-20.708,4.121c-10.629-0.254-22.589-7.586-26.244-13.08c-3.656-5.494-6.487-9.678-7.206-18.743
			c-0.718-9.065,3.867-24.491,15.235-30.872C179.544,198.038,194.899,195.178,201.928,206.138z"/>
	</g>
</g>
<g id="Layer_3">
</g>
</svg>
