<?xml version="1.0" encoding="utf-8"?>
<!-- Generator: Adobe Illustrator 17.0.0, SVG Export Plug-In . SVG Version: 6.00 Build 0)  -->
<!DOCTYPE svg PUBLIC "-//W3C//DTD SVG 1.1//EN" "http://www.w3.org/Graphics/SVG/1.1/DTD/svg11.dtd">
<svg version="1.1" xmlns="http://www.w3.org/2000/svg" xmlns:xlink="http://www.w3.org/1999/xlink" x="0px" y="0px" width="600px"
	 height="450px" viewBox="0 0 600 450" enable-background="new 0 0 600 450" xml:space="preserve">
<g id="Layer_1">
	<g id="Layer_3" opacity="0.4">
	</g>
	<g id="Layer_3_1_" opacity="0.4">
	</g>
	<g id="Layer_2_1_" opacity="0.4">
	</g>
	<rect x="-34.893" y="-18.397" opacity="0.4" fill="#F79C39" width="663.393" height="484.397"/>
</g>
<g id="Layer_2">
	<g>
		<path fill="#F02D38" d="M407.873,205.937c-0.442,0.99-0.856,1.939-1.286,2.879c-2.258,4.933-4.511,9.868-6.783,14.793
			c-3.459,7.499-6.943,14.986-10.383,22.494c-0.33,0.719-0.727,0.954-1.503,0.946c-3.941-0.038-7.882-0.017-11.823-0.017
			c-0.346,0-0.691,0-1.255,0c-0.582-8.814-1.161-17.563-1.742-26.356c-0.118,0.241-0.287,0.515-0.393,0.811
			c-2.939,8.21-6.906,15.974-10.394,23.946c-0.025,0.058-0.061,0.113-0.08,0.173c-0.369,1.154-1.104,1.499-2.346,1.462
			c-3.588-0.105-7.182-0.052-10.773-0.024c-0.694,0.005-1.016-0.162-1.091-0.916c-1.314-13.215-2.651-26.428-3.981-39.642
			c-0.016-0.156-0.002-0.314-0.002-0.551c0.246-0.039,0.483-0.109,0.721-0.11c3.623-0.007,7.246,0.005,10.869-0.016
			c0.6-0.003,0.845,0.202,0.896,0.803c0.58,6.742,1.206,13.48,1.749,20.225c0.136,1.693,0.02,3.407,0.221,5.167
			c0.101-0.127,0.236-0.24,0.298-0.384c2.265-5.28,4.506-10.571,6.79-15.844c1.338-3.088,2.758-6.141,4.105-9.225
			c0.241-0.553,0.546-0.748,1.139-0.744c3.559,0.024,7.119,0.03,10.678-0.002c0.717-0.007,0.904,0.256,0.959,0.929
			c0.576,7.122,1.189,14.241,1.773,21.362c0.085,1.043,0.064,2.095,0.095,3.143c0.009,0.295,0.025,0.59,0.234,0.913
			c0.094-0.181,0.221-0.351,0.279-0.543c1.588-5.248,3.991-10.158,6.261-15.123c1.518-3.322,3.019-6.652,4.565-9.96
			c0.141-0.301,0.557-0.67,0.849-0.674c3.622-0.044,7.246-0.026,10.869-0.02C407.509,205.832,407.629,205.882,407.873,205.937z"/>
		<path fill="#F02D38" d="M325.073,230.399c0.261-2.169,0.435-4.354,0.8-6.505c0.985-5.794,2.044-11.575,3.109-17.354
			c0.05-0.271,0.442-0.682,0.678-0.685c3.431-0.04,6.863-0.022,10.295-0.012c0.088,0,0.175,0.06,0.363,0.129
			c-0.39,2.107-0.777,4.222-1.173,6.336c-2.081,11.116-4.158,22.233-6.255,33.345c-0.288,1.527,0.006,1.373-1.663,1.376
			c-4.258,0.007-8.517-0.002-12.775,0.007c-0.536,0.001-0.945-0.023-1.174-0.667c-2.403-6.762-4.854-13.508-7.249-20.273
			c-0.419-1.185-0.639-2.441-1.007-3.885c-1.596,8.392-3.148,16.555-4.709,24.76c-3.723,0-7.361,0-11.115,0
			c0.323-1.807,0.625-3.549,0.947-5.287c2.136-11.551,4.287-23.099,6.392-34.656c0.17-0.933,0.485-1.246,1.453-1.234
			c4.353,0.054,8.707,0.028,13.061,0.019c0.538-0.001,0.949,0.033,1.178,0.671c2.647,7.379,5.325,14.746,7.987,22.12
			c0.219,0.607,0.384,1.233,0.574,1.851C324.885,230.437,324.979,230.418,325.073,230.399z"/>
		<path fill="#F02D38" d="M254.068,205.877c3.979,0,7.907,0,11.99,0c-0.254,1.427-0.49,2.814-0.75,4.196
			c-1.29,6.852-2.623,13.696-3.849,20.559c-0.218,1.222-0.17,2.55,0.049,3.777c0.369,2.064,1.941,3.051,3.869,3.225
			c1.555,0.14,3.186,0.087,4.71-0.23c2.509-0.522,4.265-2.219,5.082-4.588c0.822-2.382,1.383-4.867,1.882-7.343
			c1.265-6.275,2.424-12.572,3.66-18.853c0.059-0.299,0.449-0.759,0.69-0.761c3.653-0.039,7.306-0.014,10.959,0
			c0.058,0,0.115,0.045,0.311,0.128c-0.191,1.04-0.382,2.115-0.585,3.187c-1.418,7.483-2.777,14.979-4.276,22.446
			c-1.546,7.701-6.198,12.739-13.678,15.002c-5.972,1.807-12.033,1.875-17.968-0.217c-4.858-1.712-7.499-5.488-7.313-10.644
			c0.106-2.928,0.667-5.853,1.189-8.75c1.141-6.331,2.386-12.643,3.591-18.962C253.766,207.338,253.916,206.631,254.068,205.877z"/>
		<path fill="#F02D38" d="M396.19,246.921c1.772-3.242,3.485-6.353,5.178-9.475c5.553-10.236,11.105-20.472,16.632-30.722
			c0.364-0.675,0.77-0.929,1.539-0.922c4.162,0.037,8.324,0.037,12.486,0c0.802-0.007,1.069,0.243,1.196,1.042
			c1.407,8.861,2.864,17.713,4.3,26.569c0.726,4.476,1.436,8.955,2.169,13.529c-4.231,0-8.398,0-12.653,0
			c-0.252-1.77-0.534-3.546-0.745-5.33c-0.08-0.677-0.339-0.892-1.021-0.888c-4.13,0.028-8.261,0.027-12.391,0
			c-0.636-0.004-0.967,0.223-1.247,0.775c-0.833,1.64-1.7,3.265-2.607,4.865c-0.167,0.294-0.582,0.633-0.887,0.637
			c-3.812,0.042-7.625,0.026-11.438,0.021C396.585,247.022,396.467,246.978,396.19,246.921z M423.382,218.707
			c-2.302,4.504-4.543,8.888-6.839,13.381c2.928,0,5.668,0,8.49,0C424.482,227.617,423.94,223.232,423.382,218.707z"/>
		<path fill="#F02D38" d="M210.232,247.115c0.943-3.671,1.865-7.259,2.818-10.971c0.431,0.115,0.783,0.198,1.129,0.302
			c3.03,0.912,6.111,1.548,9.278,1.062c1.088-0.167,2.224-0.597,3.137-1.208c1.43-0.957,1.529-2.859,0.283-4.053
			c-0.72-0.69-1.615-1.223-2.496-1.711c-1.386-0.768-2.852-1.392-4.239-2.159c-4.768-2.638-6.28-6.191-4.7-11.806
			c1.393-4.954,4.951-7.921,9.566-9.768c3.59-1.436,7.363-1.937,11.198-1.88c3.195,0.048,6.387,0.26,9.798,0.409
			c-0.922,3.574-1.771,6.864-2.583,10.011c-2.352-0.28-4.573-0.677-6.806-0.762c-1.39-0.053-2.836,0.235-4.188,0.614
			c-1.177,0.33-1.989,1.232-2.168,2.538c-0.183,1.331,0.55,2.21,1.585,2.803c1.815,1.041,3.698,1.961,5.533,2.967
			c2.085,1.143,4.049,2.475,5.107,4.695c1.759,3.694,1.068,7.279-0.899,10.64c-2.411,4.119-6.293,6.333-10.696,7.762
			c-4.865,1.579-9.874,1.55-14.896,1.25c-1.486-0.089-2.964-0.305-4.444-0.479C211.145,247.324,210.75,247.218,210.232,247.115z"/>
		<path fill="#F02D38" d="M480.153,205.987c-1.695,2.434-3.328,4.779-4.961,7.123c-4.739,6.802-9.485,13.6-14.204,20.416
			c-0.331,0.477-0.571,1.066-0.686,1.637c-0.739,3.671-1.429,7.352-2.141,11.029c-0.083,0.431-0.127,0.854-0.781,0.849
			c-3.623-0.027-7.245-0.016-10.868-0.023c-0.119,0-0.239-0.054-0.453-0.106c0.063-0.391,0.113-0.757,0.183-1.12
			c0.677-3.523,1.374-7.042,2.02-10.571c0.092-0.504,0.044-1.083-0.109-1.576c-2.745-8.857-5.516-17.706-8.281-26.557
			c-0.112-0.358-0.208-0.72-0.348-1.205c0.442-0.026,0.776-0.062,1.11-0.062c3.464-0.004,6.928,0.029,10.391-0.025
			c0.864-0.013,1.226,0.267,1.432,1.085c1.257,4.984,2.556,9.958,3.845,14.934c0.037,0.141,0.121,0.27,0.235,0.516
			c0.207-0.282,0.359-0.469,0.49-0.669c3.307-5.087,6.606-10.178,9.932-15.253c0.178-0.271,0.58-0.559,0.879-0.562
			c3.972-0.033,7.944-0.017,11.916-0.008C479.84,205.841,479.923,205.9,480.153,205.987z"/>
	</g>
	<linearGradient id="SVGID_1_" gradientUnits="userSpaceOnUse" x1="100.7031" y1="260.0512" x2="222.3767" y2="189.8029">
		<stop  offset="0" style="stop-color:#F79C39"/>
		<stop  offset="0.2373" style="stop-color:#F36F39"/>
		<stop  offset="0.2566" style="stop-color:#F36439"/>
		<stop  offset="0.3108" style="stop-color:#F14D38"/>
		<stop  offset="0.3681" style="stop-color:#F13B38"/>
		<stop  offset="0.4303" style="stop-color:#F03138"/>
		<stop  offset="0.5063" style="stop-color:#F02E38"/>
		<stop  offset="0.6002" style="stop-color:#F03038"/>
		<stop  offset="0.6545" style="stop-color:#F03938"/>
		<stop  offset="0.6987" style="stop-color:#F14738"/>
		<stop  offset="0.7372" style="stop-color:#F25A39"/>
		<stop  offset="0.7661" style="stop-color:#F36F39"/>
		<stop  offset="1" style="stop-color:#F79C39"/>
	</linearGradient>
	<path fill="url(#SVGID_1_)" d="M203.979,157.938c0,0-26.75,8.375-39.688,16.062c-2.49,1.48-4.907,3.129-7.189,4.827
		c-4.709,3.016-9.109,6.454-13.054,10.466c-3.519,3.578-6.622,7.473-8.488,12.197c-2.092,5.295-2.052,10.499,1.097,15.405
		c1.957,3.048,4.698,5.321,7.792,7.164c6.036,3.598,12.684,5.42,19.524,6.666c1.603,0.292,3.216,0.532,4.824,0.796
		c0.025,0.083,0.051,0.166,0.076,0.249c-1.411,0.954-2.787,1.964-4.238,2.852c-8.053,4.928-16.742,8.493-25.531,11.836
		c-3.17,1.206-6.472,2.137-9.293,4.084c-1.178,0.814-2.156,1.936-3.148,2.991c-0.318,0.338-0.386,0.91-0.568,1.375
		c0.082,0.07,0.165,0.14,0.247,0.211c3.259-1.137,6.532-2.234,9.772-3.422c3.216-1.18,6.42-2.398,9.588-3.701
		c3.198-1.316,6.375-2.69,9.503-4.163c3.1-1.46,6.179-2.981,9.17-4.648c2.982-1.663,5.844-3.542,8.759-5.326
		c-1.507,1.35-3.067,2.647-4.718,3.815c-2.224,1.574-4.51,3.038-6.835,4.432l-6.666,3.185c0,0-17,8.938-22.375,10.875
		s-7.576,4.343-7.812,5c-0.562,1.562-0.5,2.375-0.5,2.375s18.428-6.16,31.865-12.748c5.796-2.797,11.403-5.952,16.644-9.776
		c0.085-0.062,0.201-0.081,0.303-0.121c0.04,0.078,0.081,0.157,0.121,0.235c-0.99,0.798-1.996,1.57-3.008,2.331l-16.55,10.329
		c0,0-16.938,8.312-22.312,10.25s-8.013,5.093-8.25,5.75c-0.562,1.562-0.062,2.562-0.062,2.562s24.812-8.312,37.75-16
		c2.025-1.203,4.051-2.52,6.026-3.885c2.183-1.396,4.323-2.868,6.402-4.446c0.113-0.085,0.251-0.138,0.377-0.205
		c0.032,0.042,0.064,0.085,0.097,0.128c-0.265,0.251-0.523,0.508-0.795,0.75c-2.857,2.54-5.889,4.845-9.034,6.984l-7.018,4.38
		c-3.94,2.246-7.947,4.375-11.953,6.506c-5.346,2.553-12.405,5.847-15.538,6.976c-5.375,1.938-8.013,5.093-8.25,5.75
		c-0.562,1.562-0.062,2.562-0.062,2.562s24.812-8.312,37.75-16c0.636-0.378,1.272-0.77,1.906-1.168
		c4.132-2.386,8.142-4.986,11.966-7.913c0.233-0.178,0.491-0.325,0.737-0.486c0.057,0.077,0.114,0.155,0.17,0.232
		c-1.826,1.567-3.61,3.186-5.486,4.69c-1.915,1.535-3.879,2.993-5.879,4.397l-12.043,7.516c-0.226,0.126-0.454,0.249-0.682,0.374
		c-2.259,1.032-16.618,7.575-21.564,9.358c-5.375,1.938-8.451,5.843-8.688,6.5c-0.562,1.562-0.062,2.562-0.062,2.562
		s26.75-8.375,39.688-16.062c1.66-0.987,3.288-2.049,4.865-3.15c5.782-3.522,11.219-7.526,16.006-12.421
		c3.493-3.573,6.483-7.505,8.241-12.248c1.891-5.103,1.847-10.085-1.082-14.834c-2.181-3.537-5.343-6.011-8.922-7.983
		c-6.082-3.351-12.697-5.071-19.484-6.235c-1.28-0.22-2.565-0.415-4.086-0.66c0.548-0.424,0.863-0.683,1.194-0.921
		c5.635-4.044,11.807-7.107,18.177-9.767c5.247-2.191,10.581-4.172,15.854-6.301c2.336-0.943,4.563-2.114,6.34-3.965
		c0.655-0.683,1.228-1.436,1.262-2.652c-16.284,5.555-32.256,11.486-46.645,21.001c1.589-1.375,3.193-2.725,4.91-3.911
		c2.383-1.647,4.828-3.182,7.311-4.646l5.438-2.599c0,0,17-8.938,22.375-10.875s7.576-4.343,7.812-5
		c0.562-1.562,0.5-2.375,0.5-2.375s-25.25,8.438-38.188,16.125c-0.234,0.139-0.45,0.27-0.673,0.404
		c-3.328,1.875-6.566,3.917-9.675,6.196c-0.059,0.043-0.156,0.034-0.469,0.093c0.441-0.4,0.71-0.659,0.994-0.899
		c1.022-0.864,2.068-1.693,3.133-2.494l15.503-9.676c0,0,16.938-8.312,22.312-10.25s8.013-5.093,8.25-5.75
		c0.562-1.562,0.062-2.562,0.062-2.562s-24.812,8.312-37.75,16c-3.778,2.245-7.554,4.884-11.01,7.496
		c-0.395,0.286-0.796,0.56-1.187,0.853c-0.112,0.084-0.246,0.139-0.369,0.207c0.422-0.62,0.941-1.116,1.489-1.576
		c7.216-6.06,15.213-10.932,23.497-15.356c1.918-1.024,3.868-1.988,5.82-2.947c4.913-2.324,10.506-4.894,13.199-5.864
		c5.375-1.938,8.013-5.093,8.25-5.75c0.562-1.562,0.062-2.562,0.062-2.562s-24.812,8.312-37.75,16
		c-1.809,1.075-3.617,2.242-5.391,3.452c-2.82,1.761-5.58,3.63-8.245,5.664c-0.204,0.156-0.436,0.274-0.655,0.41
		c-0.053-0.066-0.106-0.132-0.158-0.198c0.4-0.356,0.802-0.71,1.2-1.069c4.38-3.952,9.08-7.434,13.991-10.605l3.776-2.357
		c2.167-1.304,4.37-2.556,6.603-3.764c4.63-2.102,15.566-7.024,19.753-8.533c5.375-1.938,8.451-5.843,8.688-6.5
		C204.479,158.938,203.979,157.938,203.979,157.938z M150.187,223.348c0.639-1.887,2.005-3.203,3.467-4.438
		c0.154-0.13,0.484-0.144,0.704-0.093c6.253,1.437,12.356,3.317,18.112,6.202c0.347,0.174,0.602,0.532,0.905,0.81
		c-0.253,0.668-0.338,1.249-0.652,1.652c-0.909,1.169-1.893,2.282-2.893,3.375c-0.161,0.176-0.581,0.241-0.843,0.183
		c-6.296-1.408-12.417-3.329-18.208-6.22C150.105,224.482,149.954,224.033,150.187,223.348z"/>
</g>
</svg>
