<?xml version="1.0" encoding="utf-8"?>
<!-- Generator: Adobe Illustrator 17.0.0, SVG Export Plug-In . SVG Version: 6.00 Build 0)  -->
<!DOCTYPE svg PUBLIC "-//W3C//DTD SVG 1.1//EN" "http://www.w3.org/Graphics/SVG/1.1/DTD/svg11.dtd">
<svg version="1.1" id="Layer_2" xmlns="http://www.w3.org/2000/svg" xmlns:xlink="http://www.w3.org/1999/xlink" x="0px" y="0px"
	 width="600px" height="450px" viewBox="0 0 600 450" enable-background="new 0 0 600 450" xml:space="preserve">
<rect x="-7.5" y="-12.5" width="616" height="470"/>
<g>
	<path fill="#FFFFFF" d="M369.842,185.019c-0.357,1.412-1.042,2.406-2.009,3.204c-0.411,0.339-0.855,0.711-1.348,0.866
		c-2.08,0.653-2.659,2.14-2.914,4.181c-0.582,4.662-1.932,9.129-4.203,13.283c-0.688,1.258-1.544,2.323-2.98,2.744
		c-1.449,0.425-2.886,0.961-4.368,1.181c-2.923,0.433-4.859-1.388-6.665-3.3c-1.604-1.698-3.128-3.471-4.706-5.195
		c-0.291-0.318-0.666-0.558-1.048-0.871c-0.555,0.694-0.994,1.411-1.591,1.953c-1.324,1.203-2.583,2.591-4.129,3.41
		c-2.887,1.528-5.893,1.245-8.799-0.261c-2.726-1.413-4.879-3.469-6.75-5.852c-3.048-3.881-5.98-7.83-7.754-12.511
		c-0.256-0.676-0.854-1.222-1.399-1.973c-0.363,0.653-0.621,1.173-0.93,1.661c-2.752,4.347-5.397,8.767-8.306,13.006
		c-2.643,3.851-5.894,7.172-9.936,9.627c-4.092,2.485-8.447,2.866-12.927,1.386c-1.704-0.563-3.002-1.888-3.96-3.405
		c-0.907-1.437-1.653-2.976-2.453-4.479c-0.649-1.218-0.957-1.489-2.229-1.055c-1.326,0.452-2.606,1.109-3.794,1.854
		c-0.421,0.264-0.746,1.062-0.72,1.597c0.195,3.91,0.541,7.811,0.743,11.721c0.334,6.456-0.061,12.873-1.014,19.273
		c-0.978,6.558-3.188,12.65-6.529,18.346c-1.428,2.433-4.698,3.664-7.292,2.903c-1.113-0.326-1.815-1.003-2.336-2.029
		c-2.068-4.068-2.599-8.407-2.379-12.888c0.116-2.366,0.107-4.751,0.432-7.09c0.728-5.235,2.062-10.325,4.101-15.222
		c1.426-3.425,2.796-6.874,4.116-10.34c0.208-0.546,0.015-1.245,0.007-1.873c-0.568,0.042-1.165-0.016-1.698,0.142
		c-3.353,0.997-6.675,2.103-10.042,3.048c-1.716,0.481-3.037-0.684-2.706-2.427c0.26-1.367,0.863-2.687,1.438-3.973
		c1.212-2.708,1.082-3.191-1.592-4.56c-1.319-0.675-2.66-1.307-4.099-2.011c-0.824,1.177-1.691,2.364-2.504,3.587
		c-2.483,3.732-5.652,6.739-9.679,8.703c-3.371,1.644-6.987,2.611-10.753,2.763c-3.152,0.127-6.284-0.166-8.987-2.008
		c-1.08-0.736-2.08-1.676-2.898-2.698c-3.265-4.081-5.746-8.525-5.222-13.996c0.586-6.113,2.901-11.601,6.46-16.57
		c3.003-4.192,6.822-7.512,11.161-10.261c1.393-0.883,1.303-0.922,1.058-2.527c-0.236-1.552-0.311-3.14-0.312-4.712
		c0-1.116,0.509-2.095,1.521-2.688c1.029-0.603,2.034-1.314,3.147-1.69c2.151-0.727,3.909,0.34,5.595,1.551
		c3.575,2.566,5.874,6.203,8.241,9.78c1.663,2.513,2.304,5.449,3.261,8.245c1.452,4.244,2.108,8.634,2.126,13.127
		c0.002,0.529,0.289,1.153,0.639,1.569c1.748,2.075,4.05,3.377,6.469,4.519c0.829,0.391,1.416,0.215,2.019-0.39
		c1.315-1.321,2.615-2.661,4-3.906c1.446-1.301,3.103-1.995,5.133-1.499c1.241,0.303,2.103,0.957,2.61,2.109
		c0.191,0.433,0.377,0.868,0.568,1.301c0.327,0.741,0.896,1.115,1.708,1.121c0.474,0.003,0.95-0.015,1.422,0.021
		c1.247,0.096,2.021,0.861,2.157,2.101c0.069,0.628,0.149,1.254,0.198,1.884c0.044,0.563,0.35,0.728,0.832,0.541
		c0.498-0.192,0.968-0.456,1.456-0.678c2.178-0.992,4.326-2.064,6.553-2.932c0.935-0.364,2.04-0.404,3.065-0.396
		c1.112,0.009,1.928,0.646,2.462,1.656c1.27,2.398,2.542,4.797,3.882,7.157c0.379,0.667,0.912,1.313,1.524,1.765
		c0.977,0.722,2.085,0.798,3.207,0.172c1.952-1.089,3.684-2.429,5.101-4.174c5.586-6.878,9.747-14.568,13.039-22.761
		c1.397-3.476,1.017-6.992,0.347-10.53c-0.458-2.418-0.941-4.833-1.306-7.265c-0.434-2.899,0.468-4.716,3.126-5.909
		c1.555-0.698,3.254-1.209,4.939-1.445c1.592-0.222,2.519,0.788,2.66,2.402c0.434,4.971,0.727,9.958,1.3,14.913
		c0.99,8.56,3.754,16.538,8.565,23.718c1.218,1.818,2.79,3.432,4.366,4.97c1.577,1.539,2.89,1.212,3.694-0.859
		c0.438-1.127,0.603-2.375,0.777-3.585c0.12-0.838,0.142-1.716,0.036-2.554c-0.19-1.499,0.541-2.343,1.818-2.813
		c1.092-0.402,2.205-0.793,3.342-1.021c2.323-0.466,4.104,0.487,5.534,2.296c2.233,2.826,4.505,5.622,6.76,8.43
		c0.119,0.148,0.214,0.332,0.365,0.433c0.382,0.256,0.789,0.474,1.185,0.707c0.218-0.389,0.587-0.762,0.63-1.17
		c0.288-2.725,0.611-5.453,0.723-8.188c0.152-3.732,1.431-5.51,5.094-6.183c2.914-0.536,5.874-0.854,8.853-0.502
		C368.664,184.78,369.181,184.9,369.842,185.019z M216.403,208.063c2.464,0.088,4.626-0.686,6.409-2.35
		c2.817-2.63,4.44-6.001,5.706-9.569c0.377-1.063,0.149-1.95-0.595-2.868c-2.383-2.939-4.925-5.761-6.802-9.088
		c-0.796-1.412-1.605-2.79-1.711-4.458c-0.013-0.209-0.126-0.42-0.223-0.614c-0.907-1.798-1.84-3.584-2.726-5.392
		c-0.571-1.165-1.39-1.499-2.465-0.793c-2.312,1.521-4.561,3.19-5.708,5.795c-1.433,3.252-2.812,6.548-3.906,9.924
		c-0.907,2.801-1.295,5.76-0.067,8.631c0.719,1.68,1.522,3.326,2.335,4.963C208.651,206.272,212.063,207.955,216.403,208.063z
		 M256.52,221.197c-0.107-0.008-0.213-0.015-0.32-0.023c-0.437,1.105-0.934,2.191-1.301,3.319
		c-1.648,5.057-2.765,10.239-3.193,15.537c-0.14,1.729,0.222,3.504,0.413,5.251c0.031,0.285,0.372,0.536,0.57,0.802
		c0.224-0.235,0.548-0.432,0.655-0.712c0.504-1.322,1.092-2.636,1.387-4.009c1.047-4.88,1.807-9.804,1.791-14.817
		C256.515,224.762,256.52,222.98,256.52,221.197z M254.391,199.015c-1.249,1.488-2.934,2.105-4.737,2.535
		c-0.97,0.231-1.395,0.971-1.489,1.951c-0.082,0.85,0.061,1.024,0.912,0.903c0.929-0.133,1.86-0.257,2.789-0.394
		C254.664,203.596,255.774,201.484,254.391,199.015z"/>
	<path fill="#FFFFFF" d="M365.537,273.721c0.512,2.655,0.881,5.349,1.579,7.954c0.659,2.461,1.633,4.842,2.54,7.23
		c0.263,0.692,0.732,1.321,1.182,1.922c0.498,0.665,1.302,0.687,1.866,0.059c0.396-0.441,0.732-0.948,1.032-1.462
		c2.16-3.701,3.127-7.831,4.281-11.897c2.667-9.397,4.535-18.956,6.135-28.589c2.219-13.358,4.479-26.713,7.383-39.946
		c0.081-0.368,0.279-0.719,0.311-1.087c0.031-0.359,0.046-0.881-0.164-1.062c-0.301-0.259-0.824-0.4-1.233-0.366
		c-0.746,0.063-1.491,0.246-2.212,0.462c-1.368,0.41-2.477-0.098-3.324-1.06c-1.584-1.799-3.134-3.638-4.558-5.564
		c-1.29-1.744-2.614-3.377-4.598-4.395c-1.027-0.527-1.839-2.812-1.335-3.763c0.258-0.487,0.825-0.864,1.33-1.154
		c0.872-0.501,1.814-0.876,2.71-1.337c3.195-1.644,5.235-1.189,7.373,1.716c1.198,1.628,2.337,3.3,3.516,4.942
		c0.442,0.615,0.89,1.232,1.395,1.794c0.866,0.962,1.749,0.805,2.247-0.363c0.321-0.754,0.628-1.515,0.942-2.273
		c1.396-3.369,6.19-5.401,9.628-4.082c1.157,0.444,1.742,1.984,1.364,3.646c-0.581,2.553-1.166,5.106-1.769,7.654
		c-1.651,6.97-3.406,13.917-4.943,20.912c-1.409,6.411-2.499,12.892-3.887,19.308c-2.521,11.659-4.988,23.335-7.824,34.919
		c-1.247,5.092-3.205,10.029-5.118,14.928c-0.847,2.17-2.132,4.291-3.668,6.038c-1.71,1.945-4.074,3.155-6.761,3.467
		c-0.533,0.062-1.065,0.133-1.6,0.179c-2.327,0.201-3.775-1.247-5.02-2.862c-2.151-2.79-3.395-6.029-4.325-9.402
		c-1.255-4.551-2.041-9.18-2.295-13.892c-0.029-0.529,0.087-1.169,0.375-1.595c1.183-1.748,2.54-3.301,4.827-3.628
		c2.133-0.305,3.054,0.492,2.895,2.594C365.723,273.686,365.63,273.703,365.537,273.721z"/>
	<path fill="#FFFFFF" d="M272.136,157.776c-1.66,0.001-2.565-0.745-2.786-1.9c-0.158-0.824-0.25-1.667-0.483-2.47
		c-0.38-1.312-0.022-2.401,0.967-3.232c1.894-1.592,3.99-2.762,6.584-2.636c0.343,0.017,0.702,0.04,1.022,0.151
		c2.22,0.772,2.969,2.007,1.903,4.075c-0.648,1.257-1.401,2.463-2.159,3.658c-0.598,0.943-1.482,1.517-2.586,1.759
		C273.621,157.396,272.653,157.65,272.136,157.776z"/>
</g>
</svg>
